<?xml version="1.0" standalone="no"?>
<!DOCTYPE svg PUBLIC "-//W3C//DTD SVG 1.1//EN" "http://www.w3.org/Graphics/SVG/1.1/DTD/svg11.dtd" >
<svg xmlns="http://www.w3.org/2000/svg" xmlns:xlink="http://www.w3.org/1999/xlink" version="1.1">
<metadata>
Created by FontForge 20170731 at Fri Jan  1 02:30:17 1904
 By Aleksey,,,
VERSION510
</metadata>
<defs>
<font id="DEATH-FONT-ver1.0" horiz-adv-x="512" >
  <font-face 
    font-family="DEATH FONT ver1.0"
    font-weight="400"
    font-stretch="normal"
    units-per-em="1024"
    panose-1="2 11 6 0 0 0 0 0 0 0"
    ascent="819"
    descent="-205"
    x-height="753"
    cap-height="496"
    bbox="0 -100 773 777"
    underline-thickness="48"
    underline-position="-168"
    unicode-range="U+0020-2219"
  />
<missing-glyph 
d="M206 400v100h100v-100h-100z" />
    <glyph glyph-name=".notdef" 
d="M206 400v100h100v-100h-100z" />
    <glyph glyph-name="glyph1" horiz-adv-x="0" 
 />
    <glyph glyph-name="nonmarkingreturn" horiz-adv-x="341" 
 />
    <glyph glyph-name="space" unicode=" " horiz-adv-x="400" 
 />
    <glyph glyph-name="exclam" unicode="!" horiz-adv-x="294" 
d="M129 -20l-17 5v6h-6q0 9 -7 10.5t-11.5 5.5t-7.5 10l-6 12l-2 17l2 6l-2 12l14 31l3 -5l3 8h11v6l-3 3l3 6l15 9l6 -3q3 3 7 4t10 1h10.5h9.5l3 -5l6 3l29 -21q3 -6 9 -13t6 -14.5t1 -14.5t1 -16l-2 -3l2 -3q-2 -5 -3.5 -11t-4.5 -10.5t-7.5 -8.5t-10.5 -10l-26 -9l-3 -8
h-14l-12 5v-5h-6zM129 162v6l-8 3l-3 9l3 8l-3 3l6 23l-3 18h-6l-3 23l3 6l-3 5l3 9h-6v12l6 3l-6 23l9 6l-9 3v5h6v6l-3 3l-6 -3v9l6 3l-3 14l3 6q-3 3 -6 4.5t-3 6v7t-3 5.5l3 3l-3 3l3 6l9 6l-3 2l3 3l-12 3l3 6l-3 3l6 3l-8 3v8h5l3 18l-8 29l-3 -3v3l3 3l-3 6l5 5l-2 3
l2 9l-2 3l2 14l-11 21l3 5l-3 3l3 9h6v9l-12 23h6v20l-9 18l9 5v12l-12 9l-3 32l6 2l-6 3v29l6 6l-3 3l6 3l-3 3l15 6v5l-3 3l29 15v6h49l23 -12v-6l9 -3l11 -32l-2 -2l8 -3v-24h-6v-8l3 -18l-3 -3l3 -2h-3l-2 2l-3 -5q5 -3 5 -7.5v-9v-8.5v-10l-8 -41l3 -3h-6v-11h6v-6
l-9 -78l-6 -3l6 -9l-6 -40h-6v-18h6l-6 -35h-5v-5l5 -18l-5 -55l-9 -6l6 -23l-6 -23l3 -15l-6 -23h-6v-14h6v-23l-9 -12l-3 3l-3 -6l-5 3l-9 -3l-3 6l-3 -6h-3l-3 3zM141 180l-3 2l-3 -2l3 -3zM132 229l9 14l-3 3l-11 -17l2 -3zM161 255v20l-3 3l-5 -23h8zM164 278v12l-3 3
l-3 -15l3 -3zM115 284l-3 3l-3 -3l3 -3zM167 293l-3 2l-3 -2l3 -3zM144 307l6 20l-6 9l-9 -23l6 -9zM179 307v6l-3 3l-3 -9l3 -3zM115 339l-3 3l-3 -3l3 -3zM109 417v3l-3 3l-3 -6l3 -3zM150 455l3 20h-9v-20l3 -3zM106 495l-3 3l-3 -3l3 -2zM106 527v6l-3 3l-3 -9l3 -3z
M109 536l-3 3l-3 -3l3 -3zM124 559l-6 6l-6 -6l9 -3zM202 756l-3 3l-3 -3l3 -3zM106 759l-3 3l-3 -3l3 -3z" />
    <glyph glyph-name="quotedbl" unicode="&#x22;" 
 />
    <glyph glyph-name="numbersign" unicode="#" 
 />
    <glyph glyph-name="dollar" unicode="$" 
 />
    <glyph glyph-name="percent" unicode="%" 
 />
    <glyph glyph-name="ampersand" unicode="&#x26;" horiz-adv-x="490" 
d="M144 0l-9 3l-7 10h-10l-3 6l-7 -3l-13 6v-6l-6 3h6v10h-6v7l-33 13l-3 9h-7l-3 20l-3 -3l-10 29h-7l-3 20l3 10h-6l-10 36l3 26l-6 7l3 3l-3 13l6 13l-6 36l9 26l-3 17l13 29l-3 7l6 10l4 -4l6 10l-3 3l10 14l-3 3l19 16l-3 3l3 4l7 -13l3 16l-3 3l13 4l3 9h10l3 13h7v14
l-10 3l-3 10l6 13l-10 3l-3 10h7v10l-13 42l6 33l-3 3l-3 -3v3l3 10l-3 3l3 4l-3 13l9 26l-3 3l7 4l-7 3v3l23 56l7 3l-4 3l7 10l3 -10l10 17l-3 3q6 7 12.5 11.5t15 6.5t18 2t16.5 6l3 -3l26 3l30 -10l6 -16h7l3 3l7 -13l-3 -3l9 -3v6l20 -39l-3 -3l10 -4l6 -52l-6 -20
l6 -32l-3 -10l3 -7l-3 -3l3 -7q-6 -13 -8 -26t-6.5 -26t-14.5 -24.5t-20 -21.5l-23 -16l-3 3l-10 -3l-7 -13l14 -33l-7 -3l10 -14h6l17 -39l-4 -16h7l-3 -10l19 -16v-7h7l20 -43h6l3 4l4 -4l3 10l-3 10l6 23h7v20l-3 3l-4 -7v4l4 32l3 -3l3 16l-3 14h-7l-6 13l3 6l7 4l-10 3
l-7 -7l-36 10v10l7 20l-7 9l17 4l13 -4l39 4l3 -4l56 4l10 -4l23 4l3 -23l-3 -4l3 -16l-26 -10v-6l-30 -30l4 -3l-7 -16l3 -17l-13 -65h-6l-4 -17l4 -3l-10 -20l3 -6h-7l-3 -26l17 -36l9 -4l7 -16l3 3l23 -10l10 4l7 16h6l10 23l-3 6h6v17l-3 3l-3 -13v16l3 14h6v9h-6v4l3 6
h33v-6h7l3 -40l-3 -19l3 -4l-10 -32l3 -7l-29 -62l-4 6l-3 -9l3 -4l-26 -16l4 -3l-33 -10v6h-17l-26 -6l3 3l-6 7l-10 -4l-10 17l-3 -4v7h-7v7h-9v6l-23 7l-46 -30l-3 7l-7 -13l-29 -7l-4 3l-3 -6l-30 -3l-3 3l-3 -3l-3 3zM174 6l-7 3l-3 -3l7 -3zM197 13l-3 3l-4 -3l4 -4z
M354 58l7 30h-10l-4 -30l4 -3zM456 58l-4 4l-3 -4l3 -3zM465 78v13h-9l-4 -3l4 -20h9v10zM220 88v7l23 13q-4 3 -8.5 8t-6.5 11.5t-3.5 13t-1.5 12.5h-10l-3 14h6l4 16l-7 3l-3 -3l-7 10l-3 -10v7h-10l-3 6l3 16h-10v10h-6l-26 72l3 4l-10 6l3 3l-9 23l3 4l-3 3l3 3l-10 17
l-7 -4l-3 4q-3 -7 -4.5 -15t-3.5 -16.5t-6.5 -15t-4.5 -16.5h6v-9l-10 -4l10 -3l-6 -23l3 -3l-7 -10l4 -3l6 3l3 -13l-3 -17l26 -62l-6 -3l6 -7l4 4v-4l-7 -3l10 -13l3 10l20 -30l39 -13v-6h7l6 3l3 -3zM308 95l-3 3l3 3l-6 16l-7 -16l3 -10h7zM377 108v3l-3 3l-4 -6l4 -4z
M472 114v7l-10 19l-3 -26h13zM456 131v3l-4 3l-3 -6l3 -4zM272 140v4l-3 3l-3 -7l3 -3zM456 144l-4 3l-3 -3l3 -4zM115 173l-3 3l-4 -3l4 -3zM56 193l3 3l-3 10h-10v-16h7zM220 193l-4 3l-3 -3l3 -3zM321 248l-3 4l-3 -4l3 -3zM177 255v3l-3 4l-3 -7l3 -3zM174 265v3l-3 3
l-4 -9l4 -4zM207 262v9h-10v-9h10zM220 275v23h-13v-10l3 -13h10zM269 285v6h-7l-3 -3l7 -7zM184 311v10l-7 6l-3 -16h10zM334 350l-3 3l-3 -3l3 -3zM213 353v23h-10v-23h10zM285 383l4 3l-7 7l-3 -10l3 -3zM423 380v9l-7 7l-10 -3v-10h7l3 3l-3 -3zM429 383v6l-3 4l-3 -7z
M295 386l-3 3l-3 -3l3 -3zM338 393v6l-7 7l-3 -10l6 -7zM433 393l-4 3l-3 -3l3 -4zM167 409v23l-3 3l-7 -26h10zM331 412v4l-3 3l-3 -7l3 -3zM220 425v17l-4 3l-6 -20h10zM236 435l-3 3l-3 -3l3 -3zM102 455l-3 3l-4 -3l4 -3zM269 461v7l3 13l-6 7l-7 -13l7 -17zM190 481
l-6 3l-4 -3l7 -3zM230 488l6 13l-3 3l-7 -3h7v16h-7l-3 -3l3 -3l-3 3l3 6l17 7v6l-10 23h6v20l-3 3l3 7l-6 29l3 7l-6 16l6 7l-13 26l-3 -6l-10 29l-20 3l-16 -10l3 -6l-10 -16l-3 3l-7 -7l10 -6l-13 -40q10 -13 11.5 -31t5 -34.5t8.5 -32.5t8 -33zM239 553l-3 3l-3 -3l3 -3
zM99 671l-4 3l-3 -3l3 -3zM226 674l-3 4l-3 -4l3 -3zM285 701v9h-10v-6l7 -7zM262 723v4l-3 3l-3 -7l3 -3z" />
    <glyph glyph-name="quotesingle" unicode="'" horiz-adv-x="237" 
d="M107 371l-10 7l7 3l-13 3v4l6 19l-16 13l3 6l-3 3l3 4l-3 6h7v6l-10 29l6 13h-6l-13 39l7 -13h12v6l-9 26l3 -3l3 9l-19 7l-6 26l3 3l-3 6l3 7l-3 3l3 3l-7 3l-3 13l3 3l-3 7l7 6l-4 3l4 7l-13 29l3 3l-6 3l3 7l-3 3l6 19h6l7 26h6v9h7v7h3l9 -3l7 9l-3 3l-4 -3v3l20 10
l13 -6l19 6l3 -3l3 3l7 -6l3 3l6 -13l16 -3v-7h7v-3l-3 -9l6 -7l7 3l6 -19l-3 -3l3 -7l-3 -6l3 -19l-10 -36l4 -3l-17 -51l4 -7l-4 -3l4 -3l-13 -39l3 -3l-6 -13l3 -3l-3 -6l-16 -10l9 -3v-3l-6 -4l9 -3l-6 -6l3 -7l-6 -3l6 -6l-13 -39l4 -3l-10 -16l3 -3l-10 -7l7 -9l-3 -7
zM120 433l3 6l-13 6v-16h7zM88 436l-4 3l-3 -3l3 -3zM117 455v10l3 12l-3 4l-7 -26l3 -3zM113 526v9l-16 10l-3 -13l10 -10zM101 564l-7 7l-6 -7l9 -3zM104 567l-3 4l-4 -4h7zM56 622l-4 3l-3 -3l3 -3zM107 767l-3 3l-3 -3l3 -4z" />
    <glyph glyph-name="parenleft" unicode="(" horiz-adv-x="326" 
d="M265 -20l-6 17h6v8h-12v-5l-5 17h-6l-3 -3l-3 11l-11 9l3 9l-12 2l-11 29h-6l3 3l-6 3l3 6l-3 2l6 3l-15 6l-2 14l-6 3v3l3 6l-6 11l-3 -3l-11 26l5 3l-8 3l6 3l-9 3v5v-2l3 -3l6 5l-6 9l-6 -3v6l3 6l-3 14h-6l3 3l-6 20l-5 3l-3 14l3 6l-6 11l3 15h-9l6 26l-6 48l-5 3v3
l5 3l-3 6l3 20l-3 3l-2 -9v34l2 9l-2 3l2 28l3 -2l12 5v9l-9 6l-3 -3v6l3 11l9 3l-6 17l3 6l8 3l-2 17l5 11l-3 3l3 3l-3 3l3 9l3 -9l6 17h6v9l-3 3l17 48l-3 3l3 3l3 -3l6 6l-3 3h5v8l-2 6l8 15l6 -3l3 3l-3 2l3 3l-6 3l9 12h5l6 20l9 3l8 20l9 2l6 18h5l6 14h9v6l3 -3l5 6
l9 -3l3 -9l11 -6l3 -23l-11 -22l-9 -3l-3 -12l-6 -3l6 -3v-2q-8 -12 -11 -23.5t-10 -21.5t-8.5 -21.5t-7.5 -22.5h-6v-9l3 -3q-6 -14 -8.5 -28.5t-7 -28.5t-6 -30t-7.5 -30h-5v-6l5 -14l-2 -6h-6v-12l3 -14l-3 -3l6 -3v-5l-6 -6l3 -14l-3 -9l3 -3l-3 -6l3 -8l-3 -3l3 -14
l-6 5l-6 -8l15 -20l-3 -18q8 -14 9.5 -28.5t4.5 -30t6 -30t8 -28.5h-5v-12l8 -3l35 -83l-3 -5l3 -9l-3 -34h5l6 11l-3 9l3 8l15 -34l-3 -12h5l6 3v-20l-31 -28l-3 2zM279 20v3l-3 2l-3 -5l3 -3zM268 23v14h-12l-3 -17h6l3 3l3 -3zM282 25l-3 3l-3 -3l3 -2zM248 100v14l-3 3
l-3 -17l3 -3zM150 364l12 14l-6 9l-12 -23l3 -3zM136 398v9h-9v-9h9zM133 450v3l-3 2l-3 -5l3 -3zM159 467v9l-6 5l-6 -8zM136 481l-3 3l-3 -3l3 -3zM271 679l-6 9l-3 -12l6 -5zM239 731l-3 3l-3 -3l3 -3zM259 748l-3 3l-3 -3l3 -3z" />
    <glyph glyph-name="parenright" unicode=")" horiz-adv-x="326" 
d="M61 -20l-3 2l-3 -2l-31 28v20l6 -3h5l-3 12l15 34l3 -8l-3 -9l6 -11h5l-3 34l3 9l-3 5l35 83l8 3v12h-5q5 14 8 28.5t6 30t4.5 30t9.5 28.5l-3 18l15 20l-6 8l-6 -5l3 14l-3 3l3 8l-3 6l3 3l-3 9l3 14l-6 6v5l6 3l-3 3l3 14v12h-6l-2 6l5 14v6h-5q-6 14 -7.5 30t-6 30
t-7 28.5t-8.5 28.5l3 3v9h-6q-6 11 -7.5 22.5t-8.5 21.5t-10 21.5t-11 23.5v2l6 3l-6 3l-3 12l-9 3l-11 22l3 23l11 6l3 9l9 3l5 -6l3 3v-6h9l6 -14h5l6 -18l9 -2l8 -20l9 -3l6 -20h5l9 -12l-6 -3l3 -3l-3 -2l3 -3l6 3l8 -15l-2 -6v-8h5l-3 -3l6 -6l3 3l3 -3l-3 -3l17 -48
l-3 -3v-9h6l6 -17l3 9l3 -9l-3 -3l3 -3l-3 -3l5 -11l-2 -17l8 -3l3 -6l-6 -17l9 -3l3 -11v-6l-3 3l-9 -6v-9l12 -5l3 2l2 -28l-2 -3l2 -9v-34l-2 9l-3 -3l3 -20l-3 -6l5 -3v-3l-5 -3l-6 -48l6 -26h-9l3 -15l-6 -11l3 -6l-3 -14l-5 -3l-6 -20l3 -3h-6l-3 -14l3 -6v-6l-6 3
l-6 -9l6 -5l3 3v2v-5l-9 -3l6 -3l-8 -3l5 -3l-11 -26l-3 3l-6 -11l3 -6v-3l-6 -3l-2 -14l-15 -6l6 -3l-3 -2l3 -6l-6 -3l3 -3h-6l-11 -29l-12 -2l3 -9l-11 -9l-3 -11l-3 3h-6l-5 -17v5h-12v-8h6zM47 20l3 -3l3 3l-3 5l-3 -2v-3zM58 23l3 -3l3 3l3 -3h6l-3 17h-12v-14zM44 25
l3 -2l3 2l-3 3zM78 100l3 -3l3 3l-3 17l-3 -3v-14zM176 364l3 -3l3 3l-12 23l-6 -9zM190 398h9v9h-9v-9zM193 450l3 -3l3 3l-3 5l-3 -2v-3zM167 467l12 6l-6 8l-6 -5v-9zM190 481l3 -3l3 3l-3 3zM55 679l3 -8l6 5l-3 12zM87 731l3 -3l3 3l-3 3zM67 748l3 -3l3 3l-3 3z" />
    <glyph glyph-name="asterisk" unicode="*" 
 />
    <glyph glyph-name="plus" unicode="+" horiz-adv-x="561" 
d="M253 154l-18 11l4 3l-4 3l7 7l-3 4l3 3l-7 11l11 6l-4 11h-7v17l11 3l-11 4v7q4 3 5.5 6.5t1.5 8.5v10.5v8.5l-7 21l7 7l-3 17h-7l3 3l-6 4l-7 -4l-11 14l-3 -7l-7 -3l7 -4h-28l-3 4l-24 -4l-7 4l-21 -4l-17 7l-10 -3l-17 10l-4 -7h-10h7v7l-4 3l-3 -3l-3 10l3 4l-3 13
l3 -3l3 21l-6 24l103 3l3 -3l21 3l17 -7l34 14l-7 21l4 10l-4 3h7v7l-3 4l3 7l-7 7l4 10l-4 3l4 7l-4 28l4 3l-4 7l7 7l-7 20l11 7l-11 7l7 7l-3 4h7l17 -4l55 4l3 -31l-3 -11l3 -72l-3 -3l3 -7l-10 -21l7 -3l7 -24l58 -7l4 3l3 -3l4 3l7 -3l44 3l4 -20h10v6l-3 14h37l4 -7
l-4 -3l4 -55l-4 -21h-72v7h-7l-7 -3v3l4 24h-10l-7 -10l7 -21h-28l-21 7l-20 -7l-4 4q-10 -11 -8.5 -28t1.5 -32.5v-31v-29.5h-13v-10l13 -3v-21l-3 -7l3 -7l-34 -7l-14 7l-3 -7h-17zM242 216l-3 4l-4 -4l4 -3zM287 257v18l-3 3l-4 -21l4 -3zM115 337v6l-14 21l-7 -10
l18 -21zM194 347v10h-7l-3 -3l7 -11zM74 354l-4 3l-3 -3l3 -4zM332 364v10l-7 7l-7 -10l10 -10zM198 364v10l-7 7l-7 -10zM277 374l3 11l-3 3l-7 -14l3 -3zM136 378v10h-11v-10h11zM328 385l-3 3l-4 -3l4 -4zM284 395v3l-4 4l-3 -7l3 -3zM249 457l-3 3l-4 -3l4 -4zM253 460
l3 7l-7 7l-3 -14h7zM256 474l-3 4l-4 -4l4 -3z" />
    <glyph glyph-name="comma" unicode="," horiz-adv-x="271" 
d="M91 -100l-4 10l2 9l-2 6l20 6q-3 5 1 10t9.5 9.5t8 7.5t5.5 8l12 14h6v12l-4 8l-14 6v5h-7l7 3l-8 7l-4 6l-3 -6l-6 -3l-8 6v6l-19 2l-2 -2l-4 17l-24 7l-3 7l3 20l-3 2l-6 -6l3 -9h-3l-4 27l10 7l-3 8l3 3l-3 21l6 7l3 -3l12 3l9 20l46 14l32 -11l-3 -9h8l6 6l19 -20
l-3 -16l3 -2l9 5l13 -38l-4 -3l4 -40l-34 -67l-3 2l-6 -9l2 -7q-6 -9 -16.5 -17.5t-18.5 -17.5t-18.5 -16.5t-21.5 -14.5zM185 21v9l2 21h-8l-4 -30h10zM104 36v11l-2 4l-11 -10zM81 57l2 8h-10v3l8 13l-4 2l-4 -6l-11 -15l3 -1l3 1l9 -8zM179 57l3 4l8 -4v15h-8v-7h-9v-8
l2 -3zM77 95l-4 3l-2 -3l2 -3zM112 120l4 3l-4 9h-8v-15h6zM60 134l-4 4l-3 -4l3 -2z" />
    <glyph glyph-name="hyphen" unicode="-" horiz-adv-x="510" 
d="M51 344v3l-3 26l3 29l-3 20l3 3l3 -3l29 3l4 -3l6 3l3 -3l33 3l19 -7q4 4 7 5.5t8 1.5h10h8l10 -10l6 7l3 -7l13 3l4 -3q3 3 6 6.5t8 3.5h10h11l4 -3l3 3l3 -3l10 3v-10l-3 -10h9v20h4l9 -3l30 3l6 -3l13 3l13 -7l13 7l10 -7l3 7h71l4 -39h-7l-3 -13l3 -3l-3 -3l10 -4
v-13l-10 -6l-19 6v-6h-17l-3 3l-3 -3v6h-10l-19 -3l-7 20l-3 -20h-36v13l3 7l-16 6v-19l3 -10h-13l-3 6l-23 -6l-16 6l-10 -6l-3 3l-45 -3l-7 3v7h-13l-6 -10h-30l-16 6l-32 -6v6h-10l-7 -6l-3 3zM343 350l-3 4l-3 -4l3 -3zM301 354v3l-3 3l-3 -6l3 -4zM74 360v7l3 19l-3 3
q-4 -3 -7 -6t-3 -6.5v-8.5v-8h10zM122 370v29l-6 10l-7 -26l10 -16zM395 380l7 6l-7 10l-6 -16l3 -4zM447 389v7l-6 6l-4 -10l7 -6zM402 396l-3 3l-4 -3l4 -4zM412 396l3 3l-7 3l-3 -3zM441 409v3l-4 3l-3 -6l3 -4zM90 418l-3 4l-4 -4l4 -3zM389 422l-7 3l-3 -3l7 -4z" />
    <glyph glyph-name="period" unicode="." horiz-adv-x="262" 
d="M116 20l-35 7l7 4l-14 3v10h-7l-3 -3l3 3l-24 32l3 3l-6 3v4l3 3l-3 28l3 7l10 3l-7 4l7 7l-7 3l4 4l3 -4l18 24l27 7l4 7h3l4 -3l7 3l6 -7l11 7l3 -10l4 7h3l4 -4l3 4v-7l28 -11l17 -38l-3 -3l6 -21l-6 -31l-11 -10l4 -4h-11v-10h-3l-4 3l-17 -10v-7l-14 -3v3l4 4l-4 10
l4 7l-4 3l-14 -31l-3 4zM157 34v17l3 4l-13 3v-24h10zM154 82v32l-4 3l-10 -35h14zM164 100l-4 3l-3 -3l3 -4zM143 165v4l-3 3l-4 -7l4 -3z" />
    <glyph glyph-name="slash" unicode="/" horiz-adv-x="454" 
d="M51 -20l-8 2v6l-15 3l3 6l-3 3l-3 -3l-5 9l14 23l-3 3h6l3 17h6v6l2 -3l6 14l-3 12l6 12h6l6 17l-3 3h6v6l11 6l-3 5l3 3l-3 6l6 3l-3 9l6 11l9 -3l3 9l-6 3l11 3l6 29l-3 6l12 17l3 -3l6 20l-3 3h6l5 23h6v12h12v12l6 3l-3 2l3 6l-3 9l5 12l12 8v9h6v9h-6v3l3 5l6 3
l-3 3l14 32l9 9l-3 3h12v5h6v6l-3 3l-3 -3v3l3 6h5l6 32l12 8v9l-3 3l3 9h8q0 11 3 21.5t9 19t9 18.5t11 19l-3 6l9 6v7t3 5.5l6 3t6 4.5l-3 6l17 43l3 -3l6 21l6 -3l3 3l-6 8l6 15l14 6v8l6 3l-9 3l15 9l-6 14l17 15l-6 8l12 18l-3 3h3l3 -3l3 3l6 -3l8 3v-6h9h-9v-9l29 -3
l3 3l3 -20l-11 -26h-6l-3 -9l3 -3l-23 -46h-6l-3 -15l3 -3l-52 -113h-9l-6 -29l-9 -2l-3 -21l-2 3l-3 -9l3 -5l-24 -50l-3 3l-5 -8l3 -6l-12 -26h-3l-3 3l-6 -9l3 -15l-6 -11l-2 3l-12 -32h-6l-3 -20l-3 8l-5 -14h5l-29 -64h-5v-10.5t-1.5 -7t-4.5 -7t-3 -7.5l-9 -3l3 -3
l-3 -11l-11 17l-3 -9l11 -17l-8 -9l3 -3l-12 -14l3 -3l-15 -32l-5 -3l2 -6l-5 -2l3 -3l-3 -6l-15 -9v-9h6v-2l-9 -18h-8l-3 -26l-3 3l-3 -6l3 -3l-15 -32zM37 -3l-3 3l-3 -3l3 -3zM89 26l3 9l-3 2l-9 -2v-12h6zM144 136v3l-3 3l-3 -6l3 -3zM98 153l-3 3l-3 -3l3 -2zM135 174
v8h-8v-8h8zM162 208v3l-3 3l-3 -6l3 -2zM118 211l-3 3l-3 -3l3 -3zM121 214l-3 3l-3 -3h6zM164 217v6l-2 3l-3 -9l3 -3zM222 307v9h-8v-9h8zM202 388v3l-3 3l-3 -6l3 -3zM277 417v3l-2 3l-3 -6l3 -3zM344 568l-3 3l-3 -3l3 -3z" />
    <glyph glyph-name="zero" unicode="0" horiz-adv-x="359" 
d="M188 0l-21 2v6q-8 0 -14 1.5t-10.5 7.5t-10.5 9t-12 9l-6 12l-20 23v9h-6l3 3l-3 3l3 3l-12 9l3 3l-9 12l3 3l-12 26l3 3l-12 24l3 3l-12 30l3 3l-3 3l3 2l-3 3l3 9h-6l-6 27l3 3l-12 59l3 35l-3 33l3 27l-3 9l3 17l-3 30q3 9 6 17.5t3 19v19.5t6 18l-3 3l12 32l-3 3l3 3
l-3 3q6 21 12 40t15 37t19 37t25 34l18 15l38 15l6 -6l3 6h18l41 -18v-6h7.5t6 -3t4.5 -6l6 -6q18 -21 29.5 -47.5t20.5 -51.5t13.5 -53t10.5 -55l-3 -3l12 -112l-3 -9l3 -47l-6 -18l3 -18l-9 -38l3 -15q-3 -15 -6 -31t-7.5 -32.5t-7.5 -31.5t-12 -29l3 -3l-17 -42h-6
q0 -9 -4.5 -16t-9 -14.5t-12 -13.5t-13.5 -12t-13 -10.5t-14.5 -9t-16.5 -4.5t-18 -2zM212 38q9 9 16 18t10 17.5t4.5 20.5t7.5 21l-3 6l3 6l-3 3l6 20l-3 3l9 59l-3 12l3 9l-3 3l9 53q-6 3 -6 10.5v15v15v13.5l3 14l-3 6l3 36l-3 6l6 6l-6 26l3 24l-3 9l6 14q-6 9 -6 21v24
t-1.5 23.5t-4.5 20.5l3 9l-3 3l3 3l-15 74l3 6l-6 12l3 3l-11 17l-18 18v6l-27 6q-9 -3 -15 -9t-11.5 -12t-8.5 -14.5t-9 -14.5q-3 -18 -9 -34.5t-6 -34t-3 -35.5t-6 -35l3 -3l-3 -12l3 -9l-6 -30l3 -91l-3 -24l6 -148l-3 -3q6 -23 7.5 -47t6 -46t10.5 -44t18 -43
q5 3 9.5 -1.5t10.5 -6t12 -1.5h12z" />
    <glyph glyph-name="one" unicode="1" horiz-adv-x="277" 
d="M35 0l-11 5v18l2 6h18t18 1.5t15 10.5t15 9v6l6 3l-3 6q6 12 9 25.5t3 28.5v31t3 28l-3 164l3 3l-3 128l3 3l-3 6l3 3l-3 51l3 3l-3 48l3 9l-3 3l3 3l-6 8l3 3l-3 6l3 12h-6l-3 9l-6 3l-6 15l-3 -6l-18 12l-18 -3l-18 3v30q12 0 21 1.5t19.5 4.5t19.5 7.5t18 7.5l-3 3
l15 6l6 9l3 -3l15 27l9 -3l24 3v-644q2 -9 2 -19.5t1.5 -21t6 -19.5t13.5 -15l12 -6t13.5 -3h15h13.5v-12l-3 -6l3 -3l-3 -6h-6l-21 3l-33 -5l-29 5l-3 -3l-3 3l-27 -5l-6 2l-54 -2l-12 2z" />
    <glyph glyph-name="two" unicode="2" horiz-adv-x="345" 
d="M48 0l-6 2l3 6l-6 6l3 6l-3 6l3 9l-3 18l3 9l-3 18l12 21l-3 3l96 182h6l3 18h6l15 44h5v6l-3 3h6v6l-3 3l6 15h6l6 18l-3 3l18 62h-6l3 3l-3 12l6 12l-3 6l3 3l-3 9l6 54l-3 3l3 3l-9 47l3 6l-9 30l3 3l-3 12l-9 3l3 3l-15 15v6h-5v6q-6 0 -10.5 4.5t-10.5 4.5h-12
t-12 3l-3 -3l-6 3l-36 -27l-18 -54q6 -15 13.5 -26.5t15 -26.5t7.5 -30v-33l-18 -45l-24 -6l-27 24l-6 27l3 6l-6 21l6 18l-6 21q3 9 4.5 20.5t4.5 20.5t6 19.5t9 19.5l6 3l-3 3l36 57h6v6l27 12v6l3 -3l24 12l18 -3l9 3q8 -3 17 -6t18 -7.5t18 -10.5t15 -15t12 -16.5t9 -15
t7.5 -16.5t7.5 -18l-3 -6q6 -6 7.5 -16.5t3 -19t3 -17.5t1.5 -18l-3 -3l3 -63l-6 -15l3 -6q-6 -35 -21 -69.5t-36 -66t-43 -59.5t-40 -61l-9 -6l3 -3l-57 -104l66 -3l3 3l9 -3l6 3l3 -3l20 3l6 -3q9 3 18 3h18t18 1.5t15 10.5l21 50h6l9 66h15v-18l-12 -63l3 -12l-18 -113
l3 -6l-9 -33l-42 -2l-3 2l-24 -2l-3 2l-9 -2l-12 5l-9 -5l-3 2l-35 -2l-3 2l-3 -2l-12 2l-63 -2l-6 2z" />
    <glyph glyph-name="three" unicode="3" horiz-adv-x="335" 
d="M135 2v3l-5 6l-6 -3l-42 21l-3 9l-8 6l-6 6t-7.5 5.5t-4.5 7v10.5h-6l-18 50l3 9q-3 3 -4.5 7.5t-1.5 9t-1 7.5t-1 8l2 3l-2 21l5 9l-3 3l18 35q3 3 7.5 4.5l9 3t9 1.5h9.5q6 -3 10.5 -6t7.5 -7.5l6 -9t6 -9.5l6 -45l-27 -85l18 -35q6 -3 10.5 -6t10 -4.5t11.5 -1.5h12
l33 12v6l8 -3l3 14l3 -3l3 9h6l6 21h6l6 29l-3 3l6 27l6 3l-3 20l6 21l-3 3l3 23l-3 3l3 3l-6 18l3 3l-3 12l3 3l-21 73l3 3l-9 3l-3 6l3 6l-3 3l-3 -3v9h-6l-3 12h-5v6l-9 2l-3 -2l-24 2l-29 -11l-6 32l9 6l-3 3l11 3q6 -3 10.5 -4.5t12 -1.5h13.5h12l26 38l6 3l-3 6l9 32
h6v9l-3 15l6 88l-9 30l3 6l-9 20l3 3l-3 3l3 3l-6 3l-6 12l3 9l-12 12q-3 5 -8.5 5t-8.5 6t-9 6t-9 3l-6 -3l-3 6l-38 -15l-9 -35q6 -12 10.5 -25t10.5 -26.5t6 -28v-29.5l-24 -41l-21 -9l-26 15q-3 6 -7.5 10t-6 8.5t-3 10.5t-1.5 12l3 12l-3 9l6 14l-6 18q6 9 6 20.5t6 22
t9 21t15 16.5l-3 2l11 6l6 15q9 9 19.5 13.5t22 9t25 4.5h25.5l3 -3l8 3l18 -6t18 -9t17.5 -12t14.5 -15q15 -17 24 -36.5t13 -40t4 -42.5t3 -46q-3 -17 -7 -33.5t-10 -32.5t-15 -31t-24 -26l-32 -21l-3 3l-3 -6l-6 -3l18 -6t17.5 -8.5t16 -13l13.5 -13.5l24 -35l-3 -3
q5 -6 8 -12t4.5 -13.5t3 -14.5t4.5 -13l-3 -3q6 -12 6 -24v-23.5v-25v-25.5q-3 -14 -7.5 -30.5t-8.5 -31t-13 -28t-21 -24.5l-9 -3l-9 -15q-11 -6 -21.5 -12t-21 -10.5t-23.5 -6t-25 -1.5v6h-6z" />
    <glyph glyph-name="four" unicode="4" horiz-adv-x="374" 
d="M140 0l-3 29h18l3 -3l29 12l3 12h6v6l-3 3q6 6 6 15v16.5t3 15t3 16.5l-6 21l3 3l-3 17l3 21l-35 3l-87 -3l-3 3l-6 -3l-15 3l-3 -3l-3 3l-26 -3v6l5 18l-3 21l6 6l-3 3l12 21l-3 3l18 33l-3 3q3 3 4.5 7t4.5 7t3 9v9l9 6l3 9l-3 9l15 36h6q0 9 1.5 19.5t6 19.5t7.5 18
t6 17l6 3l-3 3l6 15l6 3l-3 6l9 15l-3 3l12 24h6v6l-3 3l32 80l-3 3q6 12 10.5 25.5t9 25.5t12 25.5t10.5 25.5h6v24l45 3v-27l-3 -6l3 -102l-3 -6l3 -8l-3 -3l3 -3v-334l-3 -3q3 -6 3 -12v-12v-13.5t9 -7.5l18 3l3 -3l41 3v-36h-26l-3 3l-24 -6l-3 6l-6 -6l-3 3l-9 -12
l3 -3l-3 -6l3 -20l-6 -6q9 -12 7.5 -25.5t0 -27t4.5 -27t15 -22.5q6 -3 10.5 -6t10.5 -3h11.5h11.5v-29h-3l-14 2l-30 -2l-15 5l-3 -3l-9 3l-6 -3l-18 3l-33 -5l-9 2l-6 -2l-3 2l-9 -2l-5 2zM202 223v3l-3 6l3 6l-3 3l3 6l-3 27l3 12l-3 9l3 23l-3 42l3 6l-3 3l3 3l-3 6l6 9
l-6 21l3 6l-3 21l6 15l-6 17l6 24l-3 3l3 3l-6 24l3 3l-3 6l3 6l-3 33l3 6l-6 9l-74 -179l3 -3l-69 -176l9 -6l3 3l3 -3l21 3l18 -3l86 3l3 -3z" />
    <glyph glyph-name="five" unicode="5" horiz-adv-x="340" 
d="M128 3l-12 3l-12 12l-9 -3l-42 42q-6 15 -10.5 30t-7.5 30t-3 31.5v34.5l6 12l-3 3l3 3l-3 3l3 9h9l6 21l27 9l21 -15q6 -6 7.5 -15t3 -16.5t1.5 -18t3 -16.5q-3 -12 -4.5 -24t-7.5 -22.5l-12 -21t-6 -22.5l30 -33l30 -3l3 3l3 -3l36 33l9 3l-3 3l18 39l-3 3l9 39l6 3
l-3 21l9 12l-3 3l3 9l-3 27l6 15l-6 48l6 15l-9 3q0 12 -4.5 24t-7.5 24t-10.5 22.5t-13.5 19.5l-33 15q-6 -3 -13.5 -4.5t-13.5 -6l-12 -9t-12 -10.5l-36 -66l-9 -3l-15 3v3l3 15l-3 9l3 3l-3 6l9 30l-6 15l6 27l-3 18l3 3l-3 9l9 75l-3 30l9 108l-3 12l6 9l-3 6l3 3l-3 3
l6 9l-6 24l3 18h42l6 -3l30 3l3 -3l27 3l21 -3l45 3l3 -3l33 3l15 -3l6 3v-39l-3 -3l3 -75l-39 -3l-30 3l-36 -3l-6 3l-57 -3l-3 3l-45 -3l-9 -201l3 -3l30 42l18 9v6l36 12l6 -3l18 3q9 -6 18 -7.5t16.5 -7.5t16.5 -12t15 -15q12 -15 22.5 -33t16.5 -37.5t9 -39t9 -40.5
l-3 -3l3 -3l-3 -6l3 -81q-3 -27 -9 -51t-13.5 -48t-21 -46.5t-34.5 -40.5l-21 -12l-3 3l-7.5 -7.5t-7.5 -6t-9 -1.5t-9 -3l-3 3l-12 -3l-3 3z" />
    <glyph glyph-name="six" unicode="6" horiz-adv-x="318" 
d="M151 2l-48 27l-3 9l-12 6l-11 21l3 8h-9l-9 18l3 3l-6 6l3 3q-6 6 -7.5 13.5t-3 14.5t-4.5 14.5t-6 13.5l3 3l-9 24l3 12l-6 11l3 3l-3 12l3 12h-6l-3 9l3 15l-6 23l6 6l-6 18l3 15l-6 26l3 3l-3 80l6 24l-3 3l3 12l-3 3l6 35l6 3l-3 21l21 65l-3 3l9 21h6q0 8 1.5 17
t6 15t7.5 15t8 15l6 3l-3 3l45 50l12 3l3 6q5 3 12.5 4.5l15 3t15 1.5h16.5l12 -6l3 3q8 -3 17 -9t16.5 -15t12 -18t10.5 -18q3 -8 6 -17t3 -19.5v-21v-21.5l-6 -3l3 -9l-21 -33l-30 -6l-6 3v6q-3 0 -5.5 1.5t-2.5 4.5t-1.5 4.5l-4.5 4.5l-3 15l3 6l-3 38l3 3l-3 3
q6 3 6 10.5t4 13.5t4 13v13l-17 21l-15 3l-3 -3l-15 3l-3 -3l3 -3l-18 -12q-20 -26 -30.5 -58.5t-16.5 -65.5t-7.5 -68t-7.5 -68l3 -38l-3 -3l6 -6l15 26h6l12 18l26 12l3 -3l18 3q9 -3 16.5 -6t15 -7.5t14.5 -12t13 -13.5q15 -17 25.5 -38t16.5 -43t10 -45.5t4 -47.5l-3 -9
l3 -47l-5 -12l2 -12l-20 -74h-6v-6l3 -3q-6 -9 -10.5 -16t-10.5 -16t-13.5 -15t-12.5 -15l-3 3l-3 -6l-18 -9l-3 3l-3 -6l-15 -3l-3 3l-21 -3l-2 3zM183 35q9 6 13.5 15t7.5 19t7.5 17.5t4.5 19.5h-6l6 15l-3 15l6 8l-3 6l6 6l-6 3l3 6l-3 9l3 3l-3 9l3 3l-3 9l3 11l-3 3
l6 18l-6 42h6v8l-3 18l3 6l-9 24l6 17q-6 3 -7.5 9l-3 12t-1.5 12v12h-6l-3 12l-9 3l-3 9l-9 2l-3 -2l-9 5q-3 -3 -8.5 -3t-10 -2.5t-9 -7l-7.5 -7.5q-6 -9 -10.5 -18t-7.5 -19.5t-6 -20.5t-6 -19l3 -3l-6 -86l6 -56l-3 -3q3 -18 4.5 -37t6 -37t10.5 -34t21 -31l32 -6z" />
    <glyph glyph-name="seven" unicode="7" horiz-adv-x="377" 
d="M181 0l-9 8l-3 -3l-21 24l-6 48l3 3l-3 12l3 3l-3 6l3 3l-3 6l3 6l-3 3l6 24h-6v6q9 15 9 34.5t4.5 37.5t9 34.5t13.5 31.5l-3 18l12 36h6q0 9 1.5 18t4.5 16t4.5 14.5t7.5 13.5l-3 3l18 57l6 3l-3 3q6 15 12 28.5t9 28.5t7.5 30t13.5 27l-3 3l18 51l-6 3l-66 -3l-6 3
l-3 -3l-9 3l-6 -3l-3 3l-21 -3l-6 3q-9 -3 -18 -3h-18t-18 -1.5t-15 -10.5l-21 -51h-6l-9 -66h-15v18l12 63l-3 12l18 114l-3 6l9 33l42 3l3 -3l24 3l3 -3l9 3l12 -6l9 6l3 -3l36 3l3 -3l3 3l12 -3l42 3l3 -3l3 3l9 -3l3 3l3 -3l12 3l3 -3l3 3l3 -3l21 3v-36
q-27 -69 -51 -141t-40.5 -145t-18 -148t-1.5 -150l3 -18l-3 -9l3 -27l-6 -6l3 -12l-3 -3l3 -6l-18 -45q-3 -3 -6 -4.5t-6 -4t-7.5 -2.5h-7.5zM220 424l-3 3l-3 -3l3 -3z" />
    <glyph glyph-name="eight" unicode="8" horiz-adv-x="334" 
d="M159 0l-12 5l-12 -3l-36 15v6l-11 6l-3 9l-12 6l-12 24l-3 -3l-27 68l3 3l-6 5l3 12l-3 3l3 3l-3 42l3 14l-3 6l12 42l-3 3l3 6l9 5l-3 3l6 9l-3 3q3 9 9 18t10.5 18t12 16t13.5 16l2 -3l3 9h6v9l-3 15l-14 9q-12 15 -19.5 32.5t-13.5 35t-9 37t-3 40.5l6 17l-3 6l3 3
l-3 18l6 15l-3 12l6 6l-3 2l21 57l9 3q0 8 1.5 14t6 12t10 12t8.5 12l51 24l11 -3l18 3q6 -3 13.5 -6t13.5 -6t12 -9t11 -12q12 -15 21 -32.5t15 -37t6 -40t3 -41.5q-3 -21 -6 -43t-12 -42.5t-20.5 -38.5t-26.5 -35l26 -42l9 -6q15 -23 24 -48.5t15 -52t6 -54.5v-58
q-6 -15 -9 -31t-9 -31t-15 -29.5t-21 -26.5q-9 -6 -19 -13.5t-20.5 -12t-22.5 -4.5t-23 -5zM200 41q9 6 15 15t10.5 17.5t8.5 17.5t4 18l3 -3l3 15l-3 3l6 26l-9 42l3 3l-11 14l3 9h-6l-9 27h-6l-33 53l-17 12l2 6l-26 21l-3 11l-12 3q-15 -17 -26.5 -38t-17.5 -43t-7.5 -47
t-1.5 -49q3 -18 6 -37t7.5 -35.5t14.5 -32.5t25 -28q6 -3 12 -7.5t13.5 -4.5h14.5h16zM46 100l-3 3l-3 -3l3 -3zM200 437l15 9l20 41l-2 3l14 33l-3 3l3 3l-6 3l9 47l-3 3l6 21l-9 20l3 6l-17 54l3 3l-6 3v5l-12 12l-9 12l-3 -3l-27 15l-6 -3l-3 3l-8 -3l-3 3
q-9 -6 -18 -10.5t-15 -13.5t-12 -17.5t-12 -17.5l-5 -77q5 -21 11 -38.5t18 -34t26.5 -32.5t23.5 -34l9 -3l15 -18z" />
    <glyph glyph-name="nine" unicode="9" horiz-adv-x="318" 
d="M171 756l48 -27l3 -9l12 -6l11 -21l-3 -8h9l9 -18l-3 -3l6 -6l-3 -3q6 -6 7.5 -13.5t3 -14.5t4.5 -14.5t6 -13.5l-3 -3l9 -24l-3 -12l6 -11l-3 -3l3 -12l-3 -12h6l3 -9l-3 -15l6 -23l-6 -6l6 -18l-3 -15l6 -26l-3 -3l3 -80l-6 -24l3 -3l-3 -12l3 -3l-6 -35l-6 -3l3 -21
l-21 -65l3 -3l-9 -21h-6q0 -8 -1.5 -17t-6 -15t-7.5 -15t-8 -15l-6 -3l3 -3l-45 -50l-12 -3l-3 -6q-5 -3 -12.5 -4.5l-15 -3t-15 -1.5h-16.5l-12 6l-3 -3q-8 3 -17 9t-16.5 15t-12 18t-10.5 18q-3 8 -6 17t-3 19.5v21v21.5l6 3l-3 9l21 33l30 6l6 -3v-6q3 0 5.5 -1.5
t2.5 -4.5t1.5 -4.5l4.5 -4.5l3 -15l-3 -6l3 -38l-3 -3l3 -3q-6 -3 -6 -10.5t-4 -13.5t-4 -13v-13l17 -21l15 -3l3 3l15 -3l3 3l-3 3l18 12q20 26 30.5 58.5t16.5 65.5t7.5 68t7.5 68l-3 38l3 3l-6 6l-15 -26h-6l-12 -18l-26 -12l-3 3l-18 -3q-9 3 -16.5 6t-15 7.5t-14.5 12
t-13 13.5q-15 17 -25.5 38t-16.5 43t-10 45.5t-4 47.5l3 9l-3 47l5 12l-2 12l20 74h6v6l-3 3q6 9 10.5 16t10.5 16t13.5 15t12.5 15l3 -3l3 6l18 9l3 -3l3 6l15 3l3 -3l21 3l2 -3zM139 723q-9 -6 -13.5 -15t-7.5 -19t-7.5 -17.5t-4.5 -19.5h6l-6 -15l3 -15l-6 -8l3 -6l-6 -6
l6 -3l-3 -6l3 -9l-3 -3l3 -9l-3 -3l3 -9l-3 -11l3 -3l-6 -18l6 -42h-6v-8l3 -18l-3 -6l9 -24l-6 -17q6 -3 7.5 -9l3 -12t1.5 -12v-12h6l3 -12l9 -3l3 -9l9 -2l3 2l9 -5q3 3 8.5 3t10 2.5t9 7l7.5 7.5q6 9 10.5 18t7.5 19.5t6 20.5t6 19l-3 3l6 86l-6 56l3 3q-3 18 -4.5 37
t-6 37t-10.5 34t-21 31l-32 6z" />
    <glyph glyph-name="colon" unicode=":" horiz-adv-x="282" 
d="M122 30l-34 14h6v7l-10 7l-3 -3l3 -4l-3 10h-7l-7 18l7 3l-7 7l-3 -4v4l3 7h7l3 10l-3 10h-10v14l10 4l10 34h4l6 -3l21 10q4 3 5.5 6.5t8.5 3.5h10.5h9.5l14 -14l11 11l20 -11l4 -10h6l4 -24l3 7l4 -7l-4 -10h7l-14 -4v-41l4 -3l7 20l3 -10l-7 -4l4 -3l-7 -10l3 -4
l-3 -7h-10v-6l3 -4l-14 -3v-7h-3l-4 3q-3 -3 -4.5 -6.5t-7 -5.5t-9 -2h-10.5l-20 4zM105 41v3l-4 4l-3 -7l3 -4zM119 41l-4 3l-3 -3l3 -4zM108 75l4 4l-18 13l-6 -17l17 -3zM136 96l3 7l4 -4l3 11l-14 10l-3 7l-4 -11l7 -10h-10v-7l10 -7zM211 127l-3 3l-4 -3l4 -4zM122 550
v7h3v-7h-3zM139 550v3l-14 28l-6 -11l3 -3l-3 3l-18 -3v-10l-7 10l-3 -4q0 4 -5 4t-5 3.5v7v6.5h-7l3 4l-7 3l4 3l-7 4h7v7l-10 7v3l3 4l-3 3l3 24l-3 3l10 7l7 18l-4 3l7 10l4 -7q3 4 4.5 7.5t3.5 7t7 5t9 1.5l7 -3l3 3l3 -3q4 3 9 4.5t10 1.5h10.5h12.5l7 -10l3 7l3 -7
l4 4l27 -35l-7 -3l4 -14l10 -3v-18q-3 -6 -5 -13t-2 -15.5t-5 -14t-5 -12.5l-17 -10l-7 7l-3 -4l-14 7l-4 -13l4 -4h-4l-3 4l-4 -7h-10zM163 591l-7 7l-7 -7l11 -3zM167 594l-4 4l-3 -4h7zM84 605v3l-3 4l-4 -7l4 -4z" />
    <glyph glyph-name="semicolon" unicode=";" horiz-adv-x="303" 
d="M119 -35l-7 10l3 10l-3 6l22 8q-2 5 2 9t9 8.5t8 8t7 9.5l11 13h6v15l-2 10l-15 6v6h-6l6 3l-10 6l-4 6l-2 -6l-8 -4l-7 7v7l-20 3l-4 -3l-2 19l-25 7l-4 5l4 23l-4 3l-6 -6l3 -10h-3l-4 29l10 6l-3 10l3 3l-3 22l7 6l3 -3l13 3l9 22l47 13l35 -9l-4 -10h10l6 6l19 -22
l-4 -15l4 -4l10 6l13 -41l-3 -3l3 -41l-35 -75l-3 2l-6 -8l2 -7q-6 -10 -17 -19t-20.5 -17.5t-20 -17t-20.5 -15.5zM216 93v10l3 22h-10l-3 -32h10zM132 109v13l-3 3l-10 -9zM105 130l4 10h-10v4l6 13l-2 3l-4 -6l-12 -16l4 -4l3 4l9 -9zM209 130l3 4l10 -4v18h-10v-8h-8
v-10l2 -1zM103 173l-4 2l-2 -2l2 -3zM140 198l4 3l-4 10h-8v-15h4zM84 214l-3 3l-3 -3l3 -3zM136 544v5h-7l-10 -2l-16 6v6h-9v8l3 15l-3 10h-8t-8.5 1t-5 3t-1.5 8l3 14l-6 28l16 28l19 6v8.5t3 4.5t6 2t7 6l3 -10l3 6l9 -4v8h2l4 -4l20 7l25 -17l2 4q8 -4 12.5 -7.5
t7 -8.5t6 -9t6.5 -10v-27h7v-14l-4 -11h-3l-7 14l-8 -14l12 -19l-7 -12l-3 3q-2 -3 -3.5 -8t-6.5 -8t-12 -3t-9 -4l-12 6v-6l6 -6h-3l-3 2l-7 -2l-10 2zM185 585l2 9h-12l-4 -2l4 -4l-4 -3l10 -3zM222 618l-3 3l-3 -3l3 -3zM91 667l-7 3l-3 -3l6 -3z" />
    <glyph glyph-name="less" unicode="&#x3c;" 
 />
    <glyph glyph-name="equal" unicode="=" 
 />
    <glyph glyph-name="greater" unicode="&#x3e;" 
 />
    <glyph glyph-name="question" unicode="?" horiz-adv-x="415" 
d="M195 -20q-6 2 -13 3.5t-13 4.5t-10.5 7.5t-9.5 10.5l3 9h-9l-6 20l6 6l-3 3l6 3l-3 3l3 2l-6 3h6v9l-9 3v15l20 29l3 -3l-3 -3l9 -3l12 21l11 2l3 -2l15 2v-8h6l20 8l15 -5v-6l17 -9q3 -6 6 -10.5t6 -10t3 -11.5v-12l-3 -11l3 -21l-6 -14l-9 -3l3 -6q-6 -9 -16 -12
t-17.5 -7.5t-17.5 -5.5t-22 -1zM195 161v2l-3 3l-3 -3l-2 6l5 12l-5 9l2 3l-2 23l5 3l-5 3v3l2 11h-5v15l3 3l-3 12l3 29l-3 23l3 21l-3 14l3 18h5l15 49l3 -3l6 15l-3 6l6 14h6l26 76l3 -3l8 21l-2 9l2 3l-2 3l5 11l-3 3l3 3l-3 3h6l3 38l-14 9l3 6l-3 2l5 15h-5l-6 9l3 9
l-9 5l-6 21l-12 3v9q-8 0 -14 4t-13.5 7t-14.5 4.5t-16 1.5l-15 -15h-5l-15 -20l-6 6l-6 -9l6 -15h-6l-6 -70l27 -14l3 6l6 -3v-6h8v-18h9l3 3l6 -17l-3 -12h6v-15l-18 -40l-29 -12l-3 6l-3 -9h-14l-3 3l-3 -3l-18 6l3 3l-9 3l-5 -6l-15 23l-9 3l6 3l-9 6l3 6q-3 3 -4.5 5.5
t-1.5 8.5t-1.5 9t-3.5 6l2 3l-2 12l11 11q-3 3 -6 3t-3 4.5t-1 7.5t-1 6l2 3l-2 14l11 3l3 29l-12 3q3 9 6 16.5t6 14.5t4.5 14.5t10.5 10.5l-3 3l29 35l12 3l-3 2l23 6v6l-3 3l29 12l6 -3l3 3l6 -3l3 -6l3 15h3l3 -6l3 6h55l9 -3v-6l17 -3l3 3l56 -38q3 -6 7 -10.5t7 -8.5
t3 -11.5t9 -7.5l-9 -12l15 -3l-6 -3l6 -3l6 -26l-3 -6l9 -20l-3 -3l3 -41l-6 -9l6 -11q-3 -15 -6 -28t-7.5 -26t-10.5 -26.5t-12 -24.5l-17 -6l-6 -15l3 -3l-26 -20q3 -9 -3 -13.5t-10.5 -8.5t-9 -8.5t-9.5 -10.5l-3 3l-6 -18l-6 -3l3 -5l-9 -15l3 -6l-6 -38l-8 -3l2 -9h6
v-37l-3 -15l3 -50l-3 -8h-8v5l-15 3l-3 -8h-9zM227 298v14l-11 6v-14zM216 324l-6 9l-3 -12h6zM254 371l-3 3l-3 -6l3 -3zM210 374l3 6l-6 5l-6 -14h6zM262 382v9h-8v-9h8zM140 485v3l9 14l-15 32l-3 -17l6 -35zM154 493v3l3 15h-8v-18l3 -3zM84 496l-5 3l-3 -3l5 -3z
M251 514l-3 3l-3 -3l3 -3zM254 520l-3 3l-3 -3l3 -3zM283 566l3 9h-12l-3 -3l3 -3l-3 -3l9 -3zM315 569v18l-9 6l-6 -9l12 -18zM338 709l-3 3l-2 -3l2 -2zM225 712v3l-3 3l-3 -6l3 -3z" />
    <glyph glyph-name="at" unicode="@" 
 />
    <glyph glyph-name="A" unicode="A" horiz-adv-x="801" 
d="M769 157l-3 -7h-10l-9 3v-12l-7 12l-3 -9l-10 -3l-3 6l3 3l-10 20h-6l6 3l-16 10l3 3q-3 3 -6 8t-9.5 5t-10 1.5t-9.5 1.5l-4 -3l-26 16l-9 -3v-7l-4 7l-9 -3v6l-46 7l-3 9l-20 4l-3 -4v7h-10l-3 -3l-13 3v10h-16v-7h-7v7l-19 3l-3 -3l-26 9l-10 -3l-3 16h-13v-9l3 -7
l-16 10l-10 -3l-11 6l-3 -3l-19 10l-4 -4v7h-29l-3 6l-7 -3l-3 3l-3 -3l-29 10l-4 6l-19 -3q-7 3 -15 6.5t-16 5t-16 1.5t-15 7l-6 -4l-17 7l7 3l-16 10l-4 -3l-12 6l-13 -6l-71 19l-3 -3l-17 6l-3 7l-3 -3l-16 3l-4 -3l-9 6l3 3l-3 34l3 3l-3 3l42 13l3 -3l3 7l23 3l7 -16
l9 22l84 20v-7h6l10 13l42 10l7 -3l42 16v-6h10l3 3l-3 3l6 -6l4 9l124 30l6 -4l4 4l-4 3l36 6l3 -3q10 10 24.5 13t29.5 6.5t29.5 8t27.5 8.5l13 -7l6 10l52 13l-3 -7l3 -3l20 10v6h3l3 -3l4 7l3 -4l3 4l-3 -4l10 -3l9 13l-6 3l-3 -3l16 29l36 4l3 -7l3 7l3 -7l-3 -10l-3 4
l-3 -20h6l-3 -3q6 -3 6 -8v-10v-10v-8l-3 -3l3 -3l-3 -4l3 -9l-3 -26l3 -10h-6l-3 -23l6 -16l3 3v-6l-9 -7l3 -6l-3 -3l6 -10l-3 3l-7 -16h7l-3 -7h-10l-16 4l-7 -4l-3 4l3 13l-3 3l3 3l-3 3l3 10l-10 7l-22 -7v10h-7l-29 -7l-3 -9h-17v-7l-3 3l-19 -6l-10 3l-7 -3l-3 3
l-13 -3l-10 3l-3 -13h-10l-3 3l-3 -6v3l6 13l-9 20q-7 -4 -7 -8.5v-9.5v-10v-11l3 -4q-3 -3 -6 -8t-3 -10v-10v-12l3 -48l-3 -7l3 -3l-3 -3l6 -13q10 0 18 -6.5t19.5 -6.5t21 -2t19.5 -5l7 -13l3 10h10l26 -7l-4 -3l13 -3l20 6l3 -9l7 13h13v6l-4 3l4 4l-4 6l7 20l32 6
l10 -10l3 4l-3 -10l3 -13l-3 -3l3 -46l-3 -3l3 -7l-3 -6l3 -7h-6v-9l6 -20l-3 -6zM721 176l-4 -3l4 -3l3 3zM626 518l-6 -13l3 -13h10v17zM623 447l-3 3l-3 -13l6 -6l3 13zM626 476h-9l-10 -26h10zM597 270l-13 4v-7l10 -13l6 13zM565 483h-10l-7 -10l4 -10h9zM500 293
l-7 -23h10l3 13zM490 392h-3l-4 3l-55 -21l-6 4q-13 -4 -26.5 -7t-26.5 -6.5t-26 -10t-26 -6.5l3 -9l39 -7l7 -13l3 10h3l98 -29l10 3l7 -3l9 26l-3 6l3 3l-6 50l3 3zM483 457l-3 3q-3 -3 -4.5 -6.5t-1.5 -6.5v-8v-8h9l4 22zM415 483l-3 -13l3 -4l3 13zM375 460h-6l-10 -13
l3 -3l13 3v13zM366 405l-7 -10l3 -3l7 9zM330 463q-3 -3 -5 -6.5t-2 -6.5v-8v-8l4 -3l-7 -7l7 -10l6 46zM320 453l-3 -6l3 -3l3 6zM314 368l-7 -23h7l6 7zM307 296l-3 -6l3 -3l3 6zM297 326l-3 3l-3 -7l6 -9l4 9zM291 303h-10l-3 -3l13 -4l3 4zM258 405l-3 -13l7 -13l3 13z
M203 385l-10 3v-14l4 -9h9v17zM174 395l-3 -16l3 -5l3 18zM171 411l-7 7l-6 -10l9 -7l4 -6l3 13zM167 371h-9v-13h9v13zM38 408l-3 3l-6 -16h6l7 10z" />
    <glyph glyph-name="B" unicode="B" horiz-adv-x="501" 
d="M27 0v3l-3 3l3 4l-3 3l3 -3l3 13l-6 20l13 7l7 -4v-26h13v16l-10 17l17 7l3 -7l7 10l-4 3l4 7h6l4 13l-4 10l4 4l-10 16l10 17l-4 3l4 14l-7 10l7 20q-4 6 -7 9.5t-3 10v13.5v13v-16h10v40h-10v16l10 24l-4 3l-6 -3v6l3 7l-3 20l3 10l-3 33l3 7l-3 23l10 40l-4 24l4 10
l-4 3l4 7l-7 20l7 13l-7 37q3 3 6.5 9.5t7 11.5t3.5 12v13h-10l-4 -23l4 -3l-10 16l6 34h-6l3 3l-3 27l3 16q-3 7 -5 13.5t-7 11.5l-10 10t-11 12l-7 3l-10 20l-3 -10v27h3l3 -13l14 16h23l20 -6l20 6l3 -3l64 3l6 -3l4 3l6 -3l10 3l27 -3l3 3l7 -3l10 3v-6h10v6h30l10 -13
l10 -3l17 3v7l30 -14l3 4v-10l17 -7l6 3q7 -6 15.5 -14.5t15 -17t11.5 -16.5t2 -22h6l7 -30l-3 -3l6 -3v-10l-10 -4l7 -3l-3 -3l10 -24l-4 -3l4 -23l-10 -10l6 -30l-6 -10l-4 13l-6 -10l3 -7l-17 -30l10 -6l-3 -7l-13 -3l-4 -17l-3 3l-23 -13l6 -3v-4l-3 -6l-27 -17l7 -13
l7 6l20 -10h-7v-10h13l-3 -3l10 -3l3 3l10 -27l14 -3v10l3 -13h7l6 -17l-3 -10l3 -3l4 3l10 -30l-4 -10q4 -3 5.5 -6.5t1.5 -8.5v-10v-8l-3 -17l3 -47l-7 -16l4 -7l-17 -37l3 -10l-3 -6h-7v16h-10v-16l4 -10l-10 -27l-20 -17l-4 4l-10 -4v-10h-3l-3 4l-17 -10l-3 3l-4 -7h-3
l-13 4l-27 -17v17h-10l-3 -14h-24v-6l-16 3l-47 -3l-13 3l-14 -3l-13 3l-17 -3l-6 3l-20 -3l-14 10l-20 -10l-6 10q-4 -4 -9 -7t-11.5 -3h-11.5h-12l4 3l-10 3v-6h-7zM77 16v10l3 14h-13v-24h10zM240 26v10l4 4l-10 10l-7 -10l3 -14h10zM250 46l17 10l7 10h3l10 -6l3 3l-3 7
l3 3l-3 3l20 24h7l3 23l-3 13l10 4v10l-4 13l10 40l-3 10l3 3l-10 47l7 7l-10 36q-3 0 -6.5 2t-5 5t-3.5 6.5t-2 6.5l-10 14l4 13h-7v7h-10l-7 -4l-16 10l-7 14l-7 -10l-10 -4l-26 4l-7 -10l7 -47l-4 -23l4 -30l-7 -20l7 -10l-4 -10l4 -90l-4 -17q4 -7 5.5 -13.5t3 -15
t5 -13.5t10.5 -11l23 -17zM294 50v3l-4 3l-3 -6l3 -4zM120 70l4 3l-14 3l-3 -3l10 -7zM154 73v13h-7l-3 7l-4 -20h14zM404 96v7l-10 10l-7 -10zM164 126l6 30l-6 7l-10 -23l6 -17zM440 123v7l4 6l-7 7l-7 -20h10zM397 126v30l-7 14l-6 -24l3 -20h10zM334 136l-4 4l-3 -4
l3 -3zM337 143l-7 3l-3 -3l7 -3zM147 156l3 14l-10 6l-6 -16l10 -7zM327 163l-3 3l-4 -3l4 -3zM190 196l7 27h-10l-3 -27l3 -3zM334 223v7l-4 3l-3 -10l3 -3zM397 246v17h-7l-6 -10zM117 260v23l-7 10l-6 -23l10 -14zM327 286l7 24l-17 6v-23l7 -10zM440 293v7l-3 3l-3 -10
l3 -3zM127 326v10l-7 7l-3 -17h10zM84 370v6l-4 4l-3 -10l3 -4zM97 410v13h-10v-13h10zM177 413v7l-3 3l-4 -10l4 -3zM247 416l-3 7l3 -3l10 6l7 -3l3 3l-3 4l20 10l-4 3l4 7h6q0 6 2 9.5t5 8.5t6.5 8.5l6.5 6.5l-3 7l7 3l-10 3l13 44h7v13l-10 37l3 13l-3 17h-7v16l7 14
l-20 10v3l3 -3l3 13l-16 3l-4 14l-10 6l-3 -3l-3 7l-4 -4l-6 10l-14 -6l-3 3l-7 -3l-13 10l-3 -27h-7v-10l-7 3l-3 -3l10 -17l-7 -40l4 -6l-4 -14l-6 -3l10 -7v-36l-7 -20q7 -4 7 -10.5v-11.5v-11.5v-13.5l-4 -7l7 -53l23 -7l7 4h-3l-4 -4l14 -3zM110 430v3l-6 20h-7
l-10 -13l20 -14zM360 480v10l-6 6l-4 -13l7 -7zM104 493v13h-7l-10 -13l3 -3zM350 500v3l10 20h-10l-6 -23l3 -4zM160 513v7l-3 3l-3 -10l3 -3zM434 586l3 4l-13 6v-6l6 -7zM84 656v4l-4 3l-3 -7l3 -3zM44 720l-4 3l-3 -3l3 -4z" />
    <glyph glyph-name="C" unicode="C" horiz-adv-x="465" 
d="M239 0l-13 3l-9 13l-4 -10h-6l-19 10v19h-10v-7h-6l-7 4v6l-16 7v7.5v8t-3 6.5l-7 7l-3 -13h-3q-3 3 -8 6t-6.5 8t-1.5 10v11l-16 3l-16 52l-10 3l-19 61l9 16h-6l3 4l-13 9l-3 16l3 4l-3 3l6 3q-6 6 -7.5 14.5t-1.5 16.5v17.5t-3 15.5l6 13h-6h6l3 20l-6 6l3 10h-6v3h6
v6l-3 4l9 12l-6 4l3 13l-6 9l9 3l7 23h-7l-3 26h7l3 22l-7 10l7 23h13v19h-7v10l13 28h7v10l-4 3l7 13h6v16v-6h7l3 3l-3 3l3 7l-3 3l3 6h6l16 -3l4 29l-4 3h10v7l-3 3l10 10v-7h6l10 10l3 -3l3 9h-6l13 4v9h3l3 -3l6 7l-3 3q13 6 26 12.5t27.5 8t29 1.5h30.5v-6l16 -7
l13 -9l10 6l16 -16v-6h6l3 3l13 -10l16 7v6l-3 3l3 7l4 -3l3 6h6l3 -3l20 6v7h3l3 -26l-6 -10q9 -26 9 -53t2 -54.5t3.5 -55t1.5 -56.5l-3 -6l-7 -3l3 -7l-3 3l-26 -9l-3 3l3 3l-9 7h6v12h-6l3 7l-13 19l3 -3l10 6l-6 17h-7l-10 29l4 16l-7 9l-3 -3l-6 13l9 13l-9 16h-13
l-33 58l-6 3l-3 7l-3 -7l-17 3v7h-6l-6 -3l-10 3l-7 -3l-3 3l-3 -7l-6 -3l-4 19l-9 4v-20l3 -9l-16 -7l-13 -32h-6l-10 -29l3 -3l-6 -26h-7v-6l3 -16l-6 -39h-6v-7l3 -32l-10 -22l7 -23l-7 -32l3 -16l-9 6l-4 -22l7 -13l6 19v-22l-3 -7l3 -3l-3 -3l3 -10l-3 -3l3 -32v3l-3 3
l-3 -13h10v-13l-4 -29h7v-6l-3 3l-4 -10l10 -32l3 3l20 -70l-4 -16l10 -4v-6h6q4 -7 8.5 -13t11 -12.5t14.5 -11.5t15 -8l22 -3l32 16l4 -4l16 10l16 32l13 7l-7 3l7 3l-3 7l9 3l3 13l17 13l-4 13h-6l19 35l-3 3l3 3l-3 4h10v12l-4 7l4 3l3 -3l26 6l3 -16l6 3v-19l-16 -48
l3 -3l-9 -10l6 -3l-3 -10l-3 7l-7 -10l4 -3l-4 -4l4 -6l-7 -13h-6v-6h-7q0 -10 -1.5 -18t-6.5 -16t-11.5 -14.5t-9.5 -13.5l-16 -16l-16 -3l6 -3l-9 -7l-3 10l-4 -16l-19 -6v6h-8t-8 3t-6.5 5t-6.5 5l-3 -7l9 -16l-6 -3l6 -3l-3 -3v6l-13 3l-6 -6l6 -3zM268 16v16l-13 6v-6
l3 -16h10zM194 22l-3 3l-3 -3l3 -3zM326 45l3 3l-9 6l-7 -6l10 -7zM368 70v20l-3 13h-10v-20l3 -13h10zM168 109v3l13 7l-3 3l3 13l-6 6l-10 -9l3 -7l-6 -3v6h-10v-6l13 -16zM358 112v3l4 10h-10v-13l3 -3zM407 125l-4 3l-3 -6l3 -3zM162 138v13h-10v-13h10zM117 151v22l3 7
l-10 16l-6 -29l3 -16h10zM101 215q3 3 4.5 6.5t1.5 8.5v9.5v7.5l-42 4v-7h-3l-3 7l-3 -10l6 -13l13 -3v-7h10v10h3l3 -16h6zM397 215l-3 3l-3 -3l3 -3zM120 299v13l-13 6v-9l3 -10h10zM78 338l10 19h-10v-10l-10 20l-3 -16l3 -17h7zM123 373v19l3 10h-9l-3 -22l6 -10z
M136 418v13h-10v-13h10zM165 489v32l3 20l-3 3l-16 -36l13 -22zM149 499v19h-10v-13l7 -10zM81 524v7l-3 13h-10v-20l10 -3zM387 550l-3 3l-3 -3l3 -3zM384 557v3l-3 3l-3 -10l3 -3zM420 605v10l3 9l-16 7v-7l3 -19h10zM297 702l-3 3l-3 -3l3 -4zM265 708l-3 3l-4 -6l4 -3z
M258 731v19l-19 6l-3 -3l10 -3l9 -23z" />
    <glyph glyph-name="D" unicode="D" horiz-adv-x="490" 
d="M3 0l-3 16l6 10l-3 4l3 13l-3 3l-3 -3v3l40 14l10 46l-4 20h7v14h-7v36l7 10l-7 7l4 -3l3 20q-3 3 -5 9.5t-2 13.5v13.5v13.5l4 6l-4 67l4 10l-4 47l14 3l-14 3v10l4 34l-4 50l10 10l-10 6v67l4 3q-4 14 -4 29v30v31.5t-10 26.5l4 3l-34 17q-3 3 -4.5 8t-1.5 10v10v12
l76 3l14 -3l150 3q20 -3 38 -6.5t35 -10t33.5 -18t29.5 -25.5q7 -10 17 -20t16.5 -21.5t11.5 -23t12 -21.5l-3 -4q6 -6 9.5 -13t5 -15t5 -16.5t3.5 -15.5l-3 -6q3 -10 8 -22t6.5 -25t1.5 -25t4 -25l-4 -20l4 -103q-4 -20 -7 -42t-6.5 -42t-8.5 -38t-12 -38l-3 3l-10 -23
l3 -7l-3 -7h-10l-7 -30l-10 -6l4 -4q-7 -10 -15.5 -18t-18.5 -16.5t-20 -15t-20 -13.5l-56 -17l-7 4q-7 -4 -12 -5.5t-11.5 -1.5h-13h-13.5l-3 10l-7 -13h-97v6h-10v-6h-46h13l7 13l-20 10l-14 -23h7h-40zM196 3l-16 10l-10 -7l23 -6zM200 6l-4 4l-3 -4h7zM220 10v13l3 27
h-17v-17l4 -23h10zM340 40l6 30h-10l-3 -30l3 -4zM123 66l-3 4l-4 -4l4 -3zM256 66l17 14l3 -7l7 13l7 4l-4 10q10 10 15 23t8.5 26.5l7 27t6.5 26.5h7l3 13l-7 4v26l7 20l-3 20l3 84h7v16l-7 37l3 3q-6 7 -6 18.5v21.5t-2 20t-2 20l7 14l-10 20l-3 -4l-10 74h-7
q-3 10 -6.5 20t-8.5 20t-11.5 18t-13.5 18l-50 24l-23 -14l-10 -20h-7v-13l3 -17l-3 -3l3 -67h-6v-13q6 -7 6 -17v-18v-18v-20h-6v-17q6 -27 6 -58.5v-61.5v-61.5v-61.5l-6 -17q10 -17 8 -37t-2 -38v-38t7 -37q3 -3 8 -5t12 -3.5t12 -1.5h11zM116 66v10l4 24h-10l-4 -34h10z
M96 70v16l-10 14l-3 -30h13zM336 76v7l-3 3l-7 -6l7 -7zM133 100l3 3l-16 7l-7 -7l17 -7zM333 100v3l-3 3l-4 -6l4 -4zM160 120l-4 3l-3 -3l3 -4zM163 136l-3 4l-4 -4l4 -3zM160 143v3l-4 4l-3 -10l3 -4zM100 153l23 30l-3 3l-30 -16l-4 -14l10 -6zM436 180l7 26l-7 14
l-13 -24l3 -20h7zM120 190l-4 3l-3 -3l3 -4zM123 193v7l-3 3l-4 -10h7zM146 196v7l4 20l-10 3l-7 -13l3 -17h10zM140 250v13l-4 33h-13v-6l3 -14l-6 -20l3 -3l7 3v-6h10zM103 276v17l-7 7l-3 -7h-3l-4 7l-3 -10l7 -7l-4 -10h7l3 3l4 -3zM443 296l3 4l-3 10l-13 3l-7 -10
l17 -10zM86 303v7h-13l-3 -24h13zM156 310v3l4 10l-10 20l-7 -23l10 -14zM93 313l-3 3l-4 -3l4 -3zM120 323v13l-4 4l-6 -17h10zM366 336l7 24l-17 6v-23l7 -10zM406 350v13h-10v-10l7 -7zM423 366v37l-7 7l-3 -4v14h-7l-6 -27l10 -7l3 -16zM166 376v10l-6 7l-4 -17h10z
M60 400l6 16l-16 7v-17l6 -10zM136 416v14l14 3v7l-27 13v-10l7 -13l-4 -10l7 -7zM450 436v7l3 20l-3 3q-4 -3 -7 -6.5t-3 -6.5v-8v-9h10zM136 460v13h-10v-13h10zM150 483v17h-17l-7 -14zM450 493v17h-10v-17h10zM356 506v14h-10v-14h10zM400 530v10l-7 6l-3 -13l6 -7z
M443 550v16l-3 4l-4 -20l4 -4zM390 556l6 14l-10 3l-3 -17l3 -3z" />
    <glyph glyph-name="E" unicode="E" horiz-adv-x="436" 
d="M69 3q-13 20 -21.5 43t-15 46t-15 44.5t-14.5 44.5h6v7l-9 10l9 6l4 -6l6 6l4 -3l3 7l3 -4l10 7l-3 -3l13 -7l-3 -7h-7v-9h7l3 3l7 -17l-4 -10l14 -6v-7h6l4 4v-10l9 -7l14 -30h6l-6 -3l13 -10l3 3l20 -26l17 -7l3 -6l10 3v-10h13l16 7l7 -4l17 7l-7 -13h10l7 10l-4 3h4
l3 -3l10 3l3 20l-3 20l6 43l-3 6l3 4l-3 85l3 10l10 4l-6 3v3l3 4q-3 3 -6.5 8t-3.5 11.5v11.5v12l3 3l-3 36l3 3l-6 17l-27 10l-29 -17l-30 -62l-7 -17l10 -13l3 13v-23l-3 -10l-13 -3l-13 6l-4 86l4 7l-4 82h7v7l-3 3l3 14h-7l4 6l-4 56l4 10l-4 4l10 10l10 3v-7h7l6 -39
l-3 -7l3 -3l7 3l23 -43l-3 -7l10 -10l10 4l26 -7q10 3 10 13t1.5 18.5t3.5 16.5t5 18l10 10l-7 7l-13 -10v40l3 13l-3 3l3 3l-3 23h10v7l-3 13h-7v10l7 4l-4 3l10 13l-6 3v10h-7v7l10 6l-3 4l3 3l-10 7l-3 6l3 17l-26 16l-10 -3l-7 3l-3 -3l-27 10l-6 -13l-13 10v-7l3 -3
l-3 3l-27 -26l-7 3l-3 -3l3 -4l-3 -10l-3 4l-13 -14l-47 -66v7l-10 3q-3 -3 -6 -4.5t-3 -5v-8.5v-8l3 -3l13 13v-4l-7 -13h-6l-7 7l-3 -7h-3l-17 10v20l7 23l10 3l13 67l16 13l-3 3l-10 -7l20 43l17 7v7l-4 3l4 -3l13 3l29 -7l4 4l-4 3h67l3 -3l96 3l3 -3l23 3l13 -3l27 3
l23 -7l16 7v-7h7l3 4l4 -4l3 4l3 -4l4 7l9 -20l-3 -3l3 -4l-3 -6l7 -10l-17 -7l-3 4l-3 -7h-7l3 3l-6 7l-4 -10h-6l-10 -30h-10v-16h7l-4 -4l7 -13l-7 -3l7 -3h-7v-7l4 -3l-4 -4l7 -3l-3 -3l3 -7h-7l-3 -30l3 -3l7 10v-49h-7v-20l4 -4l3 7v-3l-7 -27h7v-3l-3 -3l3 -4l-3 -10
l3 -6l-10 -13l-7 -14l14 -10v-3l-7 -3q3 -3 6.5 -8t3.5 -12v-11.5v-11.5l-3 -7l-4 7l-3 -13l10 -23l-7 -40l4 -7l-7 -16l10 -20l-3 -20l3 -20l-7 -6l7 -4l-3 -3l3 -3l-3 3l-4 -3v16h-10l-3 -3l7 -26l10 -4l3 -49h-7v-14l4 -6l-4 -7l10 -20l-3 -3l3 -3l-6.5 -6.5t-3.5 -8.5
v-10v-8l4 -4l13 30q3 -6 9.5 -9.5t11.5 -7t13.5 -3.5t11.5 -6l7 -37l-7 -6l-26 10l-10 -10l-4 3l-9 -3l-7 3l-3 -3l-4 3l4 3l-14 4l-3 -10v6h-10l-3 -3l-7 7l-16 -7v7l-13 6l-4 -10l-30 -6l-3 3l-6 -3l-7 3l-26 -3l-10 10l-14 -4v-6l-3 6l-3 -6h-7l-3 3l-27 -3l-9 6l-24 -6
l-10 3l-3 7l-16 -7l3 -3l-3 3l-4 -3l-3 6zM231 9l-3 4l-4 -4l4 -3zM234 13l-3 3l-3 -3h6zM254 16v13h-10v-13h10zM198 26l3 3l-13 7l-7 -13h13zM95 69l-10 13l-6 -10l6 -10zM52 76l7 6l-7 7l-6 -4v4l3 13l-3 3l-13 -26l16 -7zM125 82l-3 3l-4 -3l4 -3zM327 82l-4 3l4 4
l-7 16l-7 -16l4 -10h6zM370 82v3l3 4l-10 3v-10l3 -3zM42 118l-3 4l-3 -4l3 -3zM290 128v4l-3 3l-3 -7l3 -3zM66 165l-4 10l7 -4v-6h-3zM353 221v7l-7 9l-3 -19l10 -7l3 3zM287 264v16h-7l-6 -10l10 -9zM346 270v17l-3 3l-3 -20l3 -3zM284 320v17l-10 23l-4 -30l4 -10h10z
M304 373l6 7l-6 9l-7 -16l3 -3zM356 383v6l-6 7l-4 -10l7 -6zM310 389l-3 4l-3 -4l3 -3zM320 389l3 4l-6 3l-4 -3zM185 399v23l-4 4l-6 -27h10zM350 403v3l-4 3l-3 -6l3 -4zM287 449v10l3 13l-6 7q-4 -4 -5.5 -7t-1.5 -6.5v-8.5v-8h10zM356 502v3l10 17l-16 36l-4 -20l7 -40
zM251 568l-4 3l-3 -3l3 -3zM76 624v3l-7 7l-3 -17h10v7zM376 680l-3 4l-3 -4l3 -3zM56 700v3l-4 4l-3 -7l3 -3zM59 707l7 10l-7 3l-7 -13l4 -4zM204 750l-3 3l-3 -3l3 -4z" />
    <glyph glyph-name="F" unicode="F" horiz-adv-x="428" 
d="M422 0h-23v9l-24 -6l4 -3h3l-17 6h-8h-10h-10t-8 -6l-13 16l-7 -10h-7v-6l-6 6l-7 -6l-26 3l-4 6l-3 -9l-40 3l-13 -3l-3 3l6 13l-3 3l10 14v6l-13 7l39 17q10 10 10 26.5v31.5v31.5t4 29.5l6 3l-10 4l4 3l-4 3v50h7l-7 23v7v8t3.5 5t6.5 4l-3 3l3 7v9h-10l10 4l-10 3
l4 7l-4 3l4 10l-7 17l-23 10l-27 -10q-6 -7 -11 -15.5t-8.5 -16.5t-5 -16.5t-5.5 -18.5l-13 -10l10 -23l3 3v10l-3 -33l-7 -3l-16 3l-7 13l3 80l-3 7v79h7l-4 10l4 4v10h-7l3 3l-3 7l3 56l-3 10l10 10l10 3v-6h7l6 -27l-3 -17l3 -6l4 3h3l23 -43l-3 -3l10 -14l3 4l13 -7
l24 3l10 17v-7h10v9v8t-3.5 6.5l-6.5 6.5v3l6 4l-10 16v20l10 7v7h-6l-4 13l4 3l-4 7l4 70l-7 73l-20 19v7l-17 -3l-9 3l-7 -3l-27 10l-6 -14l-7 10h-7l4 -10l-4 4l-26 -27l-3 4l-7 -4l3 -3l-3 -10l-3 3l-14 -13l-46 -66v6l-10 4l-10 -10l3 -20l7 13h7l-7 -17l-13 7l-4 -7
l-20 10l7 43l10 4q3 6 3 16v18.5t3.5 17t6.5 14.5l17 10l-3 7l-10 -7l19 43l17 7l-3 10l3 -3l3 3l27 -7l17 4l-4 3l70 -3l3 3h50v-10l23 10h10l7 -13l10 3v10h14.5h15h13.5t13 -7h7v7l23 -3l3 -7l4 10h13h15t13 -1.5t8 -8.5l-6 -13l3 -7l-3 -3l6 -4l-3 -3l3 -3l-36 -17l-3 3
l-7 -10l3 -3l-3 -6l-7 -4l4 -3l-4 -7l4 -3v-27h-7l3 -10l-3 -3v-7h7l-7 -23l7 -3l-4 -3l4 -4h-7v-10h-7l-3 -10l13 -13l4 3v4v-33h-7v-17h7l-4 -20h-6l-4 -10l4 -20h10l-7 -3l7 -7l-7 -10l3 -10l-3 -3l3 -3v-9v-8t-1.5 -6.5t-4.5 -6.5l3 -17h7l-4 -10l4 -3l-4 -7l4 -6l-4 -7
l4 -3l-10 -24l10 -16v-13l-10 -4l6 -16l-3 -7l7 -3l-4 -33l4 -4l-14 -6v-17h10l-6 -7v-6h6v-4l-6 -3l10 -3v-7l-14 -13l4 -20h6l-3 -3l7 -7v-10l-7 -3l3 -4l-3 -6l10 -7l-3 3l-10 -13l6 -6l4 3l10 -7l-4 -13l4 -3l10 6v-6l29 -7h-6v-10h6l-3 -7l3 -3l-3 -10l3 -7zM206 19
l3 -6l4 3l-4 7zM223 49l3 -3l3 3l-3 4zM365 96l4 -4l3 4l-3 3zM292 119l4 -3l3 3l-3 7l-4 -4v-3zM379 136h-4v3zM263 139l3 -3l10 6l-7 10l-10 -10zM266 162l3 -3l10 13l-3 10l-10 -13v-7zM302 162h10v10h-10v-10zM273 202l3 -3l3 3l-3 7l-3 -4v-3zM269 212l4 -3l3 3l-3 10
l-4 -3v-7zM312 219l4 -4l10 23l-7 10l-10 -10l3 -13v-6zM329 238h10l-7 20h-6l3 -13v-7zM296 308h13v10h-13v-10zM312 338l4 -3l3 3v37l-10 -4l-7 -13l10 -17v-3zM282 358l4 -3l6 6v17h-10v-20zM180 391h10l-4 27l-6 -20v-7zM329 550l17 7l-7 17l-10 -10v-14zM332 590l4 -3
l6 3l-3 4zM60 617h10l-7 16l-3 -3v-13zM90 657l3 -4l4 4l-4 3zM389 703l3 -3l13 3l-3 3zM44 703l3 -7l3 4l-3 6zM47 710l3 -7l10 13l-3 4l-10 -7v-3zM312 746l4 -3l3 3l-3 4zM329 750l3 -4l4 4l-4 3zM193 750l3 -4l4 4l-4 3z" />
    <glyph glyph-name="G" unicode="G" horiz-adv-x="493" 
d="M204 0v3l-6 6l-16 -6l-10 3l-3 7l3 9l-3 4l-10 -7l-20 7l-10 22l-6 -6l-3 10h-7l-6 23h-7v13h-10v6h-6l-4 26h-13l-6 23l3 13l-10 3l7 7l-13 6l3 4l-6 9l3 7l-10 23l7 16l-10 3l-10 36l7 10l-7 3v13l3 -3l4 16h-7v13.5t-4.5 11.5t-3 13t1.5 15l3 13l3 -4l3 10h-9v10l3 10
l10 3l3 13h-7v7h-6v3l3 3l-3 3l10 23l3 -3l3 6h7v13l-4 10l-9 10l6 23l7 -3l3 3l-3 6l3 10l-3 3l9 13l-3 4l3 3l-3 3l7 17l-4 3l10 3v7l3 -4l4 7l-4 3l10 26h10v7l-3 6q3 4 3 8.5t1.5 9.5t6.5 6.5t8 5.5l-3 3l20 6l-7 10l20 10v8t3 8.5t6.5 6.5t6.5 6l29 13l-6 4l6 3l4 -3
l6 9l3 -3q4 7 12 8.5t13 3t13 1.5h15l3 -3l10 3l6 -3l13 3l23 -13l3 3l43 -22l3 -10h13l10 3l6 33h10l3 -13l4 6l22 7q7 -17 7 -36.5v-37.5t1.5 -35.5t1.5 -37.5l-6 -20l3 -6l-3 -3l6 -4v-9l-6 -14l3 -3l-3 -6l6 -30l-3 -6l6 -30l-16 -6l-10 6l-3 -3l-16 3l-3 10h9v7l-3 3
l3 3l-9 13l9 4v9l-6 7l-7 -13l-3 16l7 7l-10 3l3 6q-6 7 -9.5 12t-5 13t-5 14.5t-3.5 13.5l3 9l-3 4l3 3l-19 20l-3 9l3 7l-7 6h7v13l-3 4l-10 -7l-10 13l-23 13l3 4l-6 13l-3 -10h-17l-6 6l-10 -6l-3 6l-3 -3l-10 3v-13l-20 -13l-3 3l-7 -6l7 -3l-13 -20h-7
q-3 -19 -9.5 -35.5t-9.5 -36t-8 -37.5t-2 -38l-7 23l-9 -42h6l7 10v-30l-4 -10h-6v-16l6 -52l-6 -20l3 -9l-3 -4q3 -6 4.5 -11t1.5 -11.5v-13v-13.5l-6 -6l6 -3q0 -23 3.5 -47.5t5 -47.5t6.5 -46t12 -45l-4 3l-3 -10q7 0 10 -1.5t4.5 -6.5t5 -8t3.5 -10l11 -11l10 -10
t11.5 -5t13.5 -3l19 13l7 13l9 6l4 -3l6 16l-6 13l19 66l-3 9h-10v13l3 7l-3 7l3 3l-3 6l7 33l-7 26h7v7l-10 9l-3 -9l-33 19l3 3l-6 10l-3 -6l-4 13l7 6l-7 10l4 7h3l3 -4l29 4v-7l13 -3l20 10l10 -4v-6h10l3 10h16l-3 -17h10v17l10 -4l6 4l3 -4l13 4l4 -4l45 4l4 -4l22 4
l4 -40l-23 -9l-3 13h-10v-13l3 -4q-7 -3 -10 -9.5t-4.5 -11.5t-3.5 -11.5t-5 -12.5l3 -26l-3 -20l3 -72l-3 -3l3 -121h-13v-9h-19l-13 26l-17 9l7 4l-16 6l-7 13l-13 -3v-7h-3l-3 4l-7 -13h-6v-10l-17 -3q-3 -4 -3 -7t-3.5 -4.5t-6.5 -3.5t-6 -5zM276 13l-3 3l-3 -3l3 -4z
M296 32l-4 3l-3 -3l3 -3zM364 35l-3 4l-3 -4l3 -3zM283 45v13l-4 3l-3 -16l3 -3zM325 61l3 4l-16 10v-17h10zM273 68l-3 3l-4 -3l4 -3zM165 84v4l-3 3l-3 -7l3 -3zM384 84v20h-10v-20h10zM169 101l3 3l-3 3l3 13l-7 7l-6 -26l6 -4zM312 133v3l3 7l-3 3l-6 -13l3 -3zM315 146
v17h-9v-17h9zM400 166l-3 3l-3 -3l3 -3zM348 267l-3 3l-4 -3l4 -3zM61 273l3 20h-13v-23h7zM345 273l-4 4l-3 -7l3 -3zM341 280v10l-3 3l-3 -16l3 -4zM74 296v20l-13 6v-13l3 -13h10zM35 339v19l-10 13l-3 -22l3 -10h10zM126 407v13h-10v-13h10zM139 424v6l3 3l-19 33
l-7 -10l10 -6l10 -30zM381 528l-4 3l-3 -3l3 -3zM90 554v7l-6 6l-4 -13h10zM368 564l-4 3l-3 -3l3 -3zM322 678l-3 3l-4 -3l4 -3zM306 688l-4 3l-3 -3l3 -4zM341 724l-3 3l-3 -3l3 -4z" />
    <glyph glyph-name="H" unicode="H" horiz-adv-x="520" 
d="M10 0l-10 3l13 23l-7 14l4 3l-7 3l23 7l10 -3l17 10l7 23l-4 3l10 10l-3 20l7 14l-4 16h-6l-4 7l10 13l-6 14l3 3l-3 3l3 4l-3 3l3 3l-7 4h7v10h7v26l-7 17l7 7l-7 13l-7 3v44l4 10l-4 26l4 20l-4 30l7 7q-3 3 -5 8t-2 10v10v12l4 13l-4 4l4 6l-4 10l14 7l-4 3l4 4l-4 3
l4 7l-10 20l10 40l-10 13h6l4 20l-7 23l3 34l-6 13l3 3l-3 4l6 3l-6 3l3 4q-3 6 -10 8t-13.5 5t-11.5 5t-12 5l-6 -3q-4 3 -7 4.5t-3 5v8.5v8l3 20h20l7 -3l3 3l7 -3l3 3l3 -10h20l10 4v6h17l7 -3l83 3l20 -3l3 3l4 -3l23 3l3 -6l-3 -17l3 -20l-10 -7l-16 4v-10l-17 -7
l-13 -63q6 -4 6 -10.5v-15v-15v-13.5h-10v-13h10v-40l-6 -17q6 -6 6 -18v-23.5v-23t4 -21.5l33 -10l3 6v-6h10v6h24l3 -3l33 3l17 -3q7 3 7 8v12t1.5 10t1.5 10h7v7l-7 6l7 4l-4 10l7 23h-7l-3 17l3 3l-6 3h10l6 27l-13 3v14l7 6l-4 4l4 6l-4 14h-6l6 3l-6 3v10l16 24l-10 6
l-6 24l3 3l-7 3l-6 30l-10 4l-7 -4l-17 7l-6 10l3 3l-7 7l4 7l-4 16h30l4 -6q3 3 6.5 4.5t8.5 1.5h10h8l7 -10l3 4l7 -4l3 4l-3 3l30 3l23 -6v6h93l4 -30l-4 -13l-10 10l-16 -10l3 -3l-7 -4l4 -3l-17 -13l-7 -14l4 -43l-7 -7q7 -3 7 -9.5v-13.5v-13.5v-13.5l-4 -3l4 -3h-7
v-10h7v-44l-7 -23h7v-60l-4 -3l4 -44l-7 -3q7 -3 7 -11.5v-17v-16.5v-15l-7 -7q7 -3 7 -9.5v-11.5v-12v-13h-7v-17q7 -3 7 -10v-12v-11.5v-13.5h-7v-10q7 -3 7 -8v-11.5v-11.5v-12l-7 -20h7v-47v4l-4 3l-6 -17l3 -3l-3 -3l10 -4v7h3l3 -13l-3 -4l7 -3l3 3l7 -10h16l-3 -3
l17 -7v-30l-14 -3l-6 3l-14 -6l-6 13l-7 -7l-13 7l-20 -10l-4 3l-13 -6l-3 3l-14 -3l-13 6l-3 -3l-7 3q-3 -3 -10 -4.5t-12 -1.5h-11.5h-13.5l-3 3l-17 -3l-20 3l-3 -3l-10 3v20l10 17l-3 6h6l10 -13l17 27l13 6l-3 17l10 7l-3 36l3 7l-3 10l10 7l-4 3l7 23l-7 7l10 3l-16 4
v6l10 7l-7 3v7h7v13h-7l-3 57l3 17l-3 3l3 3l-3 4l3 3l-3 27l3 3l-7 17l-13 6l-17 -3l-20 3l-76 -6l-7 -24l3 -30l-3 -10l3 -33l-10 -3q4 -4 7 -5.5t3 -8v-10v-10.5l-3 -10l3 -66l-3 3l-7 -17h7l3 -63h7l3 -10l7 -3l10 -10v-7h13l7 3l3 -26l-3 -7l-27 -7v-6h-3l-3 6l-34 -6
l-3 10q-3 -4 -8 -7t-12 -3h-12h-11v6l-10 4l-4 -7l-3 7l-3 -10h-34l-6 6l-4 -3v17h-6l-7 -17zM70 3v10l-4 3l-6 -10l6 -6zM80 6v4l-4 3l-3 -7l3 -3zM206 16v4l-3 3l-3 -7l3 -3zM206 33v17l-3 3l-3 -20l3 -3zM400 33v20l-4 10h-10v-17l10 -16zM476 43l-3 3l-3 -3l3 -3zM63 66
l-7 4l-3 -4l7 -3zM403 70v10h-7l-3 -4l7 -10zM160 73v7l-10 23l-4 -10l4 -20h10zM323 80l-3 3l-4 -3l4 -4zM146 110v3h-10v-7l10 -6l4 3zM366 143v23l4 7l-10 17l-7 -30l3 -17h10zM336 196v4l-3 3l-3 -7l3 -3zM153 250l3 3l-6 3l-7 -6l7 -4zM426 260v16l-3 4l-3 -20l3 -4z
M370 296v14l-14 6v-10l4 -10h10zM116 303v13h-10v-10l7 -6zM333 306v10l-3 4l-7 -10zM113 323v13l-3 4l-7 -17h10zM120 343l-4 3l-3 -3l3 -3zM336 346v10h-6l-4 -3l7 -10zM116 350v3l-3 3l-3 -10l3 -3zM263 366l-10 4l-3 -4l10 -3zM320 366l3 4l-10 3v-7l3 -3zM340 363v10
l-7 7l-7 -10zM416 373l4 10l-4 3l-6 -13l3 -3zM280 376v10h-10v-10h10zM423 393v3l-3 4l-4 -7l4 -3zM393 456l3 7l-6 7l-4 -14l4 -3zM176 463v33l-3 4l-7 -27l7 -13zM396 470l-3 3l-3 -3l3 -4zM400 503v20h-10v-13l6 -10zM96 506v7l-3 3l-3 -10l3 -3zM346 570v3l7 17l-10 3
l-3 -23l3 -4zM446 596v4l-3 3l-3 -7l3 -3zM323 683v3l-3 4l-4 -7l4 -3zM316 700l-3 3l-3 -3l3 -4z" />
    <glyph glyph-name="I" unicode="I" horiz-adv-x="804" 
d="M772 269h-3l-20 -4v7l-13 3l-10 -6v11t-5 8.5t-7 8.5t-2 12h-16l-4 -4l-36 20l-4 7l-3 -7l-23 -10l23 -3h-20l-7 3l-20 -3l-23 3l-3 -3l-20 3l-10 -3l-7 3l-23 -3l-4 3l-3 -3l-3 3l-27 -3l-10 3l-3 -3l-7 3l-7 -3l-10 7l-3 -4l-3 4l-14 -7l-3 3l-10 -3l-10 3l-3 -3l-11 3
l-7 -3l-3 3l-10 -3l-20 3l-4 -3l-10 3l-3 -3l-17 13l-20 -6v-7l-16 10l-4 7l-3 -7h-7v-10h-6v7h-24l-3 -4l10 -3h-10v7h-53l-4 -4l7 -3h-3l-10 3l-4 -3v7h-12v-7h-10l-7 3l-3 7l-3 -10l-4 3l-6 -3l-4 3l-20 -6l-3 3l-17 -17l4 -3l-10 -10l3 -3l-3 -17l-20 -3l-4 3l-3 -3
l-3 3l-4 -3l-16 3l3 3l-3 4l3 3l-3 3l6 17h-6l3 3l-3 44l3 3l-3 3l3 17l-3 34l3 4l-3 6l3 4l-3 20l6 3l-6 20l3 7l-3 3l3 13l-3 7l3 7l-3 3l23 3l10 -3l13 3l14 -43l23 -10l3 -10l7 10h69l27 -3l33 3l17 -3l76 3l14 -7l3 7h23l-3 -3l7 -7l3 3l13 -3v10h85l3 -3l7 3l-4 -3
l10 -4v7h7l3 -10l4 10h13v-7l27 -3l3 3l-10 7h23l4 -3l40 3l3 -3l3 3l10 -3l7 3l3 -3l17 3l-3 -3l40 -4l3 4l-3 3l23 7q0 6 5 11t8.5 12t3.5 15t6 8l4 -3l6 3l20 -3l4 3l6 -3l-6 -3l6 -14h-3l-3 4l-7 -7l13 -3l-6 -10l6 -4v-13l-3 -20l3 -51l-3 -7l3 -43l-10 -7q7 -3 8.5 -8
t1.5 -11.5v-13.5v-13zM739 259h-7l-3 3h7zM696 327l2 4l-20 11l-4 -19l20 -1zM656 381l3 20l-2 5l-8 -24l3 -4zM572 361v3l-13 20l-4 -7l11 -19zM512 364v-13l8 -14l3 27h-11zM520 333v-10l3 -3l4 17l-4 3zM482 325l-16 14l-10 -7l26 -13l4 3zM460 367l-1 -14l4 -3l5 16
l-2 5zM455 347l2 -4l6 3l-5 4zM422 407l-1 21l-12 10l-3 -21l5 -10h11zM405 350l-3 3l-4 -3l4 -3zM402 357v14l3 18l-3 3l-8 -35l4 -4zM328 416l-7 4l-6 -14h16v7zM306 343l-1 24h-11l1 -21l8 -7zM286 389v10l3 15l-3 3l-8 -28l4 -3zM275 312h-7h3l4 3v-3zM293 420l-4 4
l-3 -4l3 -3zM282 430l-4 4l-3 -4l3 -3zM146 319h-4l-3 -4l7 -3l3 3zM76 305l-4 -3l4 -3l3 3z" />
    <glyph glyph-name="J" unicode="J" horiz-adv-x="458" 
d="M171 0l-26 6l10 23l-7 7q-3 -4 -6 -7t-3 -8v-10t-7 -5l-20 10v6l-16 4l-3 13h-7v6h-6v10h-7v7h-13l-16 46l6 13h-6h6v13h-6v3l3 3l-3 17l3 3l-3 3h6v10l-3 3l3 14l7 3l3 -3l10 22l19 7l-3 3l23 7l7 -3l23 3l6 -3v-7h10l3 -7l3 4l27 -46l-4 -13l4 -40l-4 -6h-6v-7l3 -3
l-20 -23l-19 -3l6 -3l-13 -4v-10l40 -9l13 3v6l16 4q-3 6 0 12.5t6.5 11.5t5 10t4.5 12h7l7 52h6v30l-10 6v16l10 23l-3 4l3 3q-6 3 -8 8t-2 13v15v13l7 16h-7v17l13 19l-3 4l3 10l-13 29l4 3l-4 36l10 13q-3 4 -6.5 9t-3.5 11.5v13v12.5q7 4 8.5 10.5t5 11.5t5 11.5
t1.5 12.5l-3 13h-10v-6h-3l-4 6h7v10h-7v23l7 10l-3 3l9 10l-3 3l3 4l-13 6v16h7v20l-3 10l3 3q-3 4 -5 7t-2 8v8t-3 7l3 3l-6 13l-10 -3l-7 3l-3 -3l-3 6l-13 -3l-13 7v16l6 7l-6 9l3 10h26v-6h7l3 3l-3 3l13 -6l26 6l3 -6l3 6h17l13 -6q3 6 11.5 6h15h14.5h15l39 -10
l29 10l4 -13l-4 -13l4 -13l-4 -7l-9 -3l-4 7l-13 -4v-6l-6 3l-4 -3l-3 3l-10 -16l4 -4l-10 -29l3 -26l-3 -4l3 -88l-3 -3l3 -49l-7 -7l7 -3v-7l-3 -3l3 -10l-7 -13q4 -3 5.5 -8t1.5 -11.5v-11.5v-12l-3 -3l3 -36l-7 -3l7 -23l-3 -3l3 -76h-7v-6l7 -10l-3 -7l3 -19l-3 -4
l3 -13l-7 -55h-6v-7l3 -3l-13 -3l10 -7l3 3l-10 -26l-9 -3v-10l3 -3l-26 -40l-7 7l-16 -13l3 -10l-3 3l-4 -3l-3 3l-20 -13l4 -3l-36 -13l-10 10l-13 -10l-10 3v-6h-20zM99 29l-3 3l-3 -3l3 -3zM93 42l-4 3l-3 -3l3 -3zM270 55l3 10h-17v-7l10 -6zM234 72v13l-4 3l-3 -16
l3 -4zM276 88l3 3l-16 10v-16h10zM224 95l-4 3l-3 -3l3 -4zM234 101l3 3l-3 4l3 6l-7 7l-6 -23h6zM335 111v20h-10v-20h10zM263 160v3l3 7l-3 3l-7 -13l4 -3zM266 173v17h-10v-17h10zM351 186v7l-6 6l-10 -23l20 -9v13zM283 235v13l-7 30l-6 -33l3 -10h10zM299 294v4l3 9
l-10 20l-6 -23l10 -13zM332 311v10h-10v-10h10zM348 324v6l-3 17h-13v-10l3 -13h13zM279 399v10l4 3l-10 13l-3 -23l6 -6zM351 475l-3 3l-3 -3l3 -4zM230 504l4 3l-4 7l4 3l3 -10zM286 524v13h-7l-9 -13l3 -4zM342 540v10l-7 6l-6 -16l3 -3zM253 563v7l7 6l-20 7v-20l10 -3z
M273 599l-3 3l-4 -3l4 -3zM276 602l-3 4l-3 -4h6z" />
    <glyph glyph-name="K" unicode="K" horiz-adv-x="539" 
d="M513 0l-20 6h-14v-6l-16 6l-14 -6l-23 3l-3 -3l-7 6l-23 -3l3 -3h-13l-4 6l-3 -6l-30 6l-3 -6l-7 43l-7 -10l4 -20l-4 -13l-6 3l-4 -3l-30 3l4 20l-4 3v7l7 3l-3 4l3 10l13 -4l27 17v7l10 6l-7 7q0 7 2 12t2 11.5v13t6 10.5l-6 13v37h6l-6 16v13.5v15t3 13.5t7 12l-10 10
l3 46l-3 4l6 6l-10 7l-3 -3v6h-7q0 4 -3 7t-3 6.5v8.5v8l-27 -3l-3 -13l10 -4l-4 -13l-20 -13l7 -7l-3 -27l-7 4l-7 -7l7 -3l-3 -7l3 -3l-10 -10l3 -4l-16 -46l-14 -4l-3 -10l7 -13l-4 -13l-13 -10l-3 -24l-7 -3l7 -7h-7v-20l-3 4l-14 -4v-23h7l7 -17l3 4l27 -14l3 -20h7
l-7 -20l-7 -3l4 -3l-14 3l-3 -3l-3 3l-4 -3h-6l3 3l-3 3l-24 -6h-26l-4 6l-3 -3l-3 3l-14 -3l-10 3l-6 -6l-4 3l-3 -3l-13 3l-4 -3l-30 6h-20v-6l-3 3l-3 -3h-4l-6 10l-7 -7h-10l3 7l-3 6v10h7l3 24l3 -4h7v10l27 30l3 -3l20 60l10 3l7 17l-7 7l13 36l14 7l-7 7l17 46h6
l7 24l-3 3l80 200l-7 20l3 3l-6 4v3l6 3l-13 4l-3 16h-7l-10 27h-7q0 7 -5 12t-6.5 10t-5 11.5t0.5 13.5h-7v6h-7l4 4l-10 3l-30 47l3 -4l3 4v6l-33 17v7l-10 3l-3 -3h-17l-3 20l-4 -4v-10l7 40h8h8.5t7 -1.5t6.5 -4.5l10 6l3 -3l4 3h24.5h23.5t23.5 -1.5t21.5 -4.5l10 6h10
l3 -6l4 3l10 -3l16 3l4 -3l-4 -40l-20 -7h-13l-3 7l-24 -17l10 -3l-10 -20v-14h7q7 -10 12 -20l10 -20t13 -20t15 -20v-3l-10 -7l10 -16l3 3l20 -13v-4l-3 4h-7v-14h17l17 -26l-7 -7l13 -7l-10 -6v-7l10 -3h7v10l10 -17l-7 -3l7 -7l3 3l7 -20l10 -3h13v17h-6v13v12t1.5 11.5
t4.5 9.5v14h-6v156l6 4l-3 13l-13 10l-40 20l3 3l-7 20v17l7 3l13 -10l4 7l10 3h11h10h10t9 -6l3 6l33 -6l4 3l3 -3l3 6h15.5t16.5 -1.5t15 -3t13 -5.5l4 10h6v-6l10 3l4 -3l3 6h20l3 -6l-6 -17l6 -17l-33 -13l-23 -23l3 -4l-3 -3l6 -20l-10 -7v-11v-10t3.5 -8.5l6.5 -6.5
h-6l-4 -24l-6 4h-14l7 -20l10 3v-7h10v10l3 -3v-23l-10 -4l10 -13l-3 -33l3 -4v-90l-6 -3l-4 3l-6 -6l13 -7l3 -10v-23l-6 3l-4 -3l4 -14l-7 -10l3 -13l7 7l-7 -17v-20h7v-20l-7 -3l4 -4l-4 -23l10 -50l-3 -13q0 -17 1.5 -33.5t3.5 -35t7 -33.5t11 -28l30 -4v-3h-6l-4 -20
l4 -3l-4 -10l4 -4v-6zM116 6l3 -3l4 3v9v8t-3.5 6.5l-6.5 6.5l-7 -6zM369 10l4 -4l3 4l-3 3zM393 13l3 -3l3 3l-3 3zM29 20l4 -4l3 4l-3 3zM49 26h10v14h-10v-14zM366 40l3 -4l4 4l-4 6l-3 -3v-3zM326 53l3 -3l4 3l-4 3zM209 53l4 -3l3 3l-3 3zM366 56l3 -3l4 3l-4 20l-3 -3
v-17zM173 56l3 -3l10 17v16h-10l-3 -10v-20zM169 93l4 -3l6 10l-3 3h-7v-10zM123 90l10 3l-4 3l4 4l-7 16l-7 -10l4 -10v-6zM413 96h10l3 27l10 7l-7 10l-20 -10l4 -24v-10zM209 110l4 -4l3 4l-3 6l-4 -3v-3zM89 140l4 -4l3 4l-3 6l-4 -3v-3zM426 153h10l3 20l-6 37l-10 -17
l3 -23v-17zM206 166h10l3 17l-6 30l-10 -17l3 -6v-24zM419 273l4 -3l6 3l-6 7l-7 -4zM259 283l4 -3l3 3l-3 3zM146 283l3 -3l4 3l-4 20l-3 -3v-17zM253 306l3 -3h7l-7 23h-7zM383 320l3 -4l3 4l-13 26l-7 -10zM286 320l3 -4l4 4l-4 3zM203 320h10l3 10v10l-13 -7v-13z
M239 330l10 3l-6 10l-4 -3v-10zM303 343v3h3zM313 356h10l10 20l-7 10l-13 -20v-10zM453 366l3 -3l3 3l-3 4zM236 370l3 -4l7 10l-3 4h-7v-10zM456 373l3 -7l4 4l-4 10l-3 -4v-3zM286 383l3 -3l4 3l-4 7l-3 -4v-3zM233 386l13 7l-7 10l-6 -7v-10zM293 400h10v10h-10v-10z
M396 486l3 -3l7 13l-7 27l-3 -3v-34zM269 523l4 -3l3 3l-3 3zM356 613l3 -3l4 3l-7 27l-10 -7zM463 686l3 -3l3 3l-3 4zM106 693l3 -7l4 4l-4 10l-3 -4v-3zM196 703l3 -3l4 3l-4 3zM126 750l3 -4l10 4l-3 3z" />
    <glyph glyph-name="L" unicode="L" horiz-adv-x="491" 
d="M42 3q-3 3 -4.5 6.5t-1.5 8.5v10v8l13 17q7 0 12 1.5t10 5t10 6.5t8 7l3 -14h10v14l-6 6l3 3l-3 4l6 40l-3 39l3 17l-3 7l3 16l-3 17l3 3l-3 3l3 27l-3 3l3 4l-3 33l3 3l-3 4l3 3l-3 30l3 6l-3 37l3 3l-3 3l3 7l-3 47h7v6l-7 23l3 10h7v20l-7 14l10 23l-6 26l3 -3l3 7
l-3 3l3 3l-3 4l3 6l-13 14l3 3l-3 3l10 4v9l-3 4l3 20l-7 13l10 10l-3 10l3 3l-23 17v6l-13 4v3l3 3l-33 10l3 4l-3 6l10 17l-4 7l14 -4q6 10 18 10h23.5h23h24.5l7 -10q7 7 18.5 8.5t21.5 1.5h21.5h21.5l10 -6l6 3v-7h7l7 10l3 -10l-3 -3l3 -3l-3 -24l3 -6l-17 6l-13 -3
v-12t-5 -8t-8 -6.5t-7 -6.5l4 -3l-7 -4l3 -3l-3 -7l3 -3l-3 -3l3 -20l-3 -17l3 -7h-6l-4 -9l10 -4v-16l-3 -14l3 -10l-3 -10l3 -46l-3 -3l3 -63h-3l-3 3l-4 -10l4 -3l3 3l3 -43l-6 -10q3 -3 4.5 -10t1.5 -13.5v-13v-13.5l-3 -3l3 -20l-6 -3l6 -4v-36l-3 -24l3 -33l-3 -3
l3 -3l-3 -4l3 -3l-3 -13l3 -24l-3 -26l-10 -3l13 -7v-37l-3 -3l3 -10q10 0 18.5 -6.5t18.5 -5t20 -3.5t20 -5v10h6l4 -3l3 7l17 6l19 27l4 -4l13 10l-7 4h7l13 33l10 3v10l10 -3v6l10 4l3 10l-3 3l7 17l10 -4v10h-7l-3 7l13 7l-3 3h3l7 -7l3 4l3 -7l4 3l6 -6l4 6l10 -6
l-10 -17h6v-13q-10 -20 -16.5 -40t-13 -41.5t-15 -41.5t-18.5 -40l-20 -3l-6 6l-4 -6l-3 3l-3 -3l3 3l-17 7l-3 -7l-23 -3l-10 6q-7 -6 -15 -6h-16.5h-17h-17.5h9l4 3l-13 7l-7 -10h-17l-3 13h-7l-10 -13h-53l-6 6l-4 -3l-3 3l-3 -6h-14l-19 6l-20 -6l-4 3l-3 -3l-23 6z
M271 6l-3 3l-3 -3l3 -3zM205 9v7l3 10h-10v-17l4 -3zM245 9l-3 4l-4 -4l4 -3zM159 19v10l-7 7l-3 -17h10zM288 23v6l-13 7l-7 -7zM258 46v7l-10 10l-6 -10zM242 59l-4 4l-3 -4l3 -3zM388 66v3l3 7l-7 6l-10 -13l10 -6zM424 76l13 3v10l-13 17l-3 -14l3 -6h-3l-4 3l-6 -7
l10 -9zM351 82l-3 4l-4 -4l4 -3zM179 106l3 3l-17 13l-6 -16l16 -4zM434 119l-3 3l-4 -3l4 -3zM205 126l3 6l4 -3l3 10l-13 10l-4 6l-3 -9l7 -10h-10v-7l10 -7zM401 165v7l7 3v-6zM205 169l-3 3l-4 -3l4 -4zM169 192v17h-10l-4 -10zM431 199l-4 3l-3 -3l3 -4zM215 225v3
l-13 17l-4 -7l14 -16zM185 255v13l-6 14l-4 -27h10zM179 285v10l-4 3l-3 -16l3 -4zM162 315l13 16l-6 10l-14 -26l4 -4zM202 315v3l3 10l-10 20l-7 -23l10 -14zM212 378l6 26l-3 14h-10l-3 -34l6 -9zM195 484v23h-10v-20l7 -6zM192 537v7l3 10l-13 6l-10 -13l3 -3l7 3l6 -13
zM89 700l-3 3l-4 -3l4 -4z" />
    <glyph glyph-name="M" unicode="M" horiz-adv-x="549" 
d="M26 23l-14 4h7l5 23l-3 3l11 9l-6 7l-11 -6l5 4l-4 3h7v6l7 -10l9 12l3 -7q3 3 7 7.5t6 9.5t2.5 11.5t3.5 9.5l3 -4l12 19l-13 4l2 17l13 5l5 10h-7l-2 8l6 2l-2 10l-10 1v3l17 45l-10 31l10 -1l5 23l-5 13l-7 4l1 7l14 52h-7l1 6l4 4l-6 3v3h7l6 30l-10 7l1 13l9 22
l-2 18l5 9l-5 30l7 -1l1 14l3 -4l4 13l-6 40l6 26l-5 27h10l4 12l-2 10l4 9l-12 11l1 7l13 38l-2 10l-20 6l-3 -4l-22 9l-5 -6l-6 27l15 28l13 -1l25 -8l14 5l26 -9l14 5l25 -12l13 3l1 6l26 -6l9 3v-6l14 -2v-4l-6 -12l4 -4l-4 -2l6 -5v-3l-7 -2l12 -8l-3 -33l-6 -6l12 -8
l6 -43h-7l-1 -13h7l5 -27l-4 -3l2 -23h7l-6 -17l1 -23l8 -1l-8 -2l7 -5l-6 -18l9 -18l-11 1l-2 -23l11 -1l8 -30l-4 -10l4 -20l10 -1l4 3l-1 -20l9 -1l6 24l-13 7l11 16l-5 19l11 3l-10 4l10 -1v7l-9 7l14 6l-6 20l7 -1l2 17l2 -7l12 19l-9 11l11 19l7 -1l2 13l-7 1l-2 20
l4 2l6 -3l4 3l-3 3l12 19l-9 17l3 3l10 -4l3 3l-2 4l3 2l-6 4l-3 7l4 7l-2 13l10 5l9 22l-2 8l6 -1l4 20l-2 10l-6 1l4 8h6l9 19h3l26 -9l4 6l10 -1l15 -7l3 3l19 -12l14 6l-6 3h36l23 -8l1 -17l-5 -20l-7 1v-9l-3 3l-4 -7l-3 1l-3 4l-22 -25l6 -1l-20 -44l10 -4l-10 -32
l7 -34l-7 1l-4 -20l8 -20l-11 -6l3 -3l-4 -10l7 -37l-5 -16l1 -24l-4 -15l1 -24l-5 -17l1 -23l-4 -16l1 -23l-5 -20l2 -10l-10 -5l10 -5l-11 -2l7 -4l-4 -3l3 -7l-10 -32l7 -1l1 -30l-7 1l1 13l-10 5l-3 -7l1 -20l-4 -13l6 -6l7 5l-3 10v-6l2 -10l7 -1l-11 -6l10 -4l-10 -2
l-15 -21l13 -2l1 9l-1 -9l-3 -3l9 -4v-3l-4 -4l6 -3h-7l-5 -25l15 -15l-3 -3l18 -15l7 2q3 -3 6 -5t2.5 -5.5t-1 -8t-0.5 -7.5l-8 -22l-23 -1l-20 5l-13 -2l-4 3l-6 -2l-16 4l-24 -1l-2 7l-24 -4l-5 3l-10 -2l-17 4l13 5l1 10l-5 7l-10 -2l-8 -9l-10 3l-13 -4l3 -5l-4 -2
l-2 13l4 6l10 3l4 9l-9 1v7l-6 1v3l7 5l9 -4l21 5l11 19l-4 23l6 -1l9 17l-4 3l4 4l-3 3l4 3l-10 8l1 3l6 -1l4 46l-3 3l5 17h-6v3h6l1 10h-6h6l5 9l-7 7l3 4l-5 3v3h6l5 9l-7 4l7 -1l1 7l-6 11l7 2l-9 11l10 -1v7l-5 24l5 22l-2 3l7 3l-6 13l3 4l-2 3l7 7l-5 20l13 -1l1 13
l-16 1v4l7 3l-3 3l3 4l-2 3l10 5l-7 5l-2 10l10 28l-7 1l-13 -32l3 -16l-5 -7l-10 5v-7l4 -3l-5 -7l6 -7l-7 1v-10l7 -1l-9 -17l-6 1l-8 -46l4 -3l-5 -10l-13 -2l-1 -10h7l-1 -3l-4 -14l2 -13l-27 -44l3 -33l-16 -35l3 -10h-8l-4 -9l3 -4l-3 -2l3 -4l-4 -3l2 -14l-4 -6h-7
l-5 -25l2 -16h-6l-17 -26l4 -3l-5 -10h10v-3l-4 -7l-29 7l-6 -4l-6 15l12 22h-7v6l-6 1l-2 10l11 22l-8 8q0 3 -3 8t-4 8.5t-0.5 10.5t0.5 10h-7l1 6h7l1 14l-3 13l5 9l-7 1l3 3l-7 23l-6 4l-2 17l3 3l-2 3h6l1 17l-4 19l-7 1l-7 33l5 10l-8 31l4 6l-3 7l8 12l-3 10l-10 1
q1 11 0.5 19.5t-1 18.5t-2 16.5t-3.5 16.5l-10 1l1 10l-13 1l-2 -13l11 -57l-12 -30l3 -10l6 -1l-1 -6l-4 -16l2 -14l-6 1l-2 -16l3 -33l-5 -23l2 -17l-4 -16l1 -13l-6 -4l3 -3l-7 -2q6 -4 5.5 -11t0.5 -11.5t0.5 -9.5t-0.5 -12l-6 1l-2 -16l4 -24l-3 -7l8 -23l22 -9l2 -14
h7l10 3l-1 -14l-5 -6l4 -3l-18 -8l3 -11l-7 1l-35 13l-5 -10l-7 14l-11 -9l-4 3l-3 -5l-10 1l-3 10l-9 4l-29 -5v-6zM462 28l-11 30l-8 -19l16 -15zM259 65l-2 4l-5 -4l4 -3zM257 78l6 30h-10l-6 -32l6 -1zM370 82l2 16l-9 1l-1 -13l5 -8zM385 140l1 10l-4 19l-11 -15l1 -13
zM227 157l2 20l-10 1l-2 -20zM408 200l1 17l-3 4l-5 -20l3 -3zM448 207l-6 4l-4 -3l6 -4zM413 220v3l-3 4l-4 -6l3 -4zM209 241v7l-7 1l-3 -3l6 -8zM309 236l-8 24l-8 -9l11 -18zM252 244l4 10l-3 3l-8 -12l4 -4zM260 266l-3 4l-3 -3l3 -3zM183 293l4 3l-6 11l-4 -13l3 -4z
M380 295l3 4l-1 16l-10 1l-1 -10l5 -14zM432 295l-2 3l-4 -3l3 -4zM430 301v7l-2 3l-5 -13l3 -3zM232 325l1 10l-5 7l-5 -16zM234 341l-3 4l-3 -3l2 -4zM236 374l1 8l-5 13l-4 -12l5 -12zM380 374v5l-2 4l-5 -8l4 -3zM111 409l1 10l-3 3l-8 -12zM125 425l1 3l5 20l-6 10
l-9 -29l6 -8zM412 400l-13 4l-4 -3l13 -5zM403 407v4l5 18l-10 1l-7 -12l8 -14zM215 427l1 16l-8 14l-8 -13l5 -16zM389 445v3l-2 3l-4 -6l3 -4zM264 462v3l-2 4l-4 -7l3 -3zM274 464l-2 4l-4 -3zM432 480l1 10l4 10l-12 7l-2 -23l5 -6zM135 530l1 15l-5 8l-9 -15l9 -11z
M376 511l4 10l-6 8l-7 -10l5 -10z" />
    <glyph glyph-name="N" unicode="N" horiz-adv-x="539" 
d="M375 -11l-17 23l3 6l-10 27l3 3l-5 4l-3 13l-3 -3v29l-10 4q-2 8 -6.5 13.5t-4 12t-0.5 11t-4 11.5q-3 3 -5.5 7t-4 7t-3 8.5t-4.5 8.5l4 3l-7 23l4 10l-13 1v3l11 2l-7 5l1 6h-6l3 3l-11 24l-8 -2l2 23l6 5l-13 12l-4 -3l-28 77l4 11l-10 30l-10 4l8 6l-23 35l-3 36
l-12 11l9 23l-16 7l7 6l-6 4l-5 11l-10 1l-2 -20h-6l-1 -10l2 -3l-3 -3l6 -3l2 -7l-12 -35l5 -10l-5 -13l3 -4l-8 -15l3 -3l-3 -3l-1 -42l-4 -4l4 -27l-11 21l-7 -10l14 -17l-4 -10h6l-3 -65l-10 -75l2 -6l-7 -35l3 -4l-5 -25l2 -11l-5 -12l3 -3l7 2l8 -24l6 -1l2 -6l-8 -22
l12 -7l5 15l-2 10l3 3l-2 3h6l2 -13l9 -1l1 10l3 -14l-5 -6l4 -4l-7 -2l5 -14l-4 -6l-9 1l-4 4l-6 -3l-3 4l-13 -6l-12 14l-8 -5l3 -4l-19 -1v7h-7l-3 -3l4 9l-9 1l-1 -10h-26l1 7l-22 2l-8 -3l-4 20l-7 1l-2 6l-3 -2v7l4 5l-5 8l2 -5l29 11l7 -4l18 14l10 3l7 13l-7 29
l11 12l-4 14l4 13l-3 3l7 6v29l3 3l-5 8l8 21l-2 13l4 7v29l3 3l-9 8l4 2l-1 36l5 3l-2 20l9 23h-7v4l5 3l-2 26l5 9l-1 30l4 2l-4 4l10 25l2 -6l12 12l-7 6l-3 -2l-2 6l3 7l-2 3l3 3l-5 10l4 10l-6 10h7l5 21l-2 8l3 2v29l4 10l-5 17l9 25l-4 20l-10 1v3l4 13
q-10 -2 -14 3.5t-12 7.5t-12 7.5t-11 9.5l-5 14l7 5l-5 17l17 5l13 -4h26l12 -4h27l12 -4l10 2l6 -4l10 2l16 -7l7 5l6 -3l7 2l11 -27l-8 -3l9 -11l-4 -12l12 -7l-4 -4q6 -10 12 -20.5t10 -22.5t6 -23t0 -24l7 -1l7 -27h7l-4 -4l33 -101l-4 -2l9 -8l36 -128l7 -1l5 -40
l10 -1l14 35l-11 17h5l13 25l-15 8l2 26l4 7l10 2l-8 17l-4 -6l3 29l3 3l1 36l3 2l-3 4l7 3l-3 3l4 10l-6 1l2 15l3 3l-2 7l6 3l-6 6l7 4l-6 3l1 13l4 3l-2 13h6l12 22l-12 11l2 22l11 6l1 10l-15 7v3l4 7l-3 3l3 3l-21 19l-4 -10l-6 11l-6 -3l-16 8l-2 16l5 13l-3 3l36 4
l28 -16l14 12l7 -4l6 5l3 -6l4 6l3 -1l16 -4l23 1l16 -5l3 3q6 -4 5.5 -9t-0.5 -10t-0.5 -9.5t-1.5 -11.5l-7 1l-3 3l-3 -6l-11 -2l3 -4l-30 -6l-2 3l-8 -9l3 -3h-7l-1 -13l-2 -88l-7 -35l4 -4l-8 -35l4 -3l-8 -36l4 -3l-7 -36l3 -3l-10 -31l2 -8l-6 -32l2 -10l-7 -13h6
l-5 -19l3 -4l-11 -83l3 -40l-8 -35l4 -4l-8 -35l4 -4l-6 -25v6l-9 1l-1 -9q3 -7 5.5 -12.5t1.5 -12t-1.5 -13t2.5 -12.5l-6 -28l-3 1l-13 4zM419 9l-3 4l-3 -4l3 -3zM82 46l-3 3l-3 -3l2 -4zM92 48l2 16l-3 3l-5 -19l3 -3zM400 14l2 13l-10 1l-2 -13zM174 53l-3 3l-3 -6
l2 -4zM416 81l-3 3l-3 -2l3 -4zM414 94l9 16l-11 21l-8 -39h7zM365 125v3l-2 4l-4 -6l3 -3zM431 129v6l-5 8l-5 -13zM420 152l12 19l-10 1l-1 -7l-5 5l-5 -4l6 -17zM416 176l-4 3l-3 -3l3 -3zM419 178l-2 5l-5 -4zM432 246l4 3l-9 4l-1 -6l3 -4zM310 264l2 16l-3 5l-5 -20
l3 -3zM372 255v6l4 7l-12 7l-2 -19zM420 257l1 10l5 12l-13 1l-5 -22zM377 313l1 7l5 16l-5 16l-11 -38zM427 328v3l-2 4l5 22l-9 1l-8 -9l2 -20l9 -3zM356 364l1 10l-9 8l-3 -2l2 -4l-3 -3l9 -11zM305 377l4 3l-6 10l-8 -17h7zM342 383l-9 8l-4 -4l9 -7zM351 385l-2 4
l-4 -3l3 -4zM310 396v3l-2 3l-4 -5l3 -4zM117 438l-2 3l-4 -2l3 -5zM284 457l1 7l-8 7l-4 -13zM285 470l-3 4l-5 -3l4 -4zM289 506l1 10l-7 6l-5 -15zM221 528l1 10l4 7l-9 7l-11 -5l2 -17zM158 552l4 8l-6 1l-7 -6l5 -7zM91 734l-3 3l-4 -2l4 -4z" />
    <glyph glyph-name="O" unicode="O" horiz-adv-x="488" 
d="M222 0l-6 6l-10 -3l-3 6l-6 -3l3 3l-7 3l-3 -3v7h-9v-7h-4l-16 7v9h-6v7h-10l-6 -4l-16 13l6 4l-13 3h7v9h-7l3 4l-13 9l-3 -6v8v9.5t-3 8t-6 3.5l3 10l-10 3l-6 -7l-10 33l3 3l-19 19l-7 16l10 7v13h-10v-7l-9 29l3 3l-6.5 6.5t-3.5 8.5v9.5t-3 7.5l3 7l-6 10h6v9l-9 16
h6l3 10l-6 16l3 10h-6l-3 -3v16l6 13l-3 6l6 3l-3 3l3 13h-9v10l6 3l-6 3l3 20h6v6l-6 19l6 4l-6 3l13 10l-10 3v3l6 3l-6 10l10 3v10h-10v3l13 3v10h6v16l-6 13l-3 -3v3l3 3l-3 3q6 4 6 10v12.5t3 11.5t3 11h7v10l13 3l3 29l-3 7l29 48l9 3l4 10l9 3v7l16 3v6l-3 7h10v6
l3 -3l3 3l4 -3l6 16l35 13l17 -3v9h9l3 -3l39 3l42 -13l3 -6l10 3l6 -6l3 3l36 -29v-10l16 -6l26 -39l-10 -6l23 -16v-20l9 -3l26 -93l-3 -10l9 -19l-3 -7l7 -19l-7 -13l7 -10l3 4v-33l-3 -3l3 -22l-3 3l-7 -10l10 -16l-7 -3l7 -3v-20q-3 -19 -6.5 -38.5t-5 -38.5
t-6.5 -38.5t-14 -35.5l3 -10l-7 -9l-9 -3l3 -4l-6 -3l6 -3l-3 -3l3 -10l-10 -23h-6l-6 -12l-7 -13l3 -4l-9 -3v-8t-3.5 -6.5t-6.5 -4.5t-3 -7h-7l-3 -9l-10 -3l-6 -10l-23 -13l4 -3h-10l-3 3l-16 -16l-16 3l-7 -3l-3 3l-10 -3v-6h-9l-4 6l-3 -6h-26zM200 19l-3 3l-4 -3l4 -3
zM213 57v10l3 -10l35 -3l10 7l10 -4l9 4v13l13 6l-6 3l13 7l6 25l-3 4l6 3l-3 6l10 7l-3 22l3 10v-6h9v6l-3 13h10v6l-3 10h-7v16l3 13h7v6l-3 13l13 10l-13 10l3 3l-3 6l6 10l-3 10l3 6l-3 19l3 4l-3 9l3 10h7v6l-10 7l3 3l-3 13l6 3l-6 3l3 4l-3 3l3 3l-3 6l6 7l-6 6l6 13
l-3 7l3 3l-6 9l3 10h-6v10l6 13l-3 3l3 10l-3 6l6 3l-6 7l-3 -4l-4 17l7 19l-7 16l-6 3v42l3 3l-6 13l-7 3l-3 16l10 4l-16 19l6 10l-13 9v7l-16 6l-6 13l-7 -3l-6 10l-3 -7l-10 7l-7 -4l-3 4l-19 -13l-3 3l-13 -16h-7q0 -16 -6 -29t-9.5 -27.5t-6.5 -29t-7 -27.5l-9 -3
l6 -19l-16 -104l-6 -3l9 -19l-3 -3l3 -23l-3 -3l3 -6l-3 -7l3 -6l-6 6l-3 -19l6 -10l-3 -13h6v-16l-3 -3l3 -3h-6v-7q6 -9 8 -20.5t2 -23t1.5 -22.5t4.5 -21l-6 -6l3 -3l-3 -13h9l10 -42l-3 -3l29 -58l-7 -7l13 -22zM164 96v13l4 19l-7 7l-3 -39l3 -3zM94 109l3 6l3 -3l3 10
l-13 10l-3 6l-3 -10l6 -9h-9v-7l9 -6zM119 115v20l-3 3l-3 -23l3 -3zM335 119v3l-3 3l-3 -6l3 -4zM164 138l-3 3l-3 -3l3 -3zM364 138l3 3l-9 10l-7 -10l10 -6zM94 151l-4 3l-3 -3l3 -3zM361 161v6l-10 13l-3 -10l10 -13zM335 199l-3 3l-3 -3l3 -3zM354 199v3l-3 4l-3 -7
l3 -3zM103 206v3l-13 16l-3 -7l13 -16zM358 209v6l-4 3l-3 -9l3 -3zM432 222l3 6l-3 10l3 16l-3 3l-10 -29l6 -10zM74 235v12l-6 13l-3 -25h9zM68 264v9l-3 3l-4 -16l4 -3zM338 280l-3 3l-3 -3l3 -4zM425 286v13l-3 3l-6 -16h9zM52 293l9 22l-3 3l-13 -25l3 -4zM90 293v3
l4 9l-7 13l-3 -25l3 -4zM422 309v9h-10v-9h10zM345 351v19h-10v-16l7 -7zM100 354v16l-6 16l-4 -26l7 -9zM403 412v3l-3 3l-4 -6l4 -4zM371 418v16l-4 3l-3 -19l3 -3zM139 441l3 6l-13 7v-17h6zM84 457v22h-10v-19l7 -6zM135 463v10l4 13l-4 3l-6 -26l3 -3zM390 466v4l3 6
l-3 3l-7 -13l4 -3zM432 486l3 22h-10v-9l3 -7l-3 -6l3 -3zM84 489v13h-10v-13h10zM142 492l-3 3l-4 -3l4 -3zM132 502l-3 3l-3 -3l3 -3zM81 505v10l3 9l-13 7l-10 -13l4 -3l6 3l6 -16zM390 508v10l-3 3l-4 -13l4 -3zM132 534v10l-16 9l-3 -12l10 -10zM119 573l-6 6l-7 -6
l10 -3zM123 576l-4 3l-3 -3h7zM77 627v10l-3 3l-6 -9zM306 669l-6 4l-4 -4l7 -3zM116 689l-3 3l-3 -3l3 -4z" />
    <glyph glyph-name="P" unicode="P" horiz-adv-x="480" 
d="M26 0l-6 3v10l10 13l-7 17q3 7 10 3.5t12 1.5l10 10l8 8l3 7h10v7l-3 3l10 40l-7 23l4 24h6v10l-6 10l-4 -7v17l4 20l-4 6l4 4l-4 3h7v13l-3 4l3 3l-7 37h7v10h-7l7 3l3 -3l7 16l-13 10l-4 10l10 37l-6 10l-4 -7v14l10 20l-10 6v14h10v10h-6v33l6 10l4 -3l3 10l-13 3
l-4 7l4 3l-4 7l4 3l-4 23l7 4l-3 6h6v10h-10v17l7 60l-7 40l7 3l-43 30l-4 10l-6 -10h-7l-3 30v-3l3 -3l7 13l-7 10l-3 -3l3 3l3 -3l7 6l3 -3l7 3l13 -3l24 3l3 -3l3 3l4 -3l70 3l20 -6l26 6l7 -6l10 6l3 -3l4 3l13 -10l30 10q13 -3 28 -4.5t28.5 -5t25 -8.5t25.5 -12v-13
l13 -7l3 7h4l10 -17l10 -3q6 -7 11 -15t8.5 -16.5l7 -17t6.5 -18.5l-3 -3l10 -33l-10 3v-10l10 -10l-4 -13l4 -40l-4 -10l-10 -4l14 -10l-10 -26l3 -4l-10 -30h-10l-10 -33l-17 -17h-6l-4 -10h-20v-10l-26 -10l-10 4v-7v7h-10l-4 -10l-40 -7v10h-20v-7l-30 -3l-10 7l-3 -7v7
h-10l-10 -30l3 -4l-3 -10l3 -6l-3 -4l3 -10l-3 -3l3 -47h-13v-6h-3l-4 6l-3 -10l7 -6l-4 -10h7l3 3l7 -3l3 -30v6l-3 4l-3 -20h6v-7l-3 -3l7 -70l-4 -4q4 -6 7 -13t8 -12t12 -8t13 -7l10 -3v-40l-16 -3l-4 3l-3 -3l-7 3l-23 -3l-3 3l-30 -3l-4 3l-13 -3l-3 3l-30 -3l-4 3
l-6 -3l-7 3l-7 -3l-3 3l-7 -3l-13 6v-6v6h-7l-10 -6l-3 6q-3 -3 -5 -4.5t-7 -1.5h-8h-7zM230 6v7h-17v-7l10 -6zM190 20v13l-4 3l-3 -16l3 -4zM233 36l3 4l-16 10v-17h10zM180 43l-4 3l-3 -3l3 -3zM50 46l-4 4l-3 -4l3 -3zM83 46v24l-3 3l-17 -7v-10l10 -3l7 -10zM153 130
v16l-3 10h-10v-16l10 -14zM126 220v13l-3 3l-3 -16l3 -4zM186 240v6h-13l-3 -23h13zM193 250l-3 3l-4 -3l4 -4zM236 353l-3 3l-3 -3l3 -3zM246 370l4 6l-7 7l-7 -17h7zM186 383l-3 3l-3 -3l3 -3zM333 383l-13 3l-4 -3l14 -3zM193 386l3 7l-10 10l-3 -17h10zM323 390v3
l-10 17l-3 -10l10 -14zM276 393v13v-6h10v10l4 -14l20 54l6 3l-3 3l10 14l-3 6l6 10l-3 30q3 4 3 10.5v15t3.5 11.5t6.5 10l-10 17l4 3l-7 10h7v7l-4 3l4 10l-7 17l7 16l-4 4l-3 -7h-3l-7 13l3 7l-3 3l-7 -6q4 6 -1 11t-7 8.5t-7 8.5l-8 8l-37 20l-3 -3l-3 3l-4 -6l-26 -24
l-7 -86l3 -40l-10 -7l10 -3v-10h-10v-20l10 -4v-13l-3 -3q3 -14 3 -29v-30v-28t7 -27h7l26 7l10 -3zM133 410v23l-7 7l-6 -17l3 -13h10zM83 420v3l-3 3l-4 -6l4 -4zM310 430l-4 3l-3 -3l3 -4zM423 436l-3 4l-4 -4l4 -3zM190 443l16 43l-3 14h-10v-7l3 -23l-13 -10l-7 -17
l10 -3zM430 446l-4 4l-3 -4l3 -3zM433 456l-3 4l-4 -4l4 -3zM450 466l-4 4l-3 -4l3 -3zM350 486l-4 4l-3 -4l3 -3zM433 496v7l7 13h-14l-6 -10l3 -10h10zM456 530v6l4 17l-14 7v-30h10zM453 596l-3 4l-4 -4l4 -3zM86 663v10h-10v-10h10z" />
    <glyph glyph-name="Q" unicode="Q" horiz-adv-x="514" 
d="M365 -100v6h-9l-4 -3l-9 3l-7 -3l-16 16l-13 6l-16 39l4 6l-4 7l4 3l-7 3v10h-6l-10 12h-13l-9 -3l3 3l-6 4l-17 -7l-9 3l-3 -3l-10 3l-3 7l-3 -3l-10 3l3 3l-13 3l7 3l-10 4l-6 -4l-7 7l-6 -3l-3 9h-7v7l-13 3l4 13l-13 13l-3 -7l-20 19l4 13l-10 3v7l-10 6l3 4l-16 22
l4 3l-7 7h7v19h-16v3l3 6l-10 26l3 13l-3 3l3 7l-9 16l6 6l-6 3l-7 -3l-3 3h7v10h-7v6l7 7l-4 16h-6l3 3l-3 13l6 3l-9 3l-3 16l6 26l-6 19h3l3 -3l6 6l-12 4v3l6 29l-6 25l6 7l-3 3l6 10l-3 12l3 4l-3 16l16 35l-6 6l3 7l13 10l-7 22l13 6l-3 7l6 19l-3 6l10 13h9v20l-3 3
l-3 -3l6 9l10 7l-3 3l16 16l13 16l3 -3l6 9l7 4l-7 3l13 19h13l6 -3l3 3l-3 6l3 4l-3 3l29 16l13 -7v10l13 3l13 -6q3 6 8 6h9.5h9.5h11q10 -3 21 -3t19 -5t18 -8t19 -6l-3 -3l6 -7l7 3l3 -3l-3 -3l9 -10l7 4l16 -26l10 -3l25 -45l-6 -10q3 -3 9.5 -4.5t8 -8t3 -11.5
t4.5 -11l-3 -13h7l6 -16l-3 -3q6 -10 8 -19.5t3.5 -21t3 -22.5t4.5 -21l-3 -3l3 -3l-3 -3l6 -39l-6 -3l6 -6l-3 -7l3 -22v6l-3 3l-9 -29l3 -9l9 -3v-16l-6 -29l3 -20l-3 4l-6 -13l6 -3v-4l-10 -45l4 -3l-13 -51h-7v-7l3 -3l-19 -6v-10l-6 3l-3 -3l6 -16l13 16h3l-6 -16
l-16 -6l9 -3v-4l-6 -9l-3 3l-10 -29h-6l-13 -26l-10 -3l-10 3v-6l4 -10l-7 -16l3 -3l-6 -3l6 -3l10 -29l16 -3l3 3v-3l-6 -4l13 -3l3 3l-3 4l6 12l10 4v6l6 3l-6 3l-3 7l6 19h6l7 -6l9 9l10 -3l3 -13l10 -6l-3 -7h-7v-19l4 -13l-4 -6l-6 -3l3 -13l-10 -19l-16 -4v-6l4 -6
l-32 -29l-26 -3l-3 3zM343 -91l-3 3l-4 -3l4 -3zM307 -46l-6 3l-3 -3l6 -3zM311 -43l-4 3l-3 -3h7zM330 -40v17h-10v-17h10zM346 -14l-3 3l-3 -3l3 -3zM349 -11l-3 4l-3 -4h6zM445 -11l4 4l-10 3v-7l3 -3zM352 -7l4 16l-4 3l-6 -19h6zM429 -1l-3 3l-3 -3l3 -3zM163 28l-3 3
l-3 -3l3 -3zM291 34v20l-3 9h-9v-16l9 -16zM186 37v4l-4 3l-3 -7l3 -3zM186 44v16l3 3l-13 3v-22h10zM272 63l7 13h6v19h6v10h-6l-6 22l3 13h6v13h-6l-13 16l-3 -3l-13 19l-3 -6l-7 3l-9 -3l-26 -58q3 -6 4.5 -14.5t3.5 -14.5t6.5 -12.5t11.5 -13.5l9 -6l-3 -3l10 -3z
M295 70v9h-7l-3 -3l6 -10zM340 66v7l3 9l-7 10l-6 -16l3 -3l-3 -3zM121 79v3l-3 4l-3 -7l3 -3zM182 89v42l-3 3q-3 -3 -3 -9.5v-13t-3.5 -11.5t-3.5 -11h13zM192 105v3l-3 3l-3 -6l3 -3zM372 115v3l-4 3l-3 -6l3 -4zM192 118l-3 3l-3 -3l3 -3zM288 131l-3 3l-3 -3l3 -4z
M173 166v3l-4 3l-3 -6l3 -3zM423 166l-3 3l-3 -3l3 -3zM426 169l-3 3l-3 -3h6zM436 169l-3 3l-4 -3l4 -3zM169 175v17l-3 3l-3 -23l3 -3zM269 172v7l-3 3l3 3l-10 3v-16h10zM192 192v6l-6 6h6v13h10l12 19l23 10v-6h22v6h26l6 -3l-3 -3l36 -16l3 -10h9l7 16l-3 6q3 4 4.5 7
t1.5 8v8t3 6l-6 4l6 3l-6 3v10l9 19l-3 3l3 13h-6v16h6v16l4 -3l3 13l-13 9v3h6v7l-3 6l3 3l-6 13h6v10q-3 6 -4.5 12.5t-3 14.5t-1.5 16t-3 15l6 13l-6 9l3 3q-3 4 -5 7t-2 8v9.5v7.5l4 -3l3 7l-10 19l3 6l-6 20l10 9l-10 13l3 3l-9 7v19l3 3l-7 29l-9 3l-4 -3l-6 26l-3 -4
l-7 4v6l-19 3l-3 10l-10 3v-6h-22l-13 -13l-16 -13l3 -3q-9 -10 -12.5 -19.5t-6.5 -20.5t-4.5 -22.5t-8.5 -21.5l-6 -3l6 -3v-13h-6v-9l3 -10l-7 -35l-6 -4l6 -9l-3 -26l-6 -3l6 -7l-13 -3v-9l4 -4l3 7l3 -3l-6 -4l6 -9l-6 -3l3 -4l-3 -12l6 -10l-3 -3l3 -7l-3 -19l-10 -6
v-10h7l6 -38l-3 -7l13 -128zM67 204l-3 4l-4 -4l4 -3zM211 230l-3 3l-3 -3l3 -3zM439 233v10h-10v-10h10zM375 246l6 10l-13 6v-16l4 -3zM426 246v10l3 13h-12l-4 -23h13zM462 281v13l-4 3l-6 -16h10zM89 288l13 16l-6 9l-13 -25l3 -3zM381 301v6l3 29l-3 3l-9 -38h9z
M458 304v9h-9v-9h9zM44 323l-3 3l-3 -3l3 -3zM157 326v7l-13 19l-7 -10l16 -19zM426 326v10l-9 16l-4 -6l10 -23zM356 371l-4 3l-3 -3l3 -3zM426 394v13l-6 6l-3 -19h9zM378 429l-6 10l-4 -13h7zM413 435v4l4 3l-4 13l4 12l-20 10l-6 -10l10 -6l9 -29zM372 442v6l-4 3
l-3 -12l3 -4zM150 445l3 6l-6 7l-6 -16h6zM76 448v32l-3 4l-6 -26l6 -13zM375 451l-3 4l-4 -4l4 -3zM417 471l-4 3l-3 -3l3 -4zM163 532l3 9h-6l-7 -6l7 -7zM157 567l-4 3l4 3l-16 4v-7l12 -6zM115 570v3l-3 4l-3 -7l3 -3zM160 570l-3 3l-4 -3h7zM449 577l-4 3l-3 -3l3 -4z
M115 580v9l-3 4l-3 -13l3 -3zM237 702l-3 3l-4 -3l4 -3zM259 708l-3 3l-3 -3l3 -3z" />
    <glyph glyph-name="R" unicode="R" horiz-adv-x="514" 
d="M496 0l-10 3l-16 -3l-24 3l-3 -3l-40 3v7l-20 6l-7 -13l-3 3l-3 -6h-20v10l-24 -10h-8h-10t-8.5 1.5t-6.5 4.5l-3 -3l-10 7l-4 -10l-10 3l4 20l-4 7v13l34 13l6 -3l4 3l-4 7l17 10l-7 3l7 54l-3 3v37h3l-3 -10l6 -14l7 7l-13 40v13.5v11.5v11.5t6 10.5v6h-6l3 4l-3 3
l3 40l-3 3v4l6 3l-6 3v13.5v13.5v13.5t6 9.5l-10 14l-16 -7l-4 3l-3 -3l3 -7l-6 -3l10 -3v-4h-10l-4 -10l4 -3l-4 3l-10 -6l7 -10v-17l-7 -3l-6 -30l3 -4l-3 -3l3 -3v-4h-7v-6h-10l7 -20l-7 -37l-10 -7l4 -3l-4 -3l4 -4v-3l-7 -3l3 -4l-3 -3l3 -3v-7l-6 10h-7v-10h7l-4 -7
l4 -3l-4 -7l4 -3l-7 -10l3 -3l-20 -70l-16 -4l6 -13v-3l-3 3l-3 -3l3 -7l-7 -3l7 -10l-3 -7l-14 3l-20 -6l-86 3l-7 10l-3 -10l-7 -3l-23 3l3 3l-3 4v33l33 27l13 13v13l7 4l-3 3l6 27l14 13l-7 7v3l10 7l-3 13l13 43l3 -3l7 10l-3 10l6 13l-3 4q3 6 3 13t5 12t5 11.5
t4 13.5l3 -4l3 4l-3 16l13 54l7 3q-7 10 -17 15t-20 13.5t-20 16.5t-16 18l3 4l-10 6q-7 10 -12 22t-8 23.5t-5 23t-5 25.5q0 6 1.5 13t1.5 13.5v13t7 10.5l-3 10l3 3l-3 10l13 43h7l13 30h7l3 10q3 7 10 10.5t10 8.5t10 8t13 0l4 10l3 -3l47 20h10l3 -7l10 3v7l7 -3l3 3
l17 -7l6 7l-3 3h13.5h13h13.5t10 -6l17 6l20 -3l10 3h3l3 -6l4 6v-6l13 -4l20 10l20 -3l3 3l7 -3l3 3l34 -6l10 6h16l7 -16l-3 -10l3 -7q-7 -3 -8.5 -11.5t-8 -8.5t-13.5 -3.5t-13 -3.5q0 -6 -5 -13t-5 -13.5v-15t-4 -14.5l4 -4v-26h-7v-17h7l-4 -7l4 -3l-4 -3l4 -4l-10 -3
l-7 -23v-10l13 -7l-6 -7l3 -10l3 7h4l-7 -13l3 -4l-3 -13l3 -7l-6 -3l3 -3l-3 -4l3 -3l-3 -13l3 -7l-3 -7l3 -20h7h-14l-3 -10l3 -13h7l7 -13l-14 -14l7 -3l-3 -3l3 -10h7l-7 -44l7 -10l-4 -3l4 -3l-7 -27l7 -10l-4 -7l4 -3v-70h-7l7 -17v-16h-10l-7 -17l17 -30l-4 -3l4 -30
h10l-4 -4l24 -16l6 -14l7 10h3v-6l10 3l-3 -37h-7v-6zM450 3l3 -3l10 3l-3 3zM106 0h10v10h-10v-10zM363 6l3 -3l4 3l-4 4zM136 6l4 -3l3 3l-3 7l-4 -3v-4zM123 10l3 -4l4 10l3 -3l10 10v7l-10 3l-13 -3l3 -4l-3 -3zM356 53l4 -3l6 6l-6 24l-4 -4v-23zM216 70l4 -4l3 4l-3 3
zM213 83l3 -3l7 13l-3 3h-7v-13zM400 86l3 -3l3 3l-3 40l-7 -6l4 -20v-14zM223 110l3 -4l4 4l-4 6l-3 -3v-3zM400 130l3 -4l3 4l-3 3zM193 130l3 -4l10 7l-6 10l-10 -10zM126 143l4 -3l3 3l-3 3zM196 153l4 -3l10 13l-4 10l-10 -13v-7zM203 193l3 -3l4 3l-4 7l-3 -4v-3z
M326 200h10v10h-10v-10zM200 203l3 -3l3 3l-3 10l-3 -3v-7zM243 210l3 -4l10 24l-6 10l-10 -10l3 -14v-6zM403 226l3 -3l4 3l-4 27h-10zM226 300h14v10h-14v-10zM323 326l3 -3l10 3l-3 4h7v16l-10 4zM213 350l3 -4l7 7l-7 17l-3 -4v-16zM420 353l3 -3l3 3l-3 20l-7 -7l4 -3
v-10zM156 410l4 -4l6 14l-3 6l-10 -10zM256 413h20v7l24 -4l23 7l-3 17v14.5v15v13.5t6 13l-6 7l3 103l-3 4l3 3l-3 3l3 50l-3 17l-4 -3l-6 13l-30 17l-4 6l-6 -10l-4 7l-3 -7l-3 4l-10 -4l6 -3h-20v-7l-10 -10l-3 4l-20 -57l3 -3l-6 -27l3 -3h-3l-4 6l-6 -13v-10h6l-6 -3
l6 -14v-6l-13 -10l3 -4l-3 -3l17 -7l-4 -3l10 -37l-3 -3l10 -13l-10 -10l20 -10l13 -24l4 4l-4 -4l20 -13v-10zM186 423l4 -3l3 3l-3 17l-7 -10zM426 443l4 -3h6v16l-13 -6zM106 443l4 -3l3 3l-3 3zM220 453l3 -3l3 3l-3 3zM370 456h10v10.5t-2 8.5t-5 8l-7 7l-3 -4l7 -23
v-7zM430 466l3 -3l3 3l-6 27l-4 -3l4 -14v-10zM153 473l3 -3l4 3l-4 13l-3 -3v-10zM123 490l3 -4l4 4l-4 6l4 7v10h-10zM423 496l3 -3l4 3l-4 4zM433 506l3 -3l4 3l-4 4zM173 516l3 -3l4 3l-4 4zM176 523l4 -7l3 4l-3 6zM143 526l3 -3l7 7l-3 3h-7v-7zM366 530l4 -4l3 4v10
h-10zM443 583l3 -3l4 3l-4 3zM240 706l3 -3l7 3l-4 4zM473 746l3 -3l4 3l-4 4z" />
    <glyph glyph-name="S" unicode="S" horiz-adv-x="433" 
d="M216 0l-6 6l-3 -3v6q-10 0 -18 1.5t-16 6.5t-16 8.5t-15 9.5l-3 10l-20 6q-6 -3 -9.5 -9.5t-5 -14.5t-8 -13t-12.5 -8l-3 3l-4 -3l-3 6l-19 -6l-3 3l6 13l-3 3l6 7q-6 3 -7.5 8t-1.5 11.5v11v11.5l6 16l-6 36l6 26l-6 29l3 3l-3 13l6 13q-3 3 -4.5 8t-1.5 9.5v9.5v12
l6 16l-6 32l9 7l-3 3l6 3l10 -3v-7h7l9 7l4 -10l-4 -3l10 -36l-10 -13l13 -6l-3 -10h6l13 -42l-3 -3l7 -13l-4 -3l4 -4l-4 -9l13 -3l7 -26l-7 -7l13 -6l4 3l6 -10l-3 -3l9 -3l7 -16l10 -4l-7 -3l7 -3v-13h6l10 3l35 -16l4 3l6 -6l16 3v6l29 7l10 16l3 -3l13 3l3 10l-3 3l3 3
l-6 4l10 12l-4 4l13 6l-6 3q3 7 3 15t5 14.5t11.5 13t3.5 16.5l-10 3l3 6l-3 4l-3 -4l-13 26l3 10h-7l-9 19l3 20h-13l-3 -4l-13 20l-3 -3l-4 19l-9 -3l-4 10l-3 -10v10h-11t-8 4.5t-8 6t-8 5.5v6l-13 3v10l-20 3l-9 16l-10 -3l-7 3l7 4l-23 9l-26 26v20l-19 3l-6 35h-10v7
l-10 3l-10 26l4 13h-7v32l3 13l-6 13l6 3l-6 4v3l6 10l-3 6h7v13h-10v13l3 13h7v10l-4 3l7 6l-3 7l19 26l10 3v16h-7l13 10l-3 3l26 23l10 -4v10l25 10l23 -7q3 7 8 7t8.5 1.5t9.5 1.5h10l16 -6l13 3l22 -10v-6l30 -13l-4 -4l10 -12l3 3l13 -3l3 3l-3 6l10 7l-7 3l13 3l-6 7
l6 3l-3 10l3 3l10 -3l7 6l-4 3h20l3 -22l-3 -4l3 -6l-10 -3v-7l3 -3l4 3l6 -58l-3 -6l3 -30l-3 -12l3 -4l-3 -22l6 -7l-6 -3l6 -10l-3 -6l3 -39l-3 -3l3 -36h-6v-6h-13l-3 3l-13 -3l-3 6l6 3l-3 4l3 3l-3 13h-7v3l4 6l-17 49l4 3l-4 3l4 4l-7 3l-3 10h3l3 -10l7 13l-16 3
l-7 16h7v20h-7l-3 -4v7h-6l-7 26l-16 9l-3 20h-7h-6.5t-3.5 5t-3 5l3 3l-12 6l-13 -3l-20 10l-3 -3l-3 3q-7 -7 -15 -8.5t-14.5 -4.5t-11.5 -9.5t-11 -13.5v7h-6l-4 -4l4 -3l-4 -3l7 -3l-23 -58l3 -20l-6 -13l13 -6q0 -10 3 -15t6.5 -11.5t8 -13t8.5 -12.5l42 -32l3 3
l26 -16v-7l32 -13v-6l13 -3l-3 -4l6 -3l4 3l51 -42l4 -16l3 7q10 -10 18 -23t12.5 -26t9.5 -26t8 -26l-3 -9l3 -4l4 4l3 -91l-7 -16l4 -23l-23 -64l-10 -7l3 -3l-3 -3l3 -4l-9 -13h-13v-12l-3 3l-13 -16l-4 3l-3 -13l-13 -3l3 -4l-16 -6l-3 3l-3 -6l-29 -3l-10 6l-3 6l-3 -6
h-4l-3 10l-6 -16h-4v9h-9v-9h-4zM294 25v7h-6l-4 -3l7 -7zM165 32v13l-4 3l-6 -16h10zM310 35l-3 3l-3 -3l3 -3zM313 38l-3 4l-3 -4h6zM333 42v12h-10v-12h10zM136 132l-4 3l-3 -3l3 -3zM119 135l4 10h-10v3l6 13l-3 3l-3 -6l-13 -16l3 -3l3 3l10 -10zM90 142v19l-3 3
l-3 -22l3 -3zM394 148l-3 4l-3 -4l3 -3zM368 152v3l-3 3l-3 -6l3 -4zM116 177l-3 4l-3 -4l3 -3zM297 268l-3 3l-3 -3l3 -3zM304 271v10h-10v-10h10zM365 284v16h-6l-7 -9l10 -10zM320 284v7l-3 16h-13v-10l3 -13h13zM281 320v9l-6 7l-4 -16h10zM200 342l-3 4l-3 -4l3 -3z
M362 339v16l-10 23l-3 -29l3 -10h10zM284 342v10h-9v-10h9zM310 355l7 23l-16 6v-19l6 -13zM132 407l-6 3l-3 -3l6 -3zM265 417v22l-3 4l-7 -26h10zM87 443v3l-3 3zM246 462l-4 3l-3 -3l3 -3zM126 485l3 22h-10v-22l4 -4zM74 491v16l-6 10l-7 -7l10 -22zM68 520l-4 3l-3 -3
l3 -3zM77 530l-3 3l-3 -3l3 -3zM336 569l-3 3l-3 -3l3 -4zM74 630v7l-3 3l-3 -10l3 -3zM223 711l-10 3l-3 -3l10 -3zM372 753l-4 3l-3 -3l3 -3z" />
    <glyph glyph-name="T" unicode="T" horiz-adv-x="798" 
d="M766 343l-10 -40l4 -17l-4 -3l7 -3v-13h-3l-4 3l-6 -3l-7 3l-3 -3l-10 3v-10h-3l-4 7l4 10h-7v9h-7v7l7 3l-3 4l3 13h-20l-10 -3l-3 6l-3 -3l-10 3l3 4l-13 3l-20 -10v7h-23v-7h-40v13h-10l-3 7l-7 -17h7l3 4v-4l-6 -3l-4 3l-26 -3l-10 3l-36 -3l-10 3l-33 -3l-7 3l-3 -3
l-4 3l-33 -3v7l-27 3l-10 -10l-30 10l-13 -3v9h-7l-6 -13h-3l-30 7l-3 -3l3 -4l-7 -3l-6 10l-14 3l-26 -10l-20 7l-3 -3l-3 3l-4 -7l4 -3h-34l-9 7q-7 -7 -17 -7h-19.5h-19.5t-16 -7l-17 7l-16 -10l13 -3l7 3v-7l-7 -13l7 -3l3 -20l-3 -3l23 -27v-6l16 -10l3 -13l26 -7v-7
h10l20 -16l3 3l13 -6l-6 -7l36 -13l3 3l30 -13v-7h7l-4 -10l-6 4l-4 -4l4 -3l-7 -3l7 -4v-13l-4 -3v6l4 4l-10 3v-13l-60 20l-6 -4l-79 23v7l-9 3l-14 -3l-3 10l-30 17l-3 9l-10 4v43l7 6l-7 37l3 16l-3 3l3 4l-3 3l3 3l-3 4l3 16l-3 20l7 3l-4 14l4 19h-7v8l3 3l-3 14l3 6
l-3 3l3 7l7 3l-7 4l-3 39l3 4l-3 43l7 23l-4 3l-3 -3l3 3l-3 3l10 20l-10 27l7 19l6 -3l50 20l6 -3l10 6l7 -6l3 10l3 -4l23 10v-6h6l10 3v6l60 20l10 -3v7l19 3l10 -36l-3 -7h-10l-3 3l-27 -20l-3 4l-3 -7h-10v-7l-20 4l-10 -4v-6v-6.5t-5 -3.5t-5 -3l-3 3l-23 -17l-13 4
v-10l3 -7l-6 -3l-3 3l-17 -10l-6 -16h-7v-7l4 -6l-14 -27l7 -6h-7v-7l-13 -10l-3 3l-3 -6l13 -7v7l16 3q4 -7 8.5 -8.5t9.5 -3t11.5 -1.5h12.5v-10h10v6l40 4l6 -4l4 4l6 -4l4 4l16 -4l23 4l4 -4l3 4l3 -4l3 4l4 -4l3 4l7 -7q3 3 8 5t11.5 2h11.5h12l3 -4l46 4l4 -4l3 4
l20 -10q3 6 8 8t12 2h13.5h13.5l3 -7l4 3l6 -3q3 7 8 7h10h10h12l20 -4l36 4v-10h10v6l6 -9l7 6l-3 3l46 4l3 -4l20 4l3 -4q14 4 27 4h26.5t25 5t21.5 11l3 17l-3 3l3 7l7 -4l19 10l7 -3l10 3l3 -105l-3 -4zM763 353l-3 -7l3 -3l3 6zM736 406l-3 -19l3 -4l4 20zM730 406
l-3 -6l3 -3l3 6zM727 349l-7 -23l10 -13l6 16zM700 343l-13 -27l3 -3l17 20zM568 349h-10v-10h10v10zM538 383l-3 -21l3 -3l3 21zM535 359l-3 -6l3 -4l3 7zM489 376l-10 -40h10l3 36zM462 403l-3 3l-7 -9l10 -10l3 13zM459 413l-3 -3l3 -4l3 4zM449 410l-7 3l-3 -3l10 -7
l3 3zM436 326l-4 -3l4 -3l3 3zM416 426l-3 -6l3 -4l3 7zM413 413l-7 -13l3 -3l7 13zM362 339l-10 4v-10l3 -10h10v13zM332 403l-3 3l-7 -9l14 -7v10zM332 383h-6l-4 -3l7 -11zM326 346l-7 -10l10 -3v10zM279 393l-3 -6l3 -4l4 7zM276 413h-10v-10h10v10zM250 383l-7 7
l-7 -10l17 -21l3 10zM220 644h-7l-6 -6l10 -7zM194 349l-14 -26l4 -3l16 19zM23 426l-4 -3l4 -3l3 3z" />
    <glyph glyph-name="U" unicode="U" horiz-adv-x="804" 
d="M772 380h-3l-6 -24h6v-13l-6 -16l-10 -4l3 -3l-3 -16h7v-7h-7l-3 -16l3 3l-13 4v-10l7 -7l-7 -9l-19 -4l-7 -9l-6 -10l3 -7h-13v-6h-3l-4 3l-3 -6l-6 -4l-7 4l-26 -13v-7h-19l-4 3l-6 -3v7h-10v-7l-6 3l-13 -9l-7 6l-3 -3l-13 6l-10 -3v-6l-3 3l-13 -3l-16 6l-4 -3l-3 3
l-3 -6l-3 6l-20 -10l-10 4v9h-13l-9 -3l-4 -10l-9 4v6l-10 3l-16 -3v-6l-26 -7l-14 7l-29 -7l-4 3l-9 -3l-7 3l-32 -3l-10 3l-3 -3l-7 3l-16 -3l-10 3l-3 -3l-13 3l-33 -3l-6 3l-3 7l-4 -3l-3 6l-3 -6l-20 -7l-3 16h-15v-9l-3 3l-17 -7l-19 10l-3 -3l-4 3l-19 -13l-7 3
l-3 -3l3 -10l-3 4l-13 -42h-42l-3 3l3 6l-3 7l3 3l-3 23l3 9l-3 26l3 4l-3 29l3 19l-3 13l6 7l-6 6l6 7l-6 3l3 10l-3 19l3 13l-3 17l45 3l10 -42h6v-7l-3 -3l7 -3l13 6l42 -6l3 3l22 -7v7h39l23 -3l19 3l3 -3l10 3l16 -3l23 3l3 -3l13 3l23 -7v7l3 -3l30 3v-7h22v7h17l4 -3
l71 3l23 -7v7h42l7 -3l9 3l10 -7l29 10l4 -3l6 3l3 -3l4 3l3 -3l3 3l3 -3l4 6q9 4 17.5 5.5t16.5 6.5t14.5 9.5t12.5 11.5l4 -13h6l10 10l-3 3l9 3l-16 7l-3 -4v4l13 49q-7 4 -3.5 12t-3 11t-6.5 9.5t-3 10.5l-10 3l-3 13l-36 16l-3 10l-4 -7v7l-65 10v6h-6l-23 -3l-6 10
h-10l-20 -7l-19 7l-33 -4l-16 13l-6 -13h-44l-3 7l-3 -7l-13 -3l-32 7q-4 -4 -7 -5.5t-6.5 -1.5h-8h-8.5h4l3 3l-23 4v-7h-23l-19 3l-33 -3l-6 3l-42 -3v7l-22 3l-3 -3l3 -7h-20l-16 7l-19 -10l-7 6l-3 -9h-10l-6 6l-4 -10l4 -3l-4 -3l7 -3l-3 -4l3 -3l-7 -3l4 -3h-10v-10h6
v-3l-3 3l-3 -10h6v-6l-3 -7l-10 3l-3 -3l-3 3l-10 -3l3 3l-6 13h-10l-6 -3v13l3 3l-3 17l6 13q-3 3 -4.5 9.5t-1.5 13v13v12.5h9v7l-9 6v33q3 6 6 7.5t9.5 1.5h11.5h12l3 -9l3 6l3 -6l-3 -4l13 -26l36 -16l119 3l3 -3l13 3l4 -3l3 3l3 -3l26 3l13 -6l23 6l39 -3l13 3l16 -6
l30 6l23 -6l3 3l3 -3l4 6h74q17 -3 33 -3t32.5 -1.5t32.5 -3t29 -11.5l3 3l46 -19v-7l23 -9l6 -17l13 -3l26 -52l-3 -6q6 -4 6 -12t1.5 -14.5t1.5 -13v-12.5zM734 415h-20l-3 -3l19 -13l7 13zM717 349h-3l-3 -3l6 -3l4 3zM711 467h-7l-6 -9l6 -7zM704 513l-3 -3l3 -4l4 4z
M619 258v5l-3 5l-5 -10l5 -3zM570 307l-3 -2l8 -11l9 10l-11 6zM591 206l-4 -3l4 -3l3 3zM572 283l-1 -6l11 -13l3 9l-10 15zM574 244v10h-11v-10h11zM525 291v-3l4 -3l3 6l-3 4zM521 281v-7l4 -3l4 10l-4 4zM514 216l-1 6l3 15l-11 8l-7 -10l13 -22zM495 234l-1 7l2 14
l-6 -1l-5 -22zM461 314l-4 -4l4 -3l3 3zM418 259v-10l14 2l-1 10zM415 314h-6l-4 -4l7 -6zM370 237v3l10 18l-6 13l-10 3v-37l3 -3zM401 258v21h-11v-18l8 -7zM379 526l-4 -3l4 -4l3 4zM327 526l-4 -3l4 -4l3 4zM298 315l-1 -7l-4 -20l3 -3q3 3 7.5 6t4.5 7t0.5 9t0.5 8h-11
zM239 558l-3 3l-4 -9h7l3 3zM180 228l-3 -11l-4 -1l4 -8l12 14l-3 7zM154 226l-3 -7l3 -3l4 7zM48 158l-3 -4l3 -3l3 3zM25 294l-3 -3l3 -3l4 3z" />
    <glyph glyph-name="V" unicode="V" horiz-adv-x="805" 
d="M773 364l-6 -7l-6 7l-13 -3v-7l-20 -8l-6 9l-13 3l-6 -16l-42 -12l-7 3l-3 -3l-6 3q-4 -7 -10 -7h-11t-10 -3t-11 -3v-7l-16 -3l-4 3l-3 -6h-3l-10 3l-3 -3l-6 3l-3 -3l3 -3h-7l-19 3l-3 -3l16 -3q-13 0 -21 -5t-19.5 -8t-22.5 -3t-21 -3l-3 3l-3 -3l-4 3l-12 -3v-6l3 -3
h-3v6h-7l-26 -13l-3 3l-17 -6l-3 3l-8 -10l-16 -3l-3 3l-19 -9l-7 3l-3 -3v6h-6l-4 -3l4 -3l-13 9l-7 -6l4 -3l-23 -10l-3 4l-3 -3l-4 3l-3 -9l-3 6l-19 -13l-4 3l-16 -3v-6l-6 9l-7 -12l-13 -4l-16 7l-9 -3v-7l-51 -16l-3 3l-3 -3l-3 3l-4 -6l-35 -7v-6l-3 3l-4 -13l-12 3
l-4 -19l-16 -2l-3 3l-6 -3l-13 3v7l3 6l-3 16l3 10h6l4 9l-13 7v26l9 6v16h-6l3 3l-5 23l3 3l-3 20l3 3l-3 29l3 6l-3 10l38 2l10 -26l29 -9l10 3l3 -7l6 10q13 0 24.5 5t24 5t25 3t22.5 10l13 -4v7l77 18l3 -3q20 10 39 15t40.5 10t42.5 10t40 11l20 -10l9 10l-25 10v6
l-33 3l-3 7l-13 -3l-3 3l-3 -3q-3 6 -12 6t-15 1.5t-12.5 1.5t-9.5 7l-7 -4l-3 7l-3 -3l-36 6l3 7l-12 6v-6l-4 3l-9 -3l-16 7l-4 -3q-6 3 -12.5 6t-13 5t-13 3.5t-12.5 4.5l-7 -3l-19 6l-3 -3l-56 13v6h-10l-3 -3l-6 7l-33 -7l-3 7l-17 -33l-13 1v-6l10 -7l-7 -17l-19 1
l-16 7l-3 -3v6l6 26l-3 3l-3 -10v10l4 19l-3 20l3 3l-3 10l3 3l-3 64l3 3l3 -3l29 2q0 -6 5 -11t11.5 -8t11 -8t8.5 -11v-7h12l10 4v-7h7l6 3l34 -13l4 4l13 -4l-13 -6l22 -6l10 6q9 -3 20.5 -4.5t21 -5t21 -5t17.5 -11.5l10 3l35 -7v-6q20 3 37.5 -2t34 -9.5t34 -8
t33.5 -13.5l10 4l51 -17l3 3l116 -32l3 3q10 -7 19.5 -8.5t19.5 -3t21 -5t15 -12.5l3 6h6l3 -3l7 3l22 -7h-6v-10l10 -3l3 3l6 -13l-3 -10h6l-3 -4zM738 357l-3 -2l3 -4l3 3zM735 362l-3 -4l3 -3v7zM720 384l-3 -14l12 -2l2 14zM693 349l-23 6v-9l23 -4l3 4zM664 365l-3 -3
l3 -4l3 4zM614 379l3 -33l3 -3l12 21l-4 16l-11 2zM616 416v-4l4 -3l3 7l-4 3zM634 344l1 -10l3 -2l2 13l-3 3zM588 342v10l3 4l-7 3l-4 -3v6h-9v-10l14 -13zM591 365l-4 4l-3 -4l4 -3zM498 326l-1 -3l3 -4l5 6l-2 4zM500 315l-1 -3l3 -4l6 9l-4 5zM487 349v6l-3 17h-14v-9
l3 -14h14zM480 473h-12l-4 -3l20 -3l3 3zM443 335l-2 -11l6 -7l7 16zM432 334h-10v-10h10v10zM401 372l-4 -24l18 -6l-3 22l-7 11zM368 463v6l-7 8l-4 -11l7 -6zM339 322l-2 -23l3 -4l9 27h-10zM361 483v3l-4 4l-3 -7l3 -3zM336 350v17l-3 3l-8 -20h11zM284 506l-2 -11l2 -3
l9 8l-5 8zM238 507v-4l-5 -16l10 -1l2 21l-3 3zM222 243v37l-3 3l-8 -32l8 -11zM125 206l-3 -3l3 -4l3 4zM67 183l-3 -3l3 -3l3 3zM21 598l-3 -4l3 -3l3 3z" />
    <glyph glyph-name="W" unicode="W" horiz-adv-x="476" 
d="M112 4l1 6l-20 5l-3 29h6l1 13h-6l-2 13v-3l3 -4l10 16l-3 10l4 19l-9 1l-1 -10l-1 19l-7 1l5 12l-6 1l-2 16l3 3l-2 7l3 3l-6 13l5 13h-7l1 19l3 7l-3 3l4 3l-6 4l7 2l-2 13l-6 1v42l4 7l-9 18l3 4l-7 24l3 -2l3 -2l4 12l-9 8l4 1l-7 5l-3 39l3 6l-5 37l3 2l-4 4l4 5
l-8 24l3 3l-5 20l4 3l-3 6l4 7q-6 3 -5.5 9.5t-0.5 11.5t-1 10t1 12l7 11l-2 10l-10 4l-1 29l4 7l6 -1v6l-7 14l3 6l-8 18l-4 -4l1 7l3 3l-7 35l4 13h-7v7l-6 1l4 9l-20 8l10 15l-5 11l3 9l16 -2l13 -7l13 2l3 -3q11 9 25 6t27 -4t25.5 -2t25.5 -2v-6l12 -2l1 6h7l18 -7
l22 5l7 -4l20 2l25 -9l1 6l6 -1l38 -5l11 3l1 -13h-7l-1 -9l6 -13q-8 -7 -14.5 -11t-7 -12l-1 -16t-1.5 -19l6 -38l-3 -9q8 -24 9.5 -48t2.5 -48.5t3 -49t9 -47.5l-4 -3l10 -4l11 22l-2 6l10 7l-3 9l3 3l-5 7l-5 -7l2 17l5 19l9 -4v9l-2 5l-4 -4l1 4l4 11l-3 5l3 2l-3 4l7 6
l-3 3l4 3l-2 3l3 7l7 2l-2 6l6 -1v13l-10 2l13 1l-5 8l3 2l-6 4l3 3l-2 4l6 -1l8 38l-2 7q4 3 6.5 7.5t5.5 7.5t3.5 9.5t1.5 9.5l-10 1l10 2l-2 10l-24 9l-5 9l-3 -2l-4 11l-15 4l1 13l13 5l-3 3l4 4l-5 3v3l71 -2l2 -3l4 2l-1 -6l16 -1v6l2 -9l5 9l22 -3v-38l-9 -2l-13 4
l-1 -9l-10 -3l4 -3q-3 -4 -6.5 -8t-7.5 -9t-4 -10t-1 -11l1 -19l-3 3l-4 -15l2 -10l-4 -10l-6 -4l6 -2l-1 -8l-6 -19l2 -3l-4 -23l-10 1l-2 -6l5 -16l-7 -19l2 -4l-11 -12l7 -4v-3l-17 -46l3 -8l-4 -2l3 -11l-7 -12l2 -9h-6l-9 -24l3 -4l-3 -2l6 -14l-28 -95l3 -16l-13 -37
l3 -5l-7 -8l2 -13l-16 -44l1 -7l-6 -6l6 -3l-1 -7l-10 -27l3 -5l-20 -74l-3 5l-29 -4l-6 13l3 3l-1 9l7 4l-10 4l-1 16l3 6l-3 4l4 2l-3 4l3 6l-2 4l3 2l-6 4l1 7l6 21l-2 11h-8l-1 10l12 18q-6 4 -6 9t-3 8t-2.5 8t0.5 11l-7 1v4l8 2l-10 7l1 7l2 9h-6l7 3l-7 13l6 10
l-3 29l-7 1l-2 19h7l1 12l-10 40l3 3l-2 7l3 6l-8 20l7 3l-6 13l-12 -3v-13l-7 1l-5 -22h6v-3l-6 -4l2 -6l-13 -44l3 -7l-22 -67l2 -13l-7 -8l3 -17l-16 -44v-19l-12 -28l4 -10l-7 -3l2 -13l-11 -25l2 -16h-7l-2 -16l-9 1l-1 -6h-3zM277 10l12 21l-6 8q-3 -3 -6.5 -6t-4 -6
t-1.5 -8t-1 -8l3 -3zM263 31l7 7l-13 4v-10l2 -4zM119 74v4l-4 3l-3 -6l2 -4zM119 81v16l4 3l-13 4l-1 -22zM90 89l-4 4l7 -1zM276 91l1 6l4 9l-6 11l-8 -15l4 -3l-4 -3zM119 126l3 42l-3 3q-3 -2 -3.5 -8.5l-1 -13t-4.5 -11.5t-4 -11zM90 138l-2 4l-4 -3l3 -4zM130 141v3
l-3 4l-3 -6l2 -3zM91 147v3l-2 5l-4 -7l3 -3zM313 137v3l-3 3l-3 -6l3 -4zM131 154l-3 4l-3 -3l2 -3zM115 204v3l-4 4l-3 -7l3 -3zM111 214l2 16l-2 3l-6 -22l3 -4zM327 269l7 8l-13 8l-1 -16l3 -4zM157 288l-3 3l-3 -3l3 -3zM270 279l1 16l-4 4l-4 -19l2 -3zM166 310l4 19
h-7l-8 -22l6 -1zM179 330l1 10l-3 3l-6 -8zM337 322l1 7l5 29l-3 3l-13 -38zM112 365v7l-11 23l-8 -9l15 -23zM186 369l1 12h-7l-3 -6l5 -9zM237 381l-3 3l-4 -2l4 -6zM318 376l1 13l-6 6l-6 -10l8 -12zM191 387v10l-6 7l-7 -10zM231 392v3l-3 4l-3 -7l3 -3zM268 393l4 8
l-3 4l-8 -12l4 -4zM134 406v9l-10 1v-9zM307 395l-9 6l-3 -2l8 -7zM317 398l-3 3l-3 -3l2 -3zM176 411l1 7l3 5l3 -6l12 16q-3 3 -6.5 3t-3.5 5v8t1 7l11 22h-7l8 3l-3 4l3 3l-3 3l4 6l-3 4l5 22l9 6l2 9l-1 36l14 35h-11l-4 -2l-5 13l4 3l-3 6l3 4v19l6 5l-12 8l-4 40l7 15
l-6 1l-3 -4l-4 4l-10 -7h3l4 2l-19 6l-24 -13l-4 -26l4 -23l-3 -3l4 -24l-7 -5l2 -10l7 -1l3 -35l-6 -3l2 -20h7l8 -133l-3 -3l5 -14zM276 410v3l-3 4l-3 -5l2 -4zM390 421v7l-4 6l-7 -19h10zM379 457l-2 5l-4 -3l3 -4zM142 476l1 6l-10 8l-7 -16l6 -1zM250 474l6 7l-8 6
l-4 -12l3 -3zM114 488l3 6l-5 7l-8 -16h7zM256 487l-3 3l-5 -3l3 -3zM262 519l2 20h-10l-3 -13l7 -10zM218 571l-4 3l-3 -3l2 -4zM452 686l-3 3l-4 -3l5 -4zM324 707l-5 8l-5 -13l10 -1v6z" />
    <glyph glyph-name="X" unicode="X" horiz-adv-x="502" 
d="M15 0v20l-3 16l23 7l3 10l4 -3l16 10l-3 3l13 20l7 -3l7 6l-4 7l7 10l-3 3l16 10v10l-3 7q7 7 10 13.5t8 13t7 13.5t2 17l16 3l4 10l-10 10q3 7 8 15t10 15t5 17t7 16l13 4l-13 3l13 27h3l4 -4l6 10l-6 10q3 4 6.5 9t3.5 11.5t1.5 11.5t4.5 8l-13 27h-7l7 3l-10 4l-7 13
l4 3l-14 27l4 3l-4 17h-6l-7 23l3 17l-3 3l-7 -3l-3 20l-10 3l-3 10h10v10h-7l-7 -3l4 17h-7l3 13l-3 3l-3 -3l3 23h-7l-3 7l-3 -10h-4v3l4 7l-10 7l-4 10l7 13l-13 17l3 3l-10 7l-3 13l-4 -3l-10 26h-10l10 7l-6 3l-7 -3l-3 3l-4 -3l-10 3v7h-6l-10 37q3 6 9.5 6h15h15
h13.5l3 -3l20 3l7 -3l27 3l16 -3l77 3l27 -10v-3l-7 -17l3 -6h-10l-6 -10l-17 -24l30 -83l-7 -7l17 -6l20 -60h7l30 63l10 7l-4 3h10v7l10 3l-10 3l7 4l-3 6h6v14h-6q3 3 6.5 8t5 8.5t1.5 10t3 9.5l4 -3l6 10l-6 7l-7 -4l3 4l-10 13l-26 7l-10 -4l-14 7v10l4 7l-4 23l4 3
l3 -6l3 6h27l13 -3l44 3l10 -6l3 3l7 -3l10 6l6 -3l4 3l13 -3l20 3l3 -26l-10 -20l-33 -34h-7l-3 -13l-10 -3l-3 -24l-4 7l-3 -20l3 -3l-73 -160l-10 -10l17 -37l-4 -3l10 -14l-3 -3l3 -7l-3 -3l7 -3l3 3l7 -17l-4 -3l37 -87l-3 -3l6 -20h7v-7l-3 -6q6 -4 9.5 -10.5l7 -13
t5 -13.5t4.5 -13l-3 -10h7l20 -50l-4 -10l7 -10l3 3q4 -10 4 -18.5t6.5 -15t10 -15t9.5 -14.5l20 -7l4 -23h-7v-10h7q-4 0 -4 -5t-3 -5h-6.5h-6.5l-4 23l-13 -20l10 -3h-20l-3 3l-7 -3l-3 6l-4 -6h-50l-26 6q-4 -6 -9 -6h-10h-10h-11l-4 6l-6 -3l-7 13l-10 -16h-3l-7 3v33
l17 7l3 -3l3 6l4 -6l6 20v-7h10l4 13l-7 17l-3 -3v10h-7l-7 16l10 20h-8t-8.5 2t-5 7t-1.5 8h7v7l-4 6l4 10l-20 7l-4 10l4 3l-4 4l10 3l-10 13l4 4l-7 3v7h-13l-7 16l3 4l-20 33l-6 -10l-4 3l-10 -6l10 -4v-3l-20 -43l-6 -4l3 -6l-43 -97h-7v-23l27 -30l16 -4l7 -10l3 7h7
v-7h7v-20l-4 -13l-33 -3v3l3 3l-6 4l-4 -4v7h-10v-7l-40 -6l-13 3l-27 -3l-3 6l-7 -6l4 10h-10v-7l-10 -3l-4 3l-3 -3l-3 3zM42 6l-4 4l-3 -4l3 -3zM168 16l-3 4l-3 -4l3 -3zM395 16v4l-3 3l-4 -7l4 -3zM408 20l4 13l-4 3l4 4l-14 3l-10 -3v-7l10 -10l4 3l3 -10zM52 50l-4 3
l-3 -3l3 -4zM132 96v14l3 20l-7 6l-3 -40l3 -3zM92 113l-4 3l-3 -3l3 -3zM308 120v3l-3 3l-3 -6l3 -4zM108 123l-3 3l-3 -3l3 -3zM418 130l-10 3l-3 -3l10 -4zM115 133v10h-13v-10h13zM132 140l-4 3l-3 -3l3 -4zM155 140l-7 3l-3 -3l7 -4zM338 140l4 3l-10 10l-7 -10l10 -7z
M405 153l-3 3l-4 -3l4 -3zM335 163v7l-10 13l-3 -10l10 -13zM298 163v10h-10v-10h10zM128 180l-3 3l-3 -3l3 -4zM268 183v3l-3 4l-3 -7l3 -3zM328 203v3l-3 4l-3 -7l3 -3zM332 213v7l-4 3l-3 -10l3 -3zM288 220v6l4 14l-10 10l-7 -10l10 -24zM252 223l-4 3l-3 -3l3 -3z
M272 240v6l3 14h-7l-6 -20h10zM228 273v3l-3 4l-3 -7l3 -3zM178 276l-3 4l-3 -4l3 -3zM305 310v10h-13v-10h13zM208 336l-6 24l-10 -4v-16h6l-3 -4l10 -3zM288 340v3l10 17l-6 13l-10 3v-36l3 -4zM318 360v20h-10v-17l7 -7zM162 466v7l6 23l-3 4q-3 -4 -6.5 -7t-5 -8
t-1.5 -8.5v-10.5h10zM222 470v16l-7 7l-3 -23h10zM165 540l3 10h-10v-10l4 -4zM308 593l-3 3l-3 -3l3 -3z" />
    <glyph glyph-name="Y" unicode="Y" horiz-adv-x="515" 
d="M156 0v6l-20 4v3l3 3l-3 27h8t8.5 1.5t6.5 5t7 6.5l3 -3l17 17l-4 3l14 3v10l-4 4l4 6l-7 10l3 4l-3 6l7 24l-4 16l7 24l-3 10h3l3 -24l7 44l-3 3l-7 -13h-3v6l3 4l-3 10h-7l7 3l-7 3h7v14l-4 3l4 3l-7 7l3 7l-3 13v-3l7 -7l3 7l-3 10h-7h7v6l-7 10l3 10l-3 4l7 13h-7v3
l3 4l-3 20h-7l-10 43l-10 3l-3 27h-7l-23 67l3 3q-3 7 -6.5 15t-10 15t-6.5 17t-3 16l-4 -3v7l4 -4l3 10h-7v14h-6l-14 26h7v14l-10 3l3 3l-10 7h7v10h-10l3 7l7 3l-10 3l3 4l-6 6l-4 -3l-3 3l3 7l-3 3l-3 -3l-7 23l-3 -6l-7 13l-3 -3l-14 10l4 3l-7 3l-3 17l3 3l-3 17l30 3
l3 -3l23 3l17 -6v6h20v-10h7l3 4l-3 3l16 3l14 -3l6 -13l14 6v7l20 3l3 -10l20 4v6l7 -6l3 6h20l3 -20l-3 -3l3 -20l-23 -3q0 -7 -3.5 -12t-5 -10t-1.5 -10v-12l3 -10l-3 -10l13 -10l20 -63l-3 -20h10v7l37 -110l-4 -4l14 -3l10 17h10l6 30l-6 10h6l10 23l-3 17l7 20l6 3
l-3 3l10 24l7 3l-7 3l13 34h7l3 16l-3 4l-3 -4v4l6 3l-3 3l3 20l-10 24l-3 -4v7l-10 3l-3 -3l-24 13l-3 17h-7h7v7l-3 3l-4 -3v13l17 3l7 -3l10 3l20 -13l3 3l10 -3v10h-7l20 3l27 -6l50 6l3 -3l4 3l3 -40l-7 -3l-13 7l-7 -10l4 -4l-10 -3l-30 -57l3 -3l-3 -3l3 -4l-27 -76
l-3 3l-3 -7l3 -3l-47 -120l4 -3l-14 -4l-3 -10l7 -3v-13l-14 -34h-6v-6l3 -104l-3 -20l3 -46l-3 -4l3 -6l-7 -24h7v-30l-3 -3l3 -10l-3 -10l6 -27l-3 -6l37 -24l6 -10l7 14l3 -34l-3 -16v6h-20l-3 -3l6 -3h-16l-7 43l-7 -27l4 -10l-4 -6h-6l-4 3l-6 -3l-34 6v-6h-30
q-3 3 -8 4.5t-11.5 1.5h-13.5t-10 4l-13 -4v-6h-30zM266 13l-4 3l-3 -3l3 -3zM306 50v3l3 10l-3 13h-10l-4 -13l10 -17zM286 66v24h-10l-4 -4l4 -20h10zM292 113v7l-10 23l-3 -30h13zM276 130v3l-4 3l-3 -6l3 -4zM296 193v3l-4 4l-3 -7l3 -3zM299 200v20l-3 3l-4 -23l4 -4z
M259 283l-3 3l-4 -3l4 -3zM256 303v17l-14 6v-16zM206 320v6l3 14h-7l-6 -20h10zM242 333l-6 10l-4 -13h7zM312 360l14 16l-7 10l-13 -26l3 -4zM232 390v6l-3 4l-3 -10l3 -4zM296 403v3l-4 4l-3 -7l3 -3zM306 440l-4 3l-3 -3l3 -4zM179 480v10l-3 3l-7 -10l7 -7zM342 710
l-6 3l-4 -3l7 -4zM422 746l-3 4l-3 -4l3 -3zM126 750l-4 3l-3 -3l3 -4zM29 753l-10 3l-3 -3l10 -3z" />
    <glyph glyph-name="Z" unicode="Z" horiz-adv-x="466" 
d="M27 0v3l-3 3l3 17l-3 23l9 23l17 7l3 10l7 3l-7 17l4 13h6l4 10l-4 20l17 16l-3 10l6 4l-3 10l17 23h6v10h7v16l-4 10l14 7l6 20l-6 13l10 17l-4 3h7l20 43l-3 4l6 16h10l4 10l-7 17l7 13l3 -3l6 6l-6 4l6 6l-3 7l3 10h7l7 26h10l3 37h7v7l-4 6l7 4l-3 3l6 13h7v17l3 -4
q4 7 4 15.5t3 13.5t6.5 13t9.5 12l-3 9l7 7l-4 3l20 44l10 3l4 16l-30 17q-10 -3 -23.5 -3t-25 -2t-23 -7t-21.5 -11v-7l-7 4l-3 -4l3 -3l-3 -10l-3 3l-14 -13l-46 -66v6l-10 4q-3 -4 -6.5 -5.5t-3.5 -5v-8.5v-8l3 -3l14 13v-3l-7 -14h-7l-6 7l-4 -7h-3l-17 10v20l7 23l10 4
l13 66l17 13l-3 4l-10 -7l20 43l16 7v7l-3 3l3 -3l13 3l30 -7l4 4l-4 3h123l10 -3l17 3v-7l20 -3l3 3l3 -3l13 3v7h24l6 -3l7 3l3 -3l20 3l13 -7l4 4l6 -17l-3 -7l7 -20l-4 -6l-13 -7l7 -10l-10 -3l6 -3v-4l-13 -33l-10 3v-13h7l-17 -36h-6l-4 -27h-3l-3 3l-4 -13l4 -3l-4 3
l-6 -13l3 -4l-23 -66l-4 20h-9v-20l6 -17l-6 -16h-7q3 -10 0 -16.5t-6.5 -13.5t-5 -13.5t-5.5 -13.5h-6v-16l-10 -7l-7 -16l3 -7l-3 -10l-10 -7l3 -10l-26 -66h-7l-6 -17l3 -6l-3 -10h-7l-3 -20v3l3 10h-7l-3 7l-20 -37h10l3 17h4v-7h6v-6q-3 -7 -8 -12t-6.5 -11.5t-1.5 -13
t-4 -13.5l-10 -3v-13.5t-3 -13.5t-5 -12t-5 -11h-6l-4 -13l20 -14l27 4l6 -10h10v6l-3 4h30l20 -7v10h6l4 -3l20 13l20 26l3 -3l13 10l-7 3h7l13 34l10 3v10l10 -3v6l10 3l4 10l-4 4l7 16l10 -3v10h-7l-3 7l13 6l-3 4h3l7 -7l3 3l3 -6l4 3l6 -7l4 7l10 -7l-10 -16h6v-14
q-10 -19 -16.5 -39t-13 -41.5t-15 -41.5t-18.5 -40l-20 -3l-6 6l-4 -6l-3 3l-3 -3l3 3l-16 6l-4 -6l-23 -3l-3 3l-4 -3l-3 6l-33 -6l-4 3l-9 -3l-4 6l-3 -6v6l-13 3l-7 -6l3 -3h-23l-10 3l-20 -3l-6 13l-14 -7l10 -3l-20 -3l-13 6l-3 -6h-14l-9 6l-17 -6v6h-7l-3 -3l-13 3
l-10 -3l-4 3zM216 6l-3 3l-4 -3l4 -3zM146 9l-3 4l-3 -4l3 -3zM126 16v13h-10v-13h10zM259 19v7l-13 7l-7 -7zM156 56v10l-3 13h-10v-13l10 -13zM359 63v3l3 7l-7 6l-10 -13l10 -7zM395 73l13 3v10l-13 16l-3 -13l3 -7h-3l-3 4l-7 -7l10 -10zM322 79l-3 3l-3 -3l3 -3z
M143 99v13l3 4l-13 20l-3 -37l3 -3zM405 116l-3 3l-3 -3l3 -4zM87 129v3l-4 4l-3 -7l3 -3zM153 136v10l-3 3l-4 -13l4 -4zM372 162v7l7 3v-7zM140 182l-4 3l-3 -3l3 -3zM143 185l-3 4l-4 -4h7zM402 195l-3 4l-4 -4l4 -3zM116 225v3l-3 4l-3 -7l3 -3zM183 245v3l-4 4l-3 -7
l3 -3zM186 252v6l-3 4l-4 -10l4 -4zM156 252v10h-10v-10h10zM143 265v10l3 13h-13l-3 -23h13zM179 302v13l-3 3l-6 -16h9zM176 325v10h-10v-10h10zM196 401v7l-7 20l-3 -27h10zM226 531v3l-3 3l-4 -6l4 -4zM355 537v7q-3 3 -6.5 8t-3.5 11.5t-1.5 11.5t-8.5 5l-6 -10l13 -33
h13zM372 590l-7 7l-6 -7l10 -3zM249 594l-3 3l-3 -3l3 -4zM375 594l-3 3l-3 -3h6zM113 623v4l-7 6l-3 -16h10v6zM93 700v3l-3 3l-3 -6l3 -4zM199 696v10h-10v-10h10zM216 703l-7 7l-3 -10h7zM97 706l6 10l-6 4l-7 -14l3 -3zM243 750l-4 3l-3 -3l3 -4z" />
    <glyph glyph-name="bracketleft" unicode="[" horiz-adv-x="421" 
d="M162 -20l-6 2l-6 30h-6v60l6 3q-3 6 -4.5 13t-1.5 14.5v15v16.5h6v12l-6 95v-6l3 -3l3 27l-3 30h3l3 -9l3 21h-6l-3 -3l3 -3h-3l-3 9l6 44l-6 27l3 3l-3 3l9 24l-3 3l-3 -3v24l3 6l-3 2l6 6l-6 3l6 3l-6 3v3l6 3l-6 3l-3 15l6 33l-3 12l3 18l-3 3l-3 -3v6l6 17l-3 6l3 3
l-3 21l9 18l-6 6l-3 -3l-3 39v-9l3 -3l3 6l3 -3l6 6l-6 6l3 3l-6 3q0 8 -3 15.5t-3 16.5v16.5v16.5l3 3l-3 6h6v30l-3 6h6l3 -3l-3 -3l9 -3v12l9 -3v6h3l3 -3l24 3l3 -6l3 6h15l9 -6q12 6 28 6h31h30h30l9 -3l14 3l21 -9v9l3 -60l-3 -12h-38l-3 3l-33 -3l-15 3l-15 -3l-18 3
l-23 -3l-15 3l-12 -6l-3 -68h-6v-9h6l-6 -3l6 -3v-66l-3 -26l3 -30l-3 -3l3 -27l-3 -3l3 -3l-6 -6l3 -3l-3 -3l6 -3v-29l-3 -6l3 -3l-6 -3l6 -3h-6v-6l3 -3l3 3v-48v12l-3 3l-9 -36h9l3 15v-23l-3 -3l3 -3l-3 -15l3 -9l-3 -3l3 -9h-6v-6q3 -3 4.5 -7.5t1.5 -10.5v-10.5
v-10.5l-6 -3l6 -3v-3l-3 -3l3 -35h-6v-9q6 -3 6 -7.5v-9v-9v-10.5l-3 -9l3 -24h-6v-6l3 -3l-3 -8l6 -6l-3 -3l3 -27h18l3 -6l3 6h3l3 -3l98 3l18 -3l3 3l2 -3l18 3v-9h6v-9l-6 -3l9 -6v-3h-6v-6l6 -36l-3 -2v5h-12l-3 -3l-3 3l-3 -5h-3v5h-14q-3 -5 -9 -5h-10.5h-10.5h-12
l-9 2l-24 -2l-6 2l-3 -2l-9 2l-6 -2l-2 8l-6 -3l-6 6l-6 -11h-18l-12 5q-3 -5 -9 -5h-12h-12h-12zM168 12v15h-9v-15h9zM183 36l9 21l-6 6l-6 -6t-3 -6v-7.5v-7.5l3 -3zM275 39l3 3l-9 3v-6l3 -3zM260 48l-3 3l-2 -3l2 -3zM177 110v6l3 9l-6 9l-6 -15l3 -3l-3 -3zM207 155v3
l-3 3l-3 -6l3 -3zM195 375v9l-6 6l-6 -9l9 -9zM183 390l-9 6l-3 -3l9 -6zM192 393l-3 3l-3 -3l3 -3zM213 443v21l-6 6l-6 -15l3 -12h9zM150 684l-3 3l-3 -3l3 -3zM153 693v6l-3 3l-3 -9l3 -3z" />
    <glyph glyph-name="backslash" unicode="\" horiz-adv-x="522" 
d="M176 0l-13 6l-3 -3l-4 3l-10 -3v10l4 3l-4 14l4 3l-4 10h27l7 10l13 13v-6l-7 -24h14l3 10l-3 10l3 20h-7v4l7 13l-3 3l3 4l-3 3l3 3l-3 7l6 3l-6 4v6l6 4l-6 3v3l10 7l-7 7l3 3l-3 7l3 10l-6 6l3 -3l3 7l-3 13h10v7l-3 3l-7 -3l-3 6l6 7l-6 7h6v10h-6v30l10 3l-10 3v10
l3 4l-3 3l3 3l-23 7v7l-27 3v-7l-7 -3l-6 3l-10 -3l-7 3l-3 -3l-10 3l-24 -3v7h-10l-3 -4l-3 4l-4 -7h-3l-10 30l3 3l-3 14l3 6h24l16 -3l14 3l16 -6l27 6l3 -3l4 3v-6h13l10 3l3 -3l10 26l-10 4l-6 26l6 4l-6 3l-4 7l7 3l-17 7v10h7v6l-3 4l3 3l-7 3l-10 -3q-10 3 -21.5 3
h-23t-23.5 2t-22 5l-3 -3l-10 3v20l3 10l-3 7l3 6l20 -6l10 6l4 -3l43 3l3 10l-16 34l3 3q-7 7 -10 13.5t-5 13t-3.5 13.5t-1.5 17h-7l-6 43l-4 -3l-3 10l-7 3l-3 10l7 10l-24 13l-6 10l3 10l-33 10q3 4 4.5 7t1.5 8v8.5t4 6.5l-7 7l3 -3l7 3l3 -3l34 3l3 -3l3 3l4 -7l6 10
h104l6 -3l4 3l3 -3l33 3l7 -3l10 3l3 -13l-6 -7l6 -16l-10 -10l-10 6l-20 -43l10 -47h7l13 -40l-3 -3l7 -3l6 -17l-3 -3l3 -4h-6v-16l6 -7l4 10l13 -33l-3 -4l13 -16l3 6l4 -3l40 7v16l6 4l-6 3l3 3l3 -3l10 3l4 27l-4 3l-6 -10v4l3 10h7v13l3 -3l3 10h-6h6v6l-3 4l3 10h7
l3 26h7l10 34l-3 3l3 3l-3 17l3 3l-3 14l-10 3l-4 -3l-40 13l-6 13l6 17h7v10h-10l27 3v-6h10v6h56l10 -3l57 3l3 -20l-13 -26q-7 -4 -13.5 -9t-10 -11.5t-8.5 -13t-8 -13.5q0 -17 -6.5 -30t-11.5 -28t-10 -28.5t-12 -26.5l3 -4h-6v-6l3 -4l-3 4l-4 -7l4 -7l-10 -23l6 -10
l4 3l6 -6l4 3l3 -3l17 3l6 -3l10 3l7 -3l3 3l-3 3h13l10 -3v-43l-26 -4l-20 7v-7h-4l4 7l-4 3l-6 -10h-20l-7 4l-13 -4l-4 4q-6 -4 -8 -10.5t-5 -13t-5 -13.5t-5 -13h-7v-7l4 -7l-7 -16h-10v-14h7l6 -10h13.5h13.5t13.5 -5t13.5 -1v6h20l3 -3l7 3v-6l-7 -10l3 -4l10 4v13
l4 -3l33 6l3 -16l-3 -7l3 -23l-23 -7v7l-13 3l-4 -7l-10 -3l-13 3l-7 -3l-20 7l-43 -10l-7 -127l4 -47l-4 -6l4 -10l-4 -4l17 -36l27 -17l3 3v-6h10v-10l-7 -4l4 -3l-10 -20l-17 -3l-7 3l-30 -3l-3 3l-57 -3l-6 3l-50 -3l-17 6v-6h-7zM246 0v10h-10v-10h10zM330 40v20l-4 10
h-10v-17l10 -17zM350 50l3 3l-10 3v-6l3 -4zM216 53l7 17l-13 3v-20l3 -3zM216 96v20l-3 4l-3 -10h-7v-14h13zM296 163v10l4 7l-10 16l-7 -30zM213 226l-3 4l-4 -4l4 -3zM243 266l-3 4l-4 -4l4 -3zM250 290l3 20h-7l-6 -24h6zM443 303l-3 3l-4 -3l4 -3zM93 306v7l-13 10
l-4 -3l14 -17zM300 303v13l-14 7v-10l4 -10h10zM80 340l-10 3l-4 -3l10 -4zM270 373l-7 13l-7 -10l10 -6zM210 383v10h-10v-10h10zM160 450v3l-4 3l-3 -6l3 -4zM206 456l4 14h-7l-7 -17h7zM323 463l3 7l-6 6l-4 -13l4 -3zM183 470v23l-3 3l-7 -26h10zM326 476l-3 4l-3 -4
l3 -3zM136 516l-3 4l-3 -4l3 -3zM196 546l4 17h-10l-4 -13l7 -7zM186 590v13h-13v-7zM410 603l-4 3l-3 -3l3 -3zM150 606l6 27l-3 10h-10l-3 -30l6 -10zM376 616l-6 7l-4 -10h7zM50 710l-4 3l-3 -3l3 -4zM360 710l-7 3l-3 -3l6 -4z" />
    <glyph glyph-name="bracketright" unicode="]" horiz-adv-x="421" 
d="M259 -20h-12h-12h-12t-9 5l-12 -5h-18l-6 11l-6 -6l-6 3l-2 -8l-6 2l-9 -2l-3 2l-6 -2l-24 2l-9 -2h-12h-10.5h-10.5t-9 5h-14v-5h-3l-3 5l-3 -3l-3 3h-12v-5l-3 2l6 36v6h-6v3l9 6l-6 3v9h6v9l18 -3l2 3l3 -3l18 3l98 -3l3 3h3l3 -6l3 6h18l3 27l-3 3l6 6l-3 8l3 3v6h-6
l3 24l-3 9v10.5v9v9t6 7.5v9h-6l3 35l-3 3v3l6 3l-6 3v10.5v10.5t1.5 10.5t4.5 7.5v6h-6l3 9l-3 3l3 9l-3 15l3 3l-3 3v23l3 -15h9l-9 36l-3 -3v-12v48l3 -3l3 3v6h-6l6 3l-6 3l3 3l-3 6v29l6 3l-3 3l3 3l-6 6l3 3l-3 3l3 27l-3 3l3 30l-3 26v66l6 3l-6 3h6v9h-6l-3 68
l-12 6l-15 -3l-23 3l-18 -3l-15 3l-15 -3l-33 3l-3 -3h-38l-3 12l3 60v-9l21 9l14 -3l9 3h30h30h31t28 -6l9 6h15l3 -6l3 6l24 -3l3 3h3v-6l9 3v-12l9 3l-3 3l3 3h6l-3 -6v-30h6l-3 -6l3 -3v-16.5v-16.5t-3 -16.5t-3 -15.5l-6 -3l3 -3l-6 -6l6 -6l3 3l3 -6l3 3v9l-3 -39
l-3 3l-6 -6l9 -18l-3 -21l3 -3l-3 -6l6 -17v-6l-3 3l-3 -3l3 -18l-3 -12l6 -33l-3 -15l-6 -3l6 -3v-3l-6 -3l6 -3l-6 -3l6 -6l-3 -2l3 -6v-24l-3 3l-3 -3l9 -24l-3 -3l3 -3l-6 -27l6 -44l-3 -9h-3l3 3l-3 3h-6l3 -21l3 9h3l-3 -30l3 -27l3 3v6l-6 -95v-12h6v-16.5v-15
t-1.5 -14.5t-4.5 -13l6 -3v-60h-6l-6 -30zM253 12h9v15h-9v-15zM238 36l3 -3l3 3v7.5v7.5t-3 6l-6 6l-6 -6zM146 39l3 -3l3 3v6l-9 -3zM161 48l3 -3l2 3l-2 3zM244 110l9 3l-3 3l3 3l-6 15l-6 -9l3 -9v-6zM214 155l3 -3l3 3l-3 6l-3 -3v-3zM226 375l3 -3l9 9l-6 9l-6 -6v-9z
M238 390l3 -3l9 6l-3 3zM229 393l3 -3l3 3l-3 3zM208 443h9l3 12l-6 15l-6 -6v-21zM271 684l3 -3l3 3l-3 3zM268 693l3 -3l3 3l-3 9l-3 -3v-6z" />
    <glyph glyph-name="asciicircum" unicode="^" 
 />
    <glyph glyph-name="underscore" unicode="_" 
 />
    <glyph glyph-name="grave" unicode="`" 
 />
    <glyph glyph-name="a" unicode="a" horiz-adv-x="498" 
d="M24 3l-7 3v10l3 9h-12l12 7l-9 3l-3 10l6 3l3 -3l20 10v6l3 -6l10 16l3 -3q3 3 8 6t5 9.5t1.5 10t1.5 9.5l-3 4l16 26l-3 9h-7l7 4l-3 9h6l7 46l9 3l4 20l-4 3h7v10l-3 3l3 13h10v16h-7v7h7l3 19l-3 3l9 26l-3 10l16 3v13h-9l-7 -3l10 16l-3 10l6 10l-3 3l10 19l-4 4h7
v29l6 3l-3 7l3 3l-3 3l10 29l6 4l-3 19q3 7 6.5 15t5 16t1.5 16t7 15l-4 6l7 17l3 -7l10 16l-3 4l6 13l-6 13l19 71l-3 3l6 17l7 3l-3 3l3 16l-3 4l6 9l3 -3l33 3l3 -3l3 3l13 -42l-3 -3l7 -3l3 -23l-16 -7l22 -9l20 -85h-7v-6l13 -10l10 -42l-3 -7l16 -42h-6v-10l3 -3l3 3
l-6 -6l9 -4l30 -123l-4 -6l4 -4l3 4l6 -36l-3 -3q10 -10 13 -24.5t6.5 -29.5t8 -29.5t8.5 -27.5l-7 -13l10 -6l13 -52l-7 3l-3 -3l10 -20h6v-3l-3 -3l7 -4l-4 -3l4 -3l-4 3l-3 -10l13 -9l3 6l-3 3l29 -16l4 -36l-7 -3l7 -3l-7 -3l-10 3l4 3l-20 3v-6l-3 3q-3 -6 -8 -6h-10
h-10h-8l-3 3l-3 -3l-4 3l-9 -3l-26 3l-10 -3v6l-23 3l-16 -6l3 -3h-6l-7 9l-6 -3l-3 3l-10 -6l3 3l-16 7v-7l-7 3v10l4 16l-4 7l4 3l13 -3l3 3l3 -3l3 3l10 -3l7 10l-7 22h10v7l-7 29l-9 3v17h-7l3 3l-6 19l3 10l-3 7l3 3l-3 13l3 10l-13 3v10l3 3l-6 3h3l13 -6l20 9
q-4 7 -8.5 7h-9.5h-10h-11l-4 -3q-3 3 -8 6t-9.5 3h-9.5h-12l-48 -3l-7 3l-3 -3l-3 3l-13 -6q0 -10 -6.5 -18t-6.5 -19.5t-2 -21t-5 -19.5l-13 -7l10 -3v-10l-7 -26l-3 4l-3 -13l6 -20l-9 -3l13 -7v-13h6l3 4l4 -4l6 4l20 -7l6 -32l-10 -10l4 -3l-10 3l-13 -3l-3 3l-46 -3
l-3 3l-7 -3l-6 3l-7 -3v6h-9l-20 -6l-6 3zM43 51l-3 4l-3 -4l3 -3zM373 131l5 14l-4 13h-11l1 -18zM312 161l3 -3l2 13l-7 5l-2 -13zM311 130l10 1l8 28l-11 -1zM137 175l4 13h-7l-13 -10l13 -6zM331 203l11 1l6 12l-5 10l-10 -2zM149 259l5 24h-11l-2 -14zM258 282v3l3 4
l-20 55l4 6q-4 13 -7 26t-6.5 26t-10 26t-6.5 26l-9 -3l-7 -39l-13 -7l10 -3v-3l-29 -97l3 -10l-3 -7l26 -9l6 3l3 -3l49 6l3 -3zM308 278l5 -3q2 3 3.5 6.5t1.5 7v8.5t-1 8h-10l-3 -23zM340 347l3 14l-4 4l-3 -14zM326 396v6l-13 10l-3 -3l3 -13h13zM265 398l1 15h-5
l-2 -14zM329 441q-3 3 -6.5 5t-6.5 2h-8h-8l-3 -4l-7 7l-10 -7l46 -6zM319 451l-6 3l-3 -3l6 -3zM235 457l-23 7v-7l7 -6zM163 464l-6 3l-3 -3l6 -3zM185 469l4 -3l4 6l-5 11l-6 -9zM170 480v10l-3 3l-4 -13l4 -3zM259 495l4 16l-8 14l-4 -15zM230 591l11 -6l1 15l-2 11
l-10 1l-3 -17zM262 579l1 18l-2 4l-3 -20zM265 562l8 -7l5 11l-9 6l-4 7l-4 -13zM268 603l10 1l-1 13l-10 -1zM274 734l3 3l-16 6v-6l10 -7z" />
    <glyph glyph-name="b" unicode="b" horiz-adv-x="501" 
d="M27 0v3l-3 3l3 4l-3 3l3 -3l3 13l-6 20l13 7l7 -4v-26h13v16l-10 17l17 7l3 -7l7 10l-4 3l4 7h6l4 13l-4 10l4 4l-10 16l10 17l-4 3l4 14l-7 10l7 20q-4 6 -7 9.5t-3 10v13.5v13v-16h10v40h-10v16l10 24l-4 3l-6 -3v6l3 7l-3 20l3 10l-3 33l3 7l-3 23l10 40l-4 24l4 10
l-4 3l4 7l-7 20l7 13l-7 37q3 3 6.5 9.5t7 11.5t3.5 12v13h-10l-4 -23l4 -3l-10 16l6 34h-6l3 3l-3 27l3 16q-3 7 -5 13.5t-7 11.5l-10 10t-11 12l-7 3l-10 20l-3 -10v27h3l3 -13l14 16h23l20 -6l20 6l3 -3l64 3l6 -3l4 3l6 -3l10 3l27 -3l3 3l7 -3l10 3v-6h10v6h30l10 -13
l10 -3l17 3v7l30 -14l3 4v-10l17 -7l6 3q7 -6 15.5 -14.5t15 -17t11.5 -16.5t2 -22h6l7 -30l-3 -3l6 -3v-10l-10 -4l7 -3l-3 -3l10 -24l-4 -3l4 -23l-10 -10l6 -30l-6 -10l-4 13l-6 -10l3 -7l-17 -30l10 -6l-3 -7l-13 -3l-4 -17l-3 3l-23 -13l6 -3v-4l-3 -6l-27 -17l7 -13
l7 6l20 -10h-7v-10h13l-3 -3l10 -3l3 3l10 -27l14 -3v10l3 -13h7l6 -17l-3 -10l3 -3l4 3l10 -30l-4 -10q4 -3 5.5 -6.5t1.5 -8.5v-10v-8l-3 -17l3 -47l-7 -16l4 -7l-17 -37l3 -10l-3 -6h-7v16h-10v-16l4 -10l-10 -27l-20 -17l-4 4l-10 -4v-10h-3l-3 4l-17 -10l-3 3l-4 -7h-3
l-13 4l-27 -17v17h-10l-3 -14h-24v-6l-16 3l-47 -3l-13 3l-14 -3l-13 3l-17 -3l-6 3l-20 -3l-14 10l-20 -10l-6 10q-4 -4 -9 -7t-11.5 -3h-11.5h-12l4 3l-10 3v-6h-7zM77 16v10l3 14h-13v-24h10zM240 26v10l4 4l-10 10l-7 -10l3 -14h10zM250 46l17 10l7 10h3l10 -6l3 3l-3 7
l3 3l-3 3l20 24h7l3 23l-3 13l10 4v10l-4 13l10 40l-3 10l3 3l-10 47l7 7l-10 36q-3 0 -6.5 2t-5 5t-3.5 6.5t-2 6.5l-10 14l4 13h-7v7h-10l-7 -4l-16 10l-7 14l-7 -10l-10 -4l-26 4l-7 -10l7 -47l-4 -23l4 -30l-7 -20l7 -10l-4 -10l4 -90l-4 -17q4 -7 5.5 -13.5t3 -15
t5 -13.5t10.5 -11l23 -17zM294 50v3l-4 3l-3 -6l3 -4zM120 70l4 3l-14 3l-3 -3l10 -7zM154 73v13h-7l-3 7l-4 -20h14zM404 96v7l-10 10l-7 -10zM164 126l6 30l-6 7l-10 -23l6 -17zM440 123v7l4 6l-7 7l-7 -20h10zM397 126v30l-7 14l-6 -24l3 -20h10zM334 136l-4 4l-3 -4
l3 -3zM337 143l-7 3l-3 -3l7 -3zM147 156l3 14l-10 6l-6 -16l10 -7zM327 163l-3 3l-4 -3l4 -3zM190 196l7 27h-10l-3 -27l3 -3zM334 223v7l-4 3l-3 -10l3 -3zM397 246v17h-7l-6 -10zM117 260v23l-7 10l-6 -23l10 -14zM327 286l7 24l-17 6v-23l7 -10zM440 293v7l-3 3l-3 -10
l3 -3zM127 326v10l-7 7l-3 -17h10zM84 370v6l-4 4l-3 -10l3 -4zM97 410v13h-10v-13h10zM177 413v7l-3 3l-4 -10l4 -3zM247 416l-3 7l3 -3l10 6l7 -3l3 3l-3 4l20 10l-4 3l4 7h6q0 6 2 9.5t5 8.5t6.5 8.5l6.5 6.5l-3 7l7 3l-10 3l13 44h7v13l-10 37l3 13l-3 17h-7v16l7 14
l-20 10v3l3 -3l3 13l-16 3l-4 14l-10 6l-3 -3l-3 7l-4 -4l-6 10l-14 -6l-3 3l-7 -3l-13 10l-3 -27h-7v-10l-7 3l-3 -3l10 -17l-7 -40l4 -6l-4 -14l-6 -3l10 -7v-36l-7 -20q7 -4 7 -10.5v-11.5v-11.5v-13.5l-4 -7l7 -53l23 -7l7 4h-3l-4 -4l14 -3zM110 430v3l-6 20h-7
l-10 -13l20 -14zM360 480v10l-6 6l-4 -13l7 -7zM104 493v13h-7l-10 -13l3 -3zM350 500v3l10 20h-10l-6 -23l3 -4zM160 513v7l-3 3l-3 -10l3 -3zM434 586l3 4l-13 6v-6l6 -7zM84 656v4l-4 3l-3 -7l3 -3zM44 720l-4 3l-3 -3l3 -4z" />
    <glyph glyph-name="c" unicode="c" horiz-adv-x="465" 
d="M239 0l-13 3l-9 13l-4 -10h-6l-19 10v19h-10v-7h-6l-7 4v6l-16 7v7.5v8t-3 6.5l-7 7l-3 -13h-3q-3 3 -8 6t-6.5 8t-1.5 10v11l-16 3l-16 52l-10 3l-19 61l9 16h-6l3 4l-13 9l-3 16l3 4l-3 3l6 3q-6 6 -7.5 14.5t-1.5 16.5v17.5t-3 15.5l6 13h-6h6l3 20l-6 6l3 10h-6v3h6
v6l-3 4l9 12l-6 4l3 13l-6 9l9 3l7 23h-7l-3 26h7l3 22l-7 10l7 23h13v19h-7v10l13 28h7v10l-4 3l7 13h6v16v-6h7l3 3l-3 3l3 7l-3 3l3 6h6l16 -3l4 29l-4 3h10v7l-3 3l10 10v-7h6l10 10l3 -3l3 9h-6l13 4v9h3l3 -3l6 7l-3 3q13 6 26 12.5t27.5 8t29 1.5h30.5v-6l16 -7
l13 -9l10 6l16 -16v-6h6l3 3l13 -10l16 7v6l-3 3l3 7l4 -3l3 6h6l3 -3l20 6v7h3l3 -26l-6 -10q9 -26 9 -53t2 -54.5t3.5 -55t1.5 -56.5l-3 -6l-7 -3l3 -7l-3 3l-26 -9l-3 3l3 3l-9 7h6v12h-6l3 7l-13 19l3 -3l10 6l-6 17h-7l-10 29l4 16l-7 9l-3 -3l-6 13l9 13l-9 16h-13
l-33 58l-6 3l-3 7l-3 -7l-17 3v7h-6l-6 -3l-10 3l-7 -3l-3 3l-3 -7l-6 -3l-4 19l-9 4v-20l3 -9l-16 -7l-13 -32h-6l-10 -29l3 -3l-6 -26h-7v-6l3 -16l-6 -39h-6v-7l3 -32l-10 -22l7 -23l-7 -32l3 -16l-9 6l-4 -22l7 -13l6 19v-22l-3 -7l3 -3l-3 -3l3 -10l-3 -3l3 -32v3l-3 3
l-3 -13h10v-13l-4 -29h7v-6l-3 3l-4 -10l10 -32l3 3l20 -70l-4 -16l10 -4v-6h6q4 -7 8.5 -13t11 -12.5t14.5 -11.5t15 -8l22 -3l32 16l4 -4l16 10l16 32l13 7l-7 3l7 3l-3 7l9 3l3 13l17 13l-4 13h-6l19 35l-3 3l3 3l-3 4h10v12l-4 7l4 3l3 -3l26 6l3 -16l6 3v-19l-16 -48
l3 -3l-9 -10l6 -3l-3 -10l-3 7l-7 -10l4 -3l-4 -4l4 -6l-7 -13h-6v-6h-7q0 -10 -1.5 -18t-6.5 -16t-11.5 -14.5t-9.5 -13.5l-16 -16l-16 -3l6 -3l-9 -7l-3 10l-4 -16l-19 -6v6h-8t-8 3t-6.5 5t-6.5 5l-3 -7l9 -16l-6 -3l6 -3l-3 -3v6l-13 3l-6 -6l6 -3zM268 16v16l-13 6v-6
l3 -16h10zM194 22l-3 3l-3 -3l3 -3zM326 45l3 3l-9 6l-7 -6l10 -7zM368 70v20l-3 13h-10v-20l3 -13h10zM168 109v3l13 7l-3 3l3 13l-6 6l-10 -9l3 -7l-6 -3v6h-10v-6l13 -16zM358 112v3l4 10h-10v-13l3 -3zM407 125l-4 3l-3 -6l3 -3zM162 138v13h-10v-13h10zM117 151v22l3 7
l-10 16l-6 -29l3 -16h10zM101 215q3 3 4.5 6.5t1.5 8.5v9.5v7.5l-42 4v-7h-3l-3 7l-3 -10l6 -13l13 -3v-7h10v10h3l3 -16h6zM397 215l-3 3l-3 -3l3 -3zM120 299v13l-13 6v-9l3 -10h10zM78 338l10 19h-10v-10l-10 20l-3 -16l3 -17h7zM123 373v19l3 10h-9l-3 -22l6 -10z
M136 418v13h-10v-13h10zM165 489v32l3 20l-3 3l-16 -36l13 -22zM149 499v19h-10v-13l7 -10zM81 524v7l-3 13h-10v-20l10 -3zM387 550l-3 3l-3 -3l3 -3zM384 557v3l-3 3l-3 -10l3 -3zM420 605v10l3 9l-16 7v-7l3 -19h10zM297 702l-3 3l-3 -3l3 -4zM265 708l-3 3l-4 -6l4 -3z
M258 731v19l-19 6l-3 -3l10 -3l9 -23z" />
    <glyph glyph-name="d" unicode="d" horiz-adv-x="490" 
d="M3 0l-3 16l6 10l-3 4l3 13l-3 3l-3 -3v3l40 14l10 46l-4 20h7v14h-7v36l7 10l-7 7l4 -3l3 20q-3 3 -5 9.5t-2 13.5v13.5v13.5l4 6l-4 67l4 10l-4 47l14 3l-14 3v10l4 34l-4 50l10 10l-10 6v67l4 3q-4 14 -4 29v30v31.5t-10 26.5l4 3l-34 17q-3 3 -4.5 8t-1.5 10v10v12
l76 3l14 -3l150 3q20 -3 38 -6.5t35 -10t33.5 -18t29.5 -25.5q7 -10 17 -20t16.5 -21.5t11.5 -23t12 -21.5l-3 -4q6 -6 9.5 -13t5 -15t5 -16.5t3.5 -15.5l-3 -6q3 -10 8 -22t6.5 -25t1.5 -25t4 -25l-4 -20l4 -103q-4 -20 -7 -42t-6.5 -42t-8.5 -38t-12 -38l-3 3l-10 -23
l3 -7l-3 -7h-10l-7 -30l-10 -6l4 -4q-7 -10 -15.5 -18t-18.5 -16.5t-20 -15t-20 -13.5l-56 -17l-7 4q-7 -4 -12 -5.5t-11.5 -1.5h-13h-13.5l-3 10l-7 -13h-97v6h-10v-6h-46h13l7 13l-20 10l-14 -23h7h-40zM196 3l-16 10l-10 -7l23 -6zM200 6l-4 4l-3 -4h7zM220 10v13l3 27
h-17v-17l4 -23h10zM340 40l6 30h-10l-3 -30l3 -4zM123 66l-3 4l-4 -4l4 -3zM256 66l17 14l3 -7l7 13l7 4l-4 10q10 10 15 23t8.5 26.5l7 27t6.5 26.5h7l3 13l-7 4v26l7 20l-3 20l3 84h7v16l-7 37l3 3q-6 7 -6 18.5v21.5t-2 20t-2 20l7 14l-10 20l-3 -4l-10 74h-7
q-3 10 -6.5 20t-8.5 20t-11.5 18t-13.5 18l-50 24l-23 -14l-10 -20h-7v-13l3 -17l-3 -3l3 -67h-6v-13q6 -7 6 -17v-18v-18v-20h-6v-17q6 -27 6 -58.5v-61.5v-61.5v-61.5l-6 -17q10 -17 8 -37t-2 -38v-38t7 -37q3 -3 8 -5t12 -3.5t12 -1.5h11zM116 66v10l4 24h-10l-4 -34h10z
M96 70v16l-10 14l-3 -30h13zM336 76v7l-3 3l-7 -6l7 -7zM133 100l3 3l-16 7l-7 -7l17 -7zM333 100v3l-3 3l-4 -6l4 -4zM160 120l-4 3l-3 -3l3 -4zM163 136l-3 4l-4 -4l4 -3zM160 143v3l-4 4l-3 -10l3 -4zM100 153l23 30l-3 3l-30 -16l-4 -14l10 -6zM436 180l7 26l-7 14
l-13 -24l3 -20h7zM120 190l-4 3l-3 -3l3 -4zM123 193v7l-3 3l-4 -10h7zM146 196v7l4 20l-10 3l-7 -13l3 -17h10zM140 250v13l-4 33h-13v-6l3 -14l-6 -20l3 -3l7 3v-6h10zM103 276v17l-7 7l-3 -7h-3l-4 7l-3 -10l7 -7l-4 -10h7l3 3l4 -3zM443 296l3 4l-3 10l-13 3l-7 -10
l17 -10zM86 303v7h-13l-3 -24h13zM156 310v3l4 10l-10 20l-7 -23l10 -14zM93 313l-3 3l-4 -3l4 -3zM120 323v13l-4 4l-6 -17h10zM366 336l7 24l-17 6v-23l7 -10zM406 350v13h-10v-10l7 -7zM423 366v37l-7 7l-3 -4v14h-7l-6 -27l10 -7l3 -16zM166 376v10l-6 7l-4 -17h10z
M60 400l6 16l-16 7v-17l6 -10zM136 416v14l14 3v7l-27 13v-10l7 -13l-4 -10l7 -7zM450 436v7l3 20l-3 3q-4 -3 -7 -6.5t-3 -6.5v-8v-9h10zM136 460v13h-10v-13h10zM150 483v17h-17l-7 -14zM450 493v17h-10v-17h10zM356 506v14h-10v-14h10zM400 530v10l-7 6l-3 -13l6 -7z
M443 550v16l-3 4l-4 -20l4 -4zM390 556l6 14l-10 3l-3 -17l3 -3z" />
    <glyph glyph-name="e" unicode="e" horiz-adv-x="436" 
d="M367 3l-23 6l-3 -6l-4 3l-3 -3l3 3l-16 7l-3 -7l-10 -3l-24 6l-9 -6l-27 3l-3 -3h-7l-3 6l-3 -6v6l-14 4l-10 -10l-26 3l-7 -3l-6 3l-3 -3l-30 6l-4 10l-13 -6v-7l-16 7l-7 -7l-3 3h-10v-6l-3 10l-14 -4l4 -3l-4 -3l-3 3l-7 -3l-9 3l-4 -3l-10 10l-26 -10l-7 6l7 37
q3 6 11.5 6t13.5 3.5t11.5 7t9.5 9.5l13 -30l4 4v8v10t-3.5 8.5l-6.5 6.5l3 3l-3 3l10 20l-4 7l4 6v14h-7l3 49l10 4l7 26l-3 3h-10v-16l-4 3l-3 -3l3 3l-3 3l7 4l-7 6l3 20l-3 20l10 20l-7 16l4 7l-7 40l10 23l-3 13l-4 -7l-3 7v11.5v11.5t3.5 12t6.5 8l-7 3v3l14 10l-7 14
l-10 13l3 6l-3 10l3 4l-3 3v3h7l-7 27v3l3 -7l4 4v20h-7v49l7 -10l3 3l-3 30h-7l3 7l-3 3l7 3l-4 4l4 3v7h-7l7 3l-7 3l7 13l-4 4h7v16h-10l-10 30h-6l-4 10l-6 -7l3 -3h-7l-3 7l-3 -4l-17 7l7 10l-3 6l3 4l-3 3l9 20l4 -7l3 4l3 -4l4 4l3 -4h7v7l16 -7l23 7l27 -3l13 3
l23 -3l3 3l96 -3l3 3h67l-4 -3l4 -4l29 7l13 -3l4 3l-4 -3v-7l17 -7l20 -43l-10 7l-3 -3l16 -13l13 -67l10 -3l7 -23v-20l-17 -10h-3l-3 7l-7 -7h-6l-7 13v4l13 -13l3 3v8v8.5t-3 5t-6 4.5l-10 -3v-7l-47 66l-13 14l-3 -4l-3 10l3 4l-3 3l-7 -3l-27 26l-3 -3l3 3v7l-13 -10
l-6 13l-27 -10l-3 3l-7 -3l-10 3l-26 -16l3 -17l-3 -6l-10 -7l3 -3l-3 -4l10 -6v-7h-7v-10l-6 -3l10 -13l-4 -3l7 -4v-10h-7l-3 -13v-7h10l-3 -23l3 -3l-3 -3l3 -13v-40l-13 10l-7 -7l10 -10q3 -10 5 -18t3.5 -16.5t1.5 -18.5t10 -13l26 7l10 -4l10 10l-3 7l23 43l7 -3l3 3
l-3 7l6 39h7v7l10 -3l10 -10l-4 -4l4 -10l-4 -56l4 -6h-7l3 -14l-3 -3v-7h7l-4 -82l4 -7l-4 -86l-13 -6l-13 3l-3 10v23l3 -13l10 13l-7 17l-30 62l-29 17l-27 -10l-6 -17l3 -3l-3 -36l3 -3v-12v-11.5t-3.5 -11.5t-6.5 -8l3 -4v-3l-6 -3l10 -4l3 -10l-3 -85l3 -4l-3 -6
l6 -43l-3 -20l3 -20l10 -3l3 3h4l-4 -3l7 -10h10l-7 13l17 -7l7 4l16 -7h13v10l10 -3l3 6l17 7l20 26l3 -3l13 10l-6 3h6l14 30l9 7v10l4 -4h6v7l14 6l-4 10l7 17l3 -3h7v9h-7l-3 7l13 7l-3 3l10 -7l3 4l3 -7l4 3l6 -6l4 6l9 -6l-9 -10v-7h6q-6 -23 -14.5 -44.5t-15 -44.5
t-15 -46t-21.5 -43zM205 9l3 -3l4 3l-4 4zM202 13h6l-3 3zM182 16h10v13h-10v-13zM238 26l4 -3h13l-7 13l-13 -7zM341 69l10 -7l6 10l-6 10zM384 76l3 -4l16 7l-13 26l-3 -3l3 -13v-4l-6 4l-7 -7zM311 82l3 -3l4 3l-4 3zM109 82l4 -3h6l4 10l-7 16l-7 -16l4 -4zM66 82l4 -3
l3 3v10l-10 -3l3 -4v-3zM394 118l3 -3l3 3l-3 4zM146 128l3 -3l3 3l-3 7l-3 -3v-4zM370 165h-3v6l7 4zM83 221l-3 -7l3 -3l10 7l-3 19l-7 -9v-7zM149 264l3 -3l10 9l-6 10h-7v-16zM90 270l3 -3l3 3l-3 20l-3 -3v-17zM152 320h10l4 10l-4 30l-10 -23v-17zM132 373l4 -3l3 3
l-7 16l-6 -9zM80 383l3 -3l7 6l-4 10l-6 -7v-6zM126 389l3 -3l3 3l-3 4zM116 389l7 4l-4 3l-6 -3zM251 399h10l-6 27l-4 -4v-23zM86 403l4 -4l3 4l-3 6l-4 -3v-3zM149 449h10v8v8.5t-1.5 6.5t-5.5 7l-6 -7l3 -13v-10zM80 502l3 -4l7 40l-4 20l-16 -36l10 -17v-3zM185 568
l4 -3l3 3l-3 3zM360 624v-7h10l-3 17l-7 -7v-3zM60 680l3 -3l3 3l-3 4zM380 700l4 -3l3 3l-3 7l-4 -4v-3zM377 707l3 -4l4 4l-7 13l-7 -3zM232 750l3 -4l3 4l-3 3z" />
    <glyph glyph-name="f" unicode="f" horiz-adv-x="428" 
d="M6 0l-6 9l3 7l-3 10l3 3l-3 7h6v10h-6l29 7v6l10 -6l4 3l-4 13l10 7l4 -3l6 6l-10 13l-3 -3l10 7l-3 6l3 4l-7 3v10l7 7l-3 3h6l4 20l-14 13v7l10 3l-6 3v4h6v6l-6 7h10v17l-14 6l4 4l-4 33l7 3l-3 7l6 16l-10 4v13l10 16l-10 24l4 3l-4 7l4 6l-4 7l4 3l-4 10h7l3 17
q-3 3 -4.5 6.5t-1.5 6.5v8v9l3 3l-3 3l3 10l-7 10l7 7l-7 3h10l4 20l-4 10h-6l-4 20h7v17h-7v33v-4l4 -3l13 13l-3 10h-7v10h-7l4 4l-4 3l7 3l-7 23h7v7l-3 3l3 10h-7v27l4 3l-4 7l4 3l-7 4l-3 6l3 3l-7 10l-3 -3l-36 17l3 3l-3 3l6 4l-3 3l3 7l-6 13q3 7 8 8.5t13 1.5h15
h13l4 -10l3 7l23 3v-7h7q6 7 13 7h13.5h15h14.5v-10l10 -3l7 13h10l23 -10v10h50l3 -3l70 3l-4 -3l17 -4l27 7l3 -3l3 3l-3 -10l17 -7l19 -43l-10 7l-3 -7l17 -10q3 -6 6.5 -14.5t3.5 -17v-18.5t3 -16l10 -4l7 -43l-20 -10l-4 7l-13 -7l-7 17h7l7 -13l3 20l-10 10l-10 -4v-6
l-46 66l-14 13l-3 -3l-3 10l3 3l-7 4l-3 -4l-26 27l-4 -4l4 10h-7l-7 -10l-6 14l-27 -10l-7 3l-9 -3l-17 3v-7l-20 -19l-7 -73l4 -70l-4 -7l4 -3l-4 -13h-6v-7l10 -7v-20l-10 -16l6 -4v-3l-6.5 -6.5t-3.5 -6.5v-8v-9h10v7l10 -17l24 -3l13 7l3 -4l10 14l-3 3l23 43h3l4 -3
l3 6l-3 17l6 27h7v6l10 -3l10 -10l-3 -10l3 -56l-3 -7l3 -3h-7v-10l4 -4l-4 -10h7v-79l-3 -7l3 -80l-7 -13l-16 -3l-7 3l-3 33v-10l3 -3l10 23l-13 10q-4 10 -5.5 18.5t-5 16.5t-8.5 16.5t-11 15.5l-27 10l-23 -10l-7 -17l4 -10l-4 -3l4 -7l-10 -3l10 -4h-10v-9l3 -7l-3 -3
q3 -4 6.5 -4t3.5 -5v-8v-7l-7 -23h7v-50l-4 -3l4 -3l-10 -4l6 -3q4 -13 4 -29.5v-31.5v-31.5t10 -26.5l39 -17l-13 -7v-6l10 -14l-3 -3l6 -13l-3 -3l-13 3l-40 -3l-3 9l-4 -6l-26 -3l-7 6l-6 -6v6h-7l-7 10l-13 -16q-3 6 -8 6h-10h-10h-8l-17 -6h3l4 3l-24 6v-9h-23zM222 19
l-3 4l-4 -7l4 -3zM205 49l-3 4l-3 -4l3 -3zM63 96l-4 3l-3 -3l3 -4zM136 119v3l-4 4l-3 -7l3 -3zM49 136l4 3v-3h-4zM165 139l4 3l-10 10l-7 -10l10 -6zM162 162v7l-10 13l-3 -10l10 -13zM126 162v10h-10v-10h10zM155 202v3l-3 4l-3 -7l3 -3zM159 212v7l-4 3l-3 -10l3 -3z
M116 219v6l3 13l-10 10l-7 -10l10 -23zM99 238v7l3 13h-6l-7 -20h10zM132 308v10h-13v-10h13zM116 338v3l10 17l-7 13l-10 4v-37l3 -3zM146 358v20h-10v-17l6 -6zM248 391v7l-6 20l-4 -27h10zM99 550v14l-10 10l-7 -17zM96 590l-7 4l-3 -4l6 -3zM368 617v13l-3 3l-7 -16h10z
M338 657l-3 3l-4 -3l4 -4zM39 703l-13 3l-3 -3l13 -3zM384 703l-3 3l-3 -6l3 -4zM381 710v3l-10 7l-3 -4l10 -13zM116 746l-4 4l-3 -4l3 -3zM99 750l-3 3l-4 -3l4 -4zM235 750l-3 3l-4 -3l4 -4z" />
    <glyph glyph-name="g" unicode="g" horiz-adv-x="493" 
d="M204 0v3l-6 6l-16 -6l-10 3l-3 7l3 9l-3 4l-10 -7l-20 7l-10 22l-6 -6l-3 10h-7l-6 23h-7v13h-10v6h-6l-4 26h-13l-6 23l3 13l-10 3l7 7l-13 6l3 4l-6 9l3 7l-10 23l7 16l-10 3l-10 36l7 10l-7 3v13l3 -3l4 16h-7v13.5t-4.5 11.5t-3 13t1.5 15l3 13l3 -4l3 10h-9v10l3 10
l10 3l3 13h-7v7h-6v3l3 3l-3 3l10 23l3 -3l3 6h7v13l-4 10l-9 10l6 23l7 -3l3 3l-3 6l3 10l-3 3l9 13l-3 4l3 3l-3 3l7 17l-4 3l10 3v7l3 -4l4 7l-4 3l10 26h10v7l-3 6q3 4 3 8.5t1.5 9.5t6.5 6.5t8 5.5l-3 3l20 6l-7 10l20 10v8t3 8.5t6.5 6.5t6.5 6l29 13l-6 4l6 3l4 -3
l6 9l3 -3q4 7 12 8.5t13 3t13 1.5h15l3 -3l10 3l6 -3l13 3l23 -13l3 3l43 -22l3 -10h13l10 3l6 33h10l3 -13l4 6l22 7q7 -17 7 -36.5v-37.5t1.5 -35.5t1.5 -37.5l-6 -20l3 -6l-3 -3l6 -4v-9l-6 -14l3 -3l-3 -6l6 -30l-3 -6l6 -30l-16 -6l-10 6l-3 -3l-16 3l-3 10h9v7l-3 3
l3 3l-9 13l9 4v9l-6 7l-7 -13l-3 16l7 7l-10 3l3 6q-6 7 -9.5 12t-5 13t-5 14.5t-3.5 13.5l3 9l-3 4l3 3l-19 20l-3 9l3 7l-7 6h7v13l-3 4l-10 -7l-10 13l-23 13l3 4l-6 13l-3 -10h-17l-6 6l-10 -6l-3 6l-3 -3l-10 3v-13l-20 -13l-3 3l-7 -6l7 -3l-13 -20h-7
q-3 -19 -9.5 -35.5t-9.5 -36t-8 -37.5t-2 -38l-7 23l-9 -42h6l7 10v-30l-4 -10h-6v-16l6 -52l-6 -20l3 -9l-3 -4q3 -6 4.5 -11t1.5 -11.5v-13v-13.5l-6 -6l6 -3q0 -23 3.5 -47.5t5 -47.5t6.5 -46t12 -45l-4 3l-3 -10q7 0 10 -1.5t4.5 -6.5t5 -8t3.5 -10l11 -11l10 -10
t11.5 -5t13.5 -3l19 13l7 13l9 6l4 -3l6 16l-6 13l19 66l-3 9h-10v13l3 7l-3 7l3 3l-3 6l7 33l-7 26h7v7l-10 9l-3 -9l-33 19l3 3l-6 10l-3 -6l-4 13l7 6l-7 10l4 7h3l3 -4l29 4v-7l13 -3l20 10l10 -4v-6h10l3 10h16l-3 -17h10v17l10 -4l6 4l3 -4l13 4l4 -4l45 4l4 -4l22 4
l4 -40l-23 -9l-3 13h-10v-13l3 -4q-7 -3 -10 -9.5t-4.5 -11.5t-3.5 -11.5t-5 -12.5l3 -26l-3 -20l3 -72l-3 -3l3 -121h-13v-9h-19l-13 26l-17 9l7 4l-16 6l-7 13l-13 -3v-7h-3l-3 4l-7 -13h-6v-10l-17 -3q-3 -4 -3 -7t-3.5 -4.5t-6.5 -3.5t-6 -5zM276 13l-3 3l-3 -3l3 -4z
M296 32l-4 3l-3 -3l3 -3zM364 35l-3 4l-3 -4l3 -3zM283 45v13l-4 3l-3 -16l3 -3zM325 61l3 4l-16 10v-17h10zM273 68l-3 3l-4 -3l4 -3zM165 84v4l-3 3l-3 -7l3 -3zM384 84v20h-10v-20h10zM169 101l3 3l-3 3l3 13l-7 7l-6 -26l6 -4zM312 133v3l3 7l-3 3l-6 -13l3 -3zM315 146
v17h-9v-17h9zM400 166l-3 3l-3 -3l3 -3zM348 267l-3 3l-4 -3l4 -3zM61 273l3 20h-13v-23h7zM345 273l-4 4l-3 -7l3 -3zM341 280v10l-3 3l-3 -16l3 -4zM74 296v20l-13 6v-13l3 -13h10zM35 339v19l-10 13l-3 -22l3 -10h10zM126 407v13h-10v-13h10zM139 424v6l3 3l-19 33
l-7 -10l10 -6l10 -30zM381 528l-4 3l-3 -3l3 -3zM90 554v7l-6 6l-4 -13h10zM368 564l-4 3l-3 -3l3 -3zM322 678l-3 3l-4 -3l4 -3zM306 688l-4 3l-3 -3l3 -4zM341 724l-3 3l-3 -3l3 -4z" />
    <glyph glyph-name="h" unicode="h" horiz-adv-x="520" 
d="M10 0l-10 3l13 23l-7 14l4 3l-7 3l23 7l10 -3l17 10l7 23l-4 3l10 10l-3 20l7 14l-4 16h-6l-4 7l10 13l-6 14l3 3l-3 3l3 4l-3 3l3 3l-7 4h7v10h7v26l-7 17l7 7l-7 13l-7 3v44l4 10l-4 26l4 20l-4 30l7 7q-3 3 -5 8t-2 10v10v12l4 13l-4 4l4 6l-4 10l14 7l-4 3l4 4l-4 3
l4 7l-10 20l10 40l-10 13h6l4 20l-7 23l3 34l-6 13l3 3l-3 4l6 3l-6 3l3 4q-3 6 -10 8t-13.5 5t-11.5 5t-12 5l-6 -3q-4 3 -7 4.5t-3 5v8.5v8l3 20h20l7 -3l3 3l7 -3l3 3l3 -10h20l10 4v6h17l7 -3l83 3l20 -3l3 3l4 -3l23 3l3 -6l-3 -17l3 -20l-10 -7l-16 4v-10l-17 -7
l-13 -63q6 -4 6 -10.5v-15v-15v-13.5h-10v-13h10v-40l-6 -17q6 -6 6 -18v-23.5v-23t4 -21.5l33 -10l3 6v-6h10v6h24l3 -3l33 3l17 -3q7 3 7 8v12t1.5 10t1.5 10h7v7l-7 6l7 4l-4 10l7 23h-7l-3 17l3 3l-6 3h10l6 27l-13 3v14l7 6l-4 4l4 6l-4 14h-6l6 3l-6 3v10l16 24l-10 6
l-6 24l3 3l-7 3l-6 30l-10 4l-7 -4l-17 7l-6 10l3 3l-7 7l4 7l-4 16h30l4 -6q3 3 6.5 4.5t8.5 1.5h10h8l7 -10l3 4l7 -4l3 4l-3 3l30 3l23 -6v6h93l4 -30l-4 -13l-10 10l-16 -10l3 -3l-7 -4l4 -3l-17 -13l-7 -14l4 -43l-7 -7q7 -3 7 -9.5v-13.5v-13.5v-13.5l-4 -3l4 -3h-7
v-10h7v-44l-7 -23h7v-60l-4 -3l4 -44l-7 -3q7 -3 7 -11.5v-17v-16.5v-15l-7 -7q7 -3 7 -9.5v-11.5v-12v-13h-7v-17q7 -3 7 -10v-12v-11.5v-13.5h-7v-10q7 -3 7 -8v-11.5v-11.5v-12l-7 -20h7v-47v4l-4 3l-6 -17l3 -3l-3 -3l10 -4v7h3l3 -13l-3 -4l7 -3l3 3l7 -10h16l-3 -3
l17 -7v-30l-14 -3l-6 3l-14 -6l-6 13l-7 -7l-13 7l-20 -10l-4 3l-13 -6l-3 3l-14 -3l-13 6l-3 -3l-7 3q-3 -3 -10 -4.5t-12 -1.5h-11.5h-13.5l-3 3l-17 -3l-20 3l-3 -3l-10 3v20l10 17l-3 6h6l10 -13l17 27l13 6l-3 17l10 7l-3 36l3 7l-3 10l10 7l-4 3l7 23l-7 7l10 3l-16 4
v6l10 7l-7 3v7h7v13h-7l-3 57l3 17l-3 3l3 3l-3 4l3 3l-3 27l3 3l-7 17l-13 6l-17 -3l-20 3l-76 -6l-7 -24l3 -30l-3 -10l3 -33l-10 -3q4 -4 7 -5.5t3 -8v-10v-10.5l-3 -10l3 -66l-3 3l-7 -17h7l3 -63h7l3 -10l7 -3l10 -10v-7h13l7 3l3 -26l-3 -7l-27 -7v-6h-3l-3 6l-34 -6
l-3 10q-3 -4 -8 -7t-12 -3h-12h-11v6l-10 4l-4 -7l-3 7l-3 -10h-34l-6 6l-4 -3v17h-6l-7 -17zM70 3v10l-4 3l-6 -10l6 -6zM80 6v4l-4 3l-3 -7l3 -3zM206 16v4l-3 3l-3 -7l3 -3zM206 33v17l-3 3l-3 -20l3 -3zM400 33v20l-4 10h-10v-17l10 -16zM476 43l-3 3l-3 -3l3 -3zM63 66
l-7 4l-3 -4l7 -3zM403 70v10h-7l-3 -4l7 -10zM160 73v7l-10 23l-4 -10l4 -20h10zM323 80l-3 3l-4 -3l4 -4zM146 110v3h-10v-7l10 -6l4 3zM366 143v23l4 7l-10 17l-7 -30l3 -17h10zM336 196v4l-3 3l-3 -7l3 -3zM153 250l3 3l-6 3l-7 -6l7 -4zM426 260v16l-3 4l-3 -20l3 -4z
M370 296v14l-14 6v-10l4 -10h10zM116 303v13h-10v-10l7 -6zM333 306v10l-3 4l-7 -10zM113 323v13l-3 4l-7 -17h10zM120 343l-4 3l-3 -3l3 -3zM336 346v10h-6l-4 -3l7 -10zM116 350v3l-3 3l-3 -10l3 -3zM263 366l-10 4l-3 -4l10 -3zM320 366l3 4l-10 3v-7l3 -3zM340 363v10
l-7 7l-7 -10zM416 373l4 10l-4 3l-6 -13l3 -3zM280 376v10h-10v-10h10zM423 393v3l-3 4l-4 -7l4 -3zM393 456l3 7l-6 7l-4 -14l4 -3zM176 463v33l-3 4l-7 -27l7 -13zM396 470l-3 3l-3 -3l3 -4zM400 503v20h-10v-13l6 -10zM96 506v7l-3 3l-3 -10l3 -3zM346 570v3l7 17l-10 3
l-3 -23l3 -4zM446 596v4l-3 3l-3 -7l3 -3zM323 683v3l-3 4l-4 -7l4 -3zM316 700l-3 3l-3 -3l3 -4z" />
    <glyph glyph-name="i" unicode="i" horiz-adv-x="324" 
d="M54 0v3l-4 20h7l3 13l-6 10h11t8.5 5t8.5 7t12 2v16l-4 4l20 36l7 4l-7 3l-10 23l-3 -23v20l3 7l-3 20l3 23l-3 3l3 20l-3 10l3 7l-3 23l3 4l-3 3l3 3l-3 27l3 10l-3 3l3 7l-3 7l7 10l-4 3l4 3l-7 14l3 3l-3 10l3 10l-3 3l3 10l-3 7l3 3l-3 10l3 20l-3 4l3 10l-3 3l13 17
l-6 20h-7l10 16l7 4l-7 3v7h-10v6h7v24l-4 3l-3 -10v10h7v53l-4 4l-3 -7v3l3 10l-3 4h7v13h-7v10l3 7l7 3l-10 3l3 4l-3 6l3 4l-6 20l3 3l-17 17l-3 -4l-10 10l-3 -3l-17 3l-3 20l3 4l-3 3l3 3l-3 4l3 16l3 -3l4 3l3 -3l3 3l17 -6v6l3 -3l44 3l3 -3l3 3l17 -3l33 3l4 -3l6 3
l4 -3l20 3l3 -6l20 6l7 -3l3 3l13 -3l7 3l7 -3l3 3l3 -23l-3 -10l3 -13l-43 -14l-10 -23l-10 -3l10 -7v-70l-3 -27l3 -33l-3 -17l3 -76l-7 -14l7 -3v-23l-3 3l-7 -7l3 -3l-3 -13h10v-84l-3 -3l3 -7l-3 4l-4 -10h7v-7l-10 -3l10 -4v-13h-7l-3 -27l3 -3l7 10v-23l-3 -4l3 -40
l-3 -3l3 -3l-3 -10l3 -7l-3 -3l3 -17l-3 3l-4 -40l4 -3l3 3l7 -23q6 0 11 -5t12 -8.5t15 -3.5t8 -6l-3 -4l3 -6l-3 -20l3 -4l-3 -6l-3 6l-14 -6v3l4 3l-7 7l-3 -13l-10 6l-4 -6h-13l-20 3l-50 -3l-7 3l-43 -3l-7 10q-3 -7 -8 -8.5t-11.5 -1.5h-13.5h-13zM44 33v7l3 3v-7z
M127 80l3 3l-16 13l-7 -16l17 -4zM180 106v20l-3 4l-3 -24l3 -3zM164 200v3l-14 17l-3 -7l13 -17zM134 230v13l-7 13l-3 -26h10zM127 260v10l-3 3l-4 -17l4 -3zM110 290l14 16l-7 10l-13 -26l3 -4zM144 300v13l-4 3l-3 -16l3 -4zM147 320l-3 3l-4 -3l4 -4zM214 343v20
l-10 10l-4 -20l4 -10h10zM160 353l-3 3l-3 -3l3 -3zM157 360v13l3 17l-3 3l-7 -33l4 -4zM200 443l4 7l-14 6v-16h7zM144 460v23h-10v-20l6 -7zM197 466v10l3 14l-3 3l-7 -27l4 -3zM97 496v7v-3l3 -4h-3zM204 496l-4 4l-3 -4l3 -3zM194 506l-4 4l-3 -4l3 -3zM104 626v4l-4 3
l-3 -7l3 -3zM90 696l-3 4l-3 -4l3 -3z" />
    <glyph glyph-name="j" unicode="j" horiz-adv-x="458" 
d="M171 0l-26 6l10 23l-7 7q-3 -4 -6 -7t-3 -8v-10t-7 -5l-20 10v6l-16 4l-3 13h-7v6h-6v10h-7v7h-13l-16 46l6 13h-6h6v13h-6v3l3 3l-3 17l3 3l-3 3h6v10l-3 3l3 14l7 3l3 -3l10 22l19 7l-3 3l23 7l7 -3l23 3l6 -3v-7h10l3 -7l3 4l27 -46l-4 -13l4 -40l-4 -6h-6v-7l3 -3
l-20 -23l-19 -3l6 -3l-13 -4v-10l40 -9l13 3v6l16 4q-3 6 0 12.5t6.5 11.5t5 10t4.5 12h7l7 52h6v30l-10 6v16l10 23l-3 4l3 3q-6 3 -8 8t-2 13v15v13l7 16h-7v17l13 19l-3 4l3 10l-13 29l4 3l-4 36l10 13q-3 4 -6.5 9t-3.5 11.5v13v12.5q7 4 8.5 10.5t5 11.5t5 11.5
t1.5 12.5l-3 13h-10v-6h-3l-4 6h7v10h-7v23l7 10l-3 3l9 10l-3 3l3 4l-13 6v16h7v20l-3 10l3 3q-3 4 -5 7t-2 8v8t-3 7l3 3l-6 13l-10 -3l-7 3l-3 -3l-3 6l-13 -3l-13 7v16l6 7l-6 9l3 10h26v-6h7l3 3l-3 3l13 -6l26 6l3 -6l3 6h17l13 -6q3 6 11.5 6h15h14.5h15l39 -10
l29 10l4 -13l-4 -13l4 -13l-4 -7l-9 -3l-4 7l-13 -4v-6l-6 3l-4 -3l-3 3l-10 -16l4 -4l-10 -29l3 -26l-3 -4l3 -88l-3 -3l3 -49l-7 -7l7 -3v-7l-3 -3l3 -10l-7 -13q4 -3 5.5 -8t1.5 -11.5v-11.5v-12l-3 -3l3 -36l-7 -3l7 -23l-3 -3l3 -76h-7v-6l7 -10l-3 -7l3 -19l-3 -4
l3 -13l-7 -55h-6v-7l3 -3l-13 -3l10 -7l3 3l-10 -26l-9 -3v-10l3 -3l-26 -40l-7 7l-16 -13l3 -10l-3 3l-4 -3l-3 3l-20 -13l4 -3l-36 -13l-10 10l-13 -10l-10 3v-6h-20zM99 29l-3 3l-3 -3l3 -3zM93 42l-4 3l-3 -3l3 -3zM270 55l3 10h-17v-7l10 -6zM234 72v13l-4 3l-3 -16
l3 -4zM276 88l3 3l-16 10v-16h10zM224 95l-4 3l-3 -3l3 -4zM234 101l3 3l-3 4l3 6l-7 7l-6 -23h6zM335 111v20h-10v-20h10zM263 160v3l3 7l-3 3l-7 -13l4 -3zM266 173v17h-10v-17h10zM351 186v7l-6 6l-10 -23l20 -9v13zM283 235v13l-7 30l-6 -33l3 -10h10zM299 294v4l3 9
l-10 20l-6 -23l10 -13zM332 311v10h-10v-10h10zM348 324v6l-3 17h-13v-10l3 -13h13zM279 399v10l4 3l-10 13l-3 -23l6 -6zM351 475l-3 3l-3 -3l3 -4zM230 504l4 3l-4 7l4 3l3 -10zM286 524v13h-7l-9 -13l3 -4zM342 540v10l-7 6l-6 -16l3 -3zM253 563v7l7 6l-20 7v-20l10 -3z
M273 599l-3 3l-4 -3l4 -3zM276 602l-3 4l-3 -4h6z" />
    <glyph glyph-name="k" unicode="k" horiz-adv-x="539" 
d="M26 0v6l4 4l-4 10l4 3l-4 20h-6v3l30 4q6 13 11 28t7 33.5t3.5 35t1.5 33.5l-3 13l10 50l-4 23l4 4l-7 3v20h7v20l-7 17l7 -7l3 13l-7 10l4 14l-4 3l-6 -3v23l3 10l13 7l-6 6l-4 -3l-6 3v90l3 4l-3 33l10 13l-10 4v23l3 3v-10h10v7l10 -3l7 20h-14l-6 -4l-4 24h-6
l6.5 6.5t3.5 8.5v10v11l-10 7l6 20l-3 3l3 4l-23 23l-33 13l6 17l-6 17l3 6h20l3 -6l4 3l10 -3v6h6l4 -10q6 4 13 5.5t15 3t16.5 1.5h15.5l3 -6l3 3l4 -3l33 6l3 -6q4 6 9 6h10h10h11l10 -3l4 -7l13 10l7 -3v-17l-7 -20l3 -3l-40 -20l-13 -10l-3 -13l6 -4v-156h-6v-14
q3 -3 4.5 -9.5t1.5 -11.5v-12v-13h-6v-17h13l10 3l7 20l3 -3l7 7l-7 3l10 17v-10h7l10 3v7l-10 6l13 7l-7 7l17 26h17v14h-7l-3 -4v4l20 13l3 -3l10 16l-10 7v3q7 10 15 20t13 20l10 20t12 20h7v14l-10 20l10 3l-24 17l-3 -7h-13l-20 7l-4 40l4 3l16 -3l10 3l4 -3l3 6h10
l10 -6q10 3 21.5 4.5t23.5 1.5h23.5h24.5l4 -3l3 3l10 -6q3 3 6.5 4.5t7 1.5h8.5h8l7 -40v10l-4 4l-3 -20h-17l-3 3l-10 -3v-7l-33 -17v-6l3 -4l3 4l-30 -47l-10 -3l4 -4h-7v-6h-7q4 -7 0.5 -13.5t-5 -11.5t-6.5 -10t-5 -12h-7l-10 -27h-7l-3 -16l-13 -4l6 -3v-3l-6 -4l3 -3
l-7 -20l80 -200l-3 -3l7 -24h6l17 -46l-7 -7l14 -7l13 -36l-7 -7l7 -17l10 -3l20 -60l3 3l27 -30v-10h7l3 4l3 -24h7v-10l-3 -6l3 -7h-10l-7 7l-6 -10h-4l-3 3l-3 -3v6h-20l-30 -6l-4 3l-13 -3l-3 3l-4 -3l-6 6l-10 -3l-14 3l-3 -3l-3 3l-4 -6h-26l-24 6l-3 -3l3 -3h-6l-4 3
l-3 -3l-3 3l-14 -3l4 3l-7 3l-7 20h7l3 20l27 14l3 -4l7 17h7v23l-14 4l-3 -4v20h-7l7 7l-7 3l-3 24l-13 10l-4 13l7 13l-3 10l-14 4l-16 46l3 4l-10 10l3 3l-3 7l7 3l-7 7l-7 -4l-3 27l7 7l-20 13l-4 13l10 4l-3 13l-27 3v-8v-8.5t-3 -6.5t-3 -7h-7v-6l-3 3l-10 -7l6 -6
l-3 -4l3 -46l-10 -10q4 -7 7 -12t3 -13.5v-15v-13.5l-6 -16h6v-37l-6 -13q6 -4 6 -10.5v-13t2 -11.5t2 -12l-7 -7l10 -6v-7l27 -17l13 4l3 -10l-3 -4l7 -3v-7l-4 -3l4 -20l-30 -3l-4 3l-6 -3l-4 13l4 20l-7 10l-7 -43l-3 6l-30 -6l-3 6l-4 -6h-13l3 3l-23 3l-7 -6l-3 3
l-23 -3l-14 6l-16 -6v6h-14zM423 6l10 24l-7 6l-6.5 -6.5t-3.5 -6.5v-8v-9l4 -3zM170 10l-4 3l-3 -3l3 -4zM146 13l-3 3l-3 -3l3 -3zM510 20l-4 3l-3 -3l3 -4zM490 26v14h-10v-14h10zM173 40v3l-3 3l-4 -6l4 -4zM213 53l-3 3l-4 -3l4 -3zM330 53l-4 3l-3 -3l3 -3zM173 56v17
l-3 3l-4 -20l4 -3zM366 56v20l-3 10h-10v-16l10 -17zM370 93v10h-7l-3 -3l6 -10zM416 90v6l4 10l-7 10l-7 -16l4 -4l-4 -3zM126 96v10l4 24l-20 10l-7 -10l10 -7l3 -27h10zM330 110v3l-4 3l-3 -6l3 -4zM450 140v3l-4 3l-3 -6l3 -4zM113 153v17l3 23l-10 17l-6 -37l3 -20h10z
M333 166v24l3 6l-10 17l-6 -30l3 -17h10zM120 273l3 3l-7 4l-6 -7l6 -3zM280 283l-4 3l-3 -3l3 -3zM393 283v17l-3 3l-4 -20l4 -3zM286 306l4 20h-7l-7 -23h7zM156 320l14 16l-7 10l-13 -26l3 -4zM253 320l-3 3l-4 -3l4 -4zM336 320v13l-13 7v-10l3 -10h10zM300 330v10l-4 3
l-6 -10zM236 343l-3 3h3v-3zM226 356v10l-13 20l-7 -10l10 -20h10zM86 366l-3 4l-3 -4l3 -3zM303 370v10h-7l-3 -4l7 -10zM83 373v3l-3 4l-4 -10l4 -4zM253 383v3l-3 4l-4 -7l4 -3zM306 386v10l-6 7l-7 -10zM246 400v10h-10v-10h10zM143 486v34l-3 3l-7 -27l7 -13zM270 523
l-4 3l-3 -3l3 -3zM183 613l10 20l-10 7l-7 -27l4 -3zM76 686l-3 4l-3 -4l3 -3zM433 693v3l-3 4l-4 -10l4 -4zM343 703l-3 3l-4 -3l4 -3zM413 750l-10 3l-3 -3l10 -4z" />
    <glyph glyph-name="l" unicode="l" horiz-adv-x="491" 
d="M42 3q-3 3 -4.5 6.5t-1.5 8.5v10v8l13 17q7 0 12 1.5t10 5t10 6.5t8 7l3 -14h10v14l-6 6l3 3l-3 4l6 40l-3 39l3 17l-3 7l3 16l-3 17l3 3l-3 3l3 27l-3 3l3 4l-3 33l3 3l-3 4l3 3l-3 30l3 6l-3 37l3 3l-3 3l3 7l-3 47h7v6l-7 23l3 10h7v20l-7 14l10 23l-6 26l3 -3l3 7
l-3 3l3 3l-3 4l3 6l-13 14l3 3l-3 3l10 4v9l-3 4l3 20l-7 13l10 10l-3 10l3 3l-23 17v6l-13 4v3l3 3l-33 10l3 4l-3 6l10 17l-4 7l14 -4q6 10 18 10h23.5h23h24.5l7 -10q7 7 18.5 8.5t21.5 1.5h21.5h21.5l10 -6l6 3v-7h7l7 10l3 -10l-3 -3l3 -3l-3 -24l3 -6l-17 6l-13 -3
v-12t-5 -8t-8 -6.5t-7 -6.5l4 -3l-7 -4l3 -3l-3 -7l3 -3l-3 -3l3 -20l-3 -17l3 -7h-6l-4 -9l10 -4v-16l-3 -14l3 -10l-3 -10l3 -46l-3 -3l3 -63h-3l-3 3l-4 -10l4 -3l3 3l3 -43l-6 -10q3 -3 4.5 -10t1.5 -13.5v-13v-13.5l-3 -3l3 -20l-6 -3l6 -4v-36l-3 -24l3 -33l-3 -3
l3 -3l-3 -4l3 -3l-3 -13l3 -24l-3 -26l-10 -3l13 -7v-37l-3 -3l3 -10q10 0 18.5 -6.5t18.5 -5t20 -3.5t20 -5v10h6l4 -3l3 7l17 6l19 27l4 -4l13 10l-7 4h7l13 33l10 3v10l10 -3v6l10 4l3 10l-3 3l7 17l10 -4v10h-7l-3 7l13 7l-3 3h3l7 -7l3 4l3 -7l4 3l6 -6l4 6l10 -6
l-10 -17h6v-13q-10 -20 -16.5 -40t-13 -41.5t-15 -41.5t-18.5 -40l-20 -3l-6 6l-4 -6l-3 3l-3 -3l3 3l-17 7l-3 -7l-23 -3l-10 6q-7 -6 -15 -6h-16.5h-17h-17.5h9l4 3l-13 7l-7 -10h-17l-3 13h-7l-10 -13h-53l-6 6l-4 -3l-3 3l-3 -6h-14l-19 6l-20 -6l-4 3l-3 -3l-23 6z
M271 6l-3 3l-3 -3l3 -3zM205 9v7l3 10h-10v-17l4 -3zM245 9l-3 4l-4 -4l4 -3zM159 19v10l-7 7l-3 -17h10zM288 23v6l-13 7l-7 -7zM258 46v7l-10 10l-6 -10zM242 59l-4 4l-3 -4l3 -3zM388 66v3l3 7l-7 6l-10 -13l10 -6zM424 76l13 3v10l-13 17l-3 -14l3 -6h-3l-4 3l-6 -7
l10 -9zM351 82l-3 4l-4 -4l4 -3zM179 106l3 3l-17 13l-6 -16l16 -4zM434 119l-3 3l-4 -3l4 -3zM205 126l3 6l4 -3l3 10l-13 10l-4 6l-3 -9l7 -10h-10v-7l10 -7zM401 165v7l7 3v-6zM205 169l-3 3l-4 -3l4 -4zM169 192v17h-10l-4 -10zM431 199l-4 3l-3 -3l3 -4zM215 225v3
l-13 17l-4 -7l14 -16zM185 255v13l-6 14l-4 -27h10zM179 285v10l-4 3l-3 -16l3 -4zM162 315l13 16l-6 10l-14 -26l4 -4zM202 315v3l3 10l-10 20l-7 -23l10 -14zM212 378l6 26l-3 14h-10l-3 -34l6 -9zM195 484v23h-10v-20l7 -6zM192 537v7l3 10l-13 6l-10 -13l3 -3l7 3l6 -13
zM89 700l-3 3l-4 -3l4 -4z" />
    <glyph glyph-name="m" unicode="m" horiz-adv-x="536" 
d="M35 3l-14 3h7l3 23l-3 3l10 10l-7 7l-10 -7l4 4l-4 3h7v6l7 -9l9 13l4 -7q3 3 6.5 8t5 10t1.5 11.5t3 10.5l3 -4l10 20l-13 3v17l13 6l4 10h-7l-3 7l6 3l-3 10h-10v3l13 46l-13 30h10l3 23l-6 13l-7 3v7l10 53h-7v6l4 4l-7 3v3h7l3 30l-10 6v13l7 23l-4 17l4 10l-7 29h7
v14l3 -4l3 13l-10 40l4 26l-7 27h10l3 13l-3 10l3 9l-13 10v7l10 39l-3 10l-20 4l-3 -4l-23 7l-4 -7l-9 27l13 29h13l26 -6l13 6l27 -6l13 6l26 -10l13 4v6l27 -3l9 3v-6h14v-4l-4 -13l4 -3l-4 -3l7 -4v-3l-7 -3l13 -7v-33l-6 -6l13 -7l10 -43h-7v-13h7l7 -26l-4 -3l4 -23h6
l-3 -17l3 -23h7l-7 -3l7 -4l-4 -19l10 -17h-10v-23h10l10 -29l-3 -10l6 -20h10l4 3v-19h9l4 23l-13 6l9 17l-6 19l10 4l-10 3h10v7l-10 6l13 7l-7 19h7v17l3 -7l10 20l-10 10l10 20h7v13h-7l-3 20l3 3l7 -3l3 3l-3 3l10 20l-10 16l3 4l10 -4l3 4l-3 3l3 3l-6 3l-4 7l4 7
l-4 13l10 6l7 23l-3 7h6l3 20l-3 10h-6l3 9h6l7 20h3l27 -6l3 6h10l16 -6l3 3l20 -10l13 7l-6 3l36 3l23 -6l3 -17l-3 -20h-7v-9l-3 3l-3 -7h-3l-4 4l-19 -27h6l-16 -46l10 -3l-7 -33l10 -33h-7l-3 -20l10 -19l-10 -7l3 -3l-3 -10l10 -36l-3 -17l3 -23l-3 -16l3 -23l-3 -17
l3 -23l-3 -16l3 -23l-3 -20l3 -10l-10 -6l10 -4l-10 -3l7 -3l-4 -4l4 -6l-7 -33h7l3 -30h-7v13l-10 4l-3 -7l3 -20l-3 -13l7 -6l6 6l-3 10v-6l3 -10h7l-10 -7l10 -3l-10 -3l-13 -23h13v9v-9l-3 -4l10 -3v-3l-4 -4l7 -3h-7l-3 -26l16 -13l-3 -4l20 -13l6 3q4 -3 7 -4.5t3 -5
v-8.5v-8l-6 -23l-23 -3l-20 3l-13 -3l-4 3l-6 -3l-17 3l-23 -3l-3 6l-23 -6l-6 3l-10 -3l-17 3l13 7v10l-6 6l-10 -3l-7 -10l-10 3l-13 -6l4 -4l-4 -3l-3 13l3 7l10 3l3 10h-9v7h-7v3l7 6l9 -3l20 7l10 19l-6 23h6l7 17l-4 3l4 4l-4 3l4 3l-10 7v3h6v46l-3 3l3 17h-6v3h6v10
h-6h6l4 10l-7 6l3 4l-6 3v3h6l4 10l-7 3h7v7l-7 10l7 3l-10 10h10v7l-7 23l3 23l-3 3l7 3l-7 13l3 4l-3 3l7 7l-7 19h13v13h-16v4l6 3l-3 3l3 4l-3 3l10 6l-7 4l-3 10l7 29h-7l-10 -33l4 -16l-4 -7l-10 4v-7l4 -3l-4 -7l7 -6h-7v-10h7l-7 -17h-6l-4 -46l4 -3l-4 -10l-13 -3
v-10h7v-3l-3 -14l3 -13l-23 -46l6 -33l-13 -36l4 -10h-7l-3 -10l3 -3l-3 -3l3 -3l-3 -4l3 -13l-3 -7h-7l-3 -26l3 -16h-6l-14 -27l4 -3l-4 -10h10v-3l-3 -7l-30 4l-6 -4l-7 14l10 23h-7v6h-6l-3 10l9 23l-9 7q0 3 -3.5 8t-5 8t-1.5 10v10h-7v6h7v14l-4 13l4 10h-7l3 3l-9 23
l-7 3l-3 17l3 3l-3 3h6v17l-6 19h-7l-10 33l4 10l-10 30l3 6l-3 7l6 13l-3 10h-10q0 10 -1.5 18t-3 18t-3.5 16.5t-5 16.5h-10v10h-13v-13l16 -56l-10 -30l4 -10h6v-6l-3 -17l3 -13h-6v-16l6 -33l-3 -23l3 -17l-3 -16l3 -13l-6 -4l3 -3l-7 -3q7 -3 7 -10t1.5 -11.5t1.5 -9.5
v-12h-6v-16l6 -23l-3 -7l10 -23l23 -7l3 -13h7l10 4v-14l-4 -6l4 -3l-17 -10l4 -10h-7l-36 10l-4 -10l-9 13l-10 -10l-4 3l-3 -6h-10l-3 10l-10 3l-29 -7v-6zM469 46l-13 29l-7 -20l17 -13zM265 65l-3 4l-4 -4l4 -3zM262 78l3 30h-10l-3 -33h6zM373 92v16h-9v-13l6 -7z
M383 151v10l-6 19l-10 -16l3 -13h13zM225 154v20h-10v-20h10zM400 213v17l-4 3l-3 -20l3 -3zM439 223l-6 4l-4 -4l7 -3zM403 233v3l-3 4l-4 -7l4 -3zM199 236v7h-7l-3 -3l7 -7zM298 240l-10 23l-7 -10l13 -17zM242 243l3 10l-3 3l-7 -13l4 -3zM248 266l-3 3l-3 -3l3 -3z
M169 286l4 3l-7 10l-3 -13l3 -4zM364 305l3 4l-3 16h-10v-10l6 -13zM416 309l-3 3l-3 -3l3 -4zM413 315v7l-3 3l-4 -13l4 -3zM215 322v10l-6 6l-3 -16h9zM215 338l-3 4l-3 -4l3 -3zM215 371v7l-6 13l-3 -13l6 -10zM357 384v4l-3 3l-4 -7l4 -3zM87 394v10l-3 3l-7 -13h10z
M100 411v3l4 20l-7 10l-7 -30l7 -7zM387 411l-14 3l-3 -3l13 -4zM377 417v4l3 19h-10l-6 -13l9 -13zM189 421v16l-10 13l-6 -13l6 -16h10zM360 454v3l-3 3l-3 -6l3 -4zM235 460v3l-3 4l-3 -7l3 -3zM245 463l-3 4l-3 -4h6zM400 493v10l3 10l-13 6v-23l6 -6zM100 516v16l-6 7
l-7 -16l10 -10zM341 519l3 10l-7 7l-6 -10l6 -10z" />
    <glyph glyph-name="n" unicode="n" horiz-adv-x="522" 
d="M394 0l-19 22l3 7l-13 26l3 3l-6 3l-4 13l-3 -3l-3 29l-10 3q-3 7 -8 12t-5 11.5t-1.5 11t-4.5 11.5q-4 3 -7 6.5t-4.5 6.5t-3.5 8t-5 8l3 3l-9 23l3 10h-13v3l10 3l-7 4v6h-6l3 3l-13 23l-7 -3v23l4 6l-13 10l-4 -3l-35 74l3 10l-13 29l-10 3l7 7l-26 32l-7 36l-13 10
l7 23l-17 6l7 7l-7 3l-6 10h-10v-20h-6v-10l3 -3l-3 -3l6 -3l3 -7l-9 -36l6 -9l-3 -13l3 -4l-6 -16l3 -3l-3 -3l3 -42l-3 -4l6 -26l-13 20l-6 -10l16 -16l-3 -10h6l3 -65l-3 -75l3 -6l-3 -36l3 -3l-3 -26l3 -10l-3 -13l3 -3l7 3l10 -23h6l3 -6l-6 -23l13 -6l3 16l-3 10l3 3
l-3 3h6l4 -13h9v10l4 -13l-4 -7l4 -3l-7 -3l7 -13l-4 -7h-9l-4 4l-6 -4l-3 4l-13 -7l-13 13l-7 -6l3 -4l-19 -3v7h-7l-3 -4l3 10h-9v-10l-26 -3v7h-23l-7 -4l-6 20h-7l-3 6l-3 -3v7l3 6l-6 7l3 -4l29 13l7 -3l16 16l10 4l6 13l-10 29l10 13l-6 13l3 13l-3 3l6 7l-3 29l3 3
l-6 7l6 22l-3 13l3 7l-3 29l3 3l-10 7l4 3l-4 36l4 3l-4 20l7 22h-7v4l4 3l-4 26l4 9l-4 30l4 3l-4 3l7 26l3 -6l10 13l-7 6l-3 -3l-3 6l3 7l-3 3l3 3l-6 10l3 10l-7 10h7l3 22l-3 7l3 3l-3 29l3 10l-6 16l6 26l-6 20h-10v3l3 13q-10 -3 -14.5 2t-13 6.5t-13 6.5t-11.5 8
l-6 13l6 6l-6 17l16 6l13 -3l26 3l13 -3l26 3l13 -3l10 3l6 -3l10 3l16 -6l7 6l6 -3l7 3l13 -26l-7 -3l10 -10l-3 -13l13 -6l-4 -4q7 -9 13.5 -19t11.5 -21.5t8 -22.5t3 -24h7l9 -26h7l-3 -4l42 -97l-3 -3l9 -7l49 -123h7l9 -39h10l10 36l-13 16h6l10 26l-16 6v26l3 7l10 3
l-10 16l-3 -6v29l3 3l-3 36l3 3l-3 3l6 4l-3 3l3 10h-6v16l3 3l-3 7l6 3l-6 6l6 4l-6 3v13l3 3l-3 13h6l10 23l-13 10v22l10 7v10l-16 6v3l3 7l-3 3l3 3l-23 17l-3 -10l-7 10l-6 -4l-16 7l-4 16l4 13l-4 3l36 7l29 -13l13 13l7 -3l6 6l3 -6l4 6h3l16 -3l23 3l16 -3l3 3
q7 -3 7 -8v-10v-9.5v-11.5h-7l-3 3l-3 -6l-10 -3l3 -4l-29 -9l-3 3l-7 -10l4 -3h-7v-13l7 -88l-4 -36l4 -3l-4 -36l4 -3l-4 -36l4 -3l-4 -36l4 -3l-7 -32l3 -7l-3 -32l3 -10l-6 -13h6l-3 -19l3 -4l-3 -84l7 -39l-4 -36l4 -3l-4 -36l4 -3l-4 -26v6h-9v-9q3 -7 6 -12t3 -11.5
v-13t4 -12.5l-4 -29h-3l-13 3zM436 25l-3 4l-3 -4l3 -3zM98 29l-3 3l-3 -3l3 -4zM108 32v16l-3 3l-3 -19l3 -3zM417 29v13h-10v-13h10zM189 45l-3 3l-3 -6l3 -4zM426 97l-3 3l-3 -3l3 -3zM423 110l7 16l-13 20l-4 -39h7zM371 136v3l-3 3l-3 -6l3 -3zM436 146v6l-6 7l-4 -13
h10zM423 168l10 20h-10v-7l-6 4l-4 -4l7 -16zM417 191l-4 3l-3 -3l3 -3zM420 194l-3 4l-4 -4h7zM426 263l4 3l-10 3v-6l3 -4zM303 269v16l-3 4l-3 -20l3 -3zM365 266v6l3 7l-13 6v-19h10zM413 272v10l4 13h-13l-3 -23h12zM365 324v7l3 16l-6 16l-7 -39h10zM413 344v3l-3 3
l3 23h-9l-7 -10l4 -19l9 -3zM339 373v10l-10 6l-3 -3l3 -3l-3 -3l10 -10zM287 380l3 3l-6 9l-7 -16h7zM323 389l-10 7l-3 -4l9 -6zM332 392l-3 4l-3 -4l3 -3zM290 399v3l-3 3l-3 -6l3 -3zM95 422l-3 3l-3 -3l3 -4zM258 457v7l-7 6l-3 -13h10zM258 470l-4 4l-3 -4l3 -3z
M258 506v10l-7 6l-3 -16h10zM189 522v10l4 7l-10 6l-10 -6l3 -17h13zM124 539l4 9h-7l-6 -6l6 -7zM40 714l-3 3l-4 -3l4 -3z" />
    <glyph glyph-name="o" unicode="o" horiz-adv-x="488" 
d="M222 0l-6 6l-10 -3l-3 6l-6 -3l3 3l-7 3l-3 -3v7h-9v-7h-4l-16 7v9h-6v7h-10l-6 -4l-16 13l6 4l-13 3h7v9h-7l3 4l-13 9l-3 -6v8v9.5t-3 8t-6 3.5l3 10l-10 3l-6 -7l-10 33l3 3l-19 19l-7 16l10 7v13h-10v-7l-9 29l3 3l-6.5 6.5t-3.5 8.5v9.5t-3 7.5l3 7l-6 10h6v9l-9 16
h6l3 10l-6 16l3 10h-6l-3 -3v16l6 13l-3 6l6 3l-3 3l3 13h-9v10l6 3l-6 3l3 20h6v6l-6 19l6 4l-6 3l13 10l-10 3v3l6 3l-6 10l10 3v10h-10v3l13 3v10h6v16l-6 13l-3 -3v3l3 3l-3 3q6 4 6 10v12.5t3 11.5t3 11h7v10l13 3l3 29l-3 7l29 48l9 3l4 10l9 3v7l16 3v6l-3 7h10v6
l3 -3l3 3l4 -3l6 16l35 13l17 -3v9h9l3 -3l39 3l42 -13l3 -6l10 3l6 -6l3 3l36 -29v-10l16 -6l26 -39l-10 -6l23 -16v-20l9 -3l26 -93l-3 -10l9 -19l-3 -7l7 -19l-7 -13l7 -10l3 4v-33l-3 -3l3 -22l-3 3l-7 -10l10 -16l-7 -3l7 -3v-20q-3 -19 -6.5 -38.5t-5 -38.5
t-6.5 -38.5t-14 -35.5l3 -10l-7 -9l-9 -3l3 -4l-6 -3l6 -3l-3 -3l3 -10l-10 -23h-6l-6 -12l-7 -13l3 -4l-9 -3v-8t-3.5 -6.5t-6.5 -4.5t-3 -7h-7l-3 -9l-10 -3l-6 -10l-23 -13l4 -3h-10l-3 3l-16 -16l-16 3l-7 -3l-3 3l-10 -3v-6h-9l-4 6l-3 -6h-26zM200 19l-3 3l-4 -3l4 -3
zM213 57v10l3 -10l35 -3l10 7l10 -4l9 4v13l13 6l-6 3l13 7l6 25l-3 4l6 3l-3 6l10 7l-3 22l3 10v-6h9v6l-3 13h10v6l-3 10h-7v16l3 13h7v6l-3 13l13 10l-13 10l3 3l-3 6l6 10l-3 10l3 6l-3 19l3 4l-3 9l3 10h7v6l-10 7l3 3l-3 13l6 3l-6 3l3 4l-3 3l3 3l-3 6l6 7l-6 6l6 13
l-3 7l3 3l-6 9l3 10h-6v10l6 13l-3 3l3 10l-3 6l6 3l-6 7l-3 -4l-4 17l7 19l-7 16l-6 3v42l3 3l-6 13l-7 3l-3 16l10 4l-16 19l6 10l-13 9v7l-16 6l-6 13l-7 -3l-6 10l-3 -7l-10 7l-7 -4l-3 4l-19 -13l-3 3l-13 -16h-7q0 -16 -6 -29t-9.5 -27.5t-6.5 -29t-7 -27.5l-9 -3
l6 -19l-16 -104l-6 -3l9 -19l-3 -3l3 -23l-3 -3l3 -6l-3 -7l3 -6l-6 6l-3 -19l6 -10l-3 -13h6v-16l-3 -3l3 -3h-6v-7q6 -9 8 -20.5t2 -23t1.5 -22.5t4.5 -21l-6 -6l3 -3l-3 -13h9l10 -42l-3 -3l29 -58l-7 -7l13 -22zM164 96v13l4 19l-7 7l-3 -39l3 -3zM94 109l3 6l3 -3l3 10
l-13 10l-3 6l-3 -10l6 -9h-9v-7l9 -6zM119 115v20l-3 3l-3 -23l3 -3zM335 119v3l-3 3l-3 -6l3 -4zM164 138l-3 3l-3 -3l3 -3zM364 138l3 3l-9 10l-7 -10l10 -6zM94 151l-4 3l-3 -3l3 -3zM361 161v6l-10 13l-3 -10l10 -13zM335 199l-3 3l-3 -3l3 -3zM354 199v3l-3 4l-3 -7
l3 -3zM103 206v3l-13 16l-3 -7l13 -16zM358 209v6l-4 3l-3 -9l3 -3zM432 222l3 6l-3 10l3 16l-3 3l-10 -29l6 -10zM74 235v12l-6 13l-3 -25h9zM68 264v9l-3 3l-4 -16l4 -3zM338 280l-3 3l-3 -3l3 -4zM425 286v13l-3 3l-6 -16h9zM52 293l9 22l-3 3l-13 -25l3 -4zM90 293v3
l4 9l-7 13l-3 -25l3 -4zM422 309v9h-10v-9h10zM345 351v19h-10v-16l7 -7zM100 354v16l-6 16l-4 -26l7 -9zM403 412v3l-3 3l-4 -6l4 -4zM371 418v16l-4 3l-3 -19l3 -3zM139 441l3 6l-13 7v-17h6zM84 457v22h-10v-19l7 -6zM135 463v10l4 13l-4 3l-6 -26l3 -3zM390 466v4l3 6
l-3 3l-7 -13l4 -3zM432 486l3 22h-10v-9l3 -7l-3 -6l3 -3zM84 489v13h-10v-13h10zM142 492l-3 3l-4 -3l4 -3zM132 502l-3 3l-3 -3l3 -3zM81 505v10l3 9l-13 7l-10 -13l4 -3l6 3l6 -16zM390 508v10l-3 3l-4 -13l4 -3zM132 534v10l-16 9l-3 -12l10 -10zM119 573l-6 6l-7 -6
l10 -3zM123 576l-4 3l-3 -3h7zM77 627v10l-3 3l-6 -9zM306 669l-6 4l-4 -4l7 -3zM116 689l-3 3l-3 -3l3 -4z" />
    <glyph glyph-name="p" unicode="p" horiz-adv-x="480" 
d="M26 0l-6 3v10l10 13l-7 17q3 7 10 3.5t12 1.5l10 10l8 8l3 7h10v7l-3 3l10 40l-7 23l4 24h6v10l-6 10l-4 -7v17l4 20l-4 6l4 4l-4 3h7v13l-3 4l3 3l-7 37h7v10h-7l7 3l3 -3l7 16l-13 10l-4 10l10 37l-6 10l-4 -7v14l10 20l-10 6v14h10v10h-6v33l6 10l4 -3l3 10l-13 3
l-4 7l4 3l-4 7l4 3l-4 23l7 4l-3 6h6v10h-10v17l7 60l-7 40l7 3l-43 30l-4 10l-6 -10h-7l-3 30v-3l3 -3l7 13l-7 10l-3 -3l3 3l3 -3l7 6l3 -3l7 3l13 -3l24 3l3 -3l3 3l4 -3l70 3l20 -6l26 6l7 -6l10 6l3 -3l4 3l13 -10l30 10q13 -3 28 -4.5t28.5 -5t25 -8.5t25.5 -12v-13
l13 -7l3 7h4l10 -17l10 -3q6 -7 11 -15t8.5 -16.5l7 -17t6.5 -18.5l-3 -3l10 -33l-10 3v-10l10 -10l-4 -13l4 -40l-4 -10l-10 -4l14 -10l-10 -26l3 -4l-10 -30h-10l-10 -33l-17 -17h-6l-4 -10h-20v-10l-26 -10l-10 4v-7v7h-10l-4 -10l-40 -7v10h-20v-7l-30 -3l-10 7l-3 -7v7
h-10l-10 -30l3 -4l-3 -10l3 -6l-3 -4l3 -10l-3 -3l3 -47h-13v-6h-3l-4 6l-3 -10l7 -6l-4 -10h7l3 3l7 -3l3 -30v6l-3 4l-3 -20h6v-7l-3 -3l7 -70l-4 -4q4 -6 7 -13t8 -12t12 -8t13 -7l10 -3v-40l-16 -3l-4 3l-3 -3l-7 3l-23 -3l-3 3l-30 -3l-4 3l-13 -3l-3 3l-30 -3l-4 3
l-6 -3l-7 3l-7 -3l-3 3l-7 -3l-13 6v-6v6h-7l-10 -6l-3 6q-3 -3 -5 -4.5t-7 -1.5h-8h-7zM230 6v7h-17v-7l10 -6zM190 20v13l-4 3l-3 -16l3 -4zM233 36l3 4l-16 10v-17h10zM180 43l-4 3l-3 -3l3 -3zM50 46l-4 4l-3 -4l3 -3zM83 46v24l-3 3l-17 -7v-10l10 -3l7 -10zM153 130
v16l-3 10h-10v-16l10 -14zM126 220v13l-3 3l-3 -16l3 -4zM186 240v6h-13l-3 -23h13zM193 250l-3 3l-4 -3l4 -4zM236 353l-3 3l-3 -3l3 -3zM246 370l4 6l-7 7l-7 -17h7zM186 383l-3 3l-3 -3l3 -3zM333 383l-13 3l-4 -3l14 -3zM193 386l3 7l-10 10l-3 -17h10zM323 390v3
l-10 17l-3 -10l10 -14zM276 393v13v-6h10v10l4 -14l20 54l6 3l-3 3l10 14l-3 6l6 10l-3 30q3 4 3 10.5v15t3.5 11.5t6.5 10l-10 17l4 3l-7 10h7v7l-4 3l4 10l-7 17l7 16l-4 4l-3 -7h-3l-7 13l3 7l-3 3l-7 -6q4 6 -1 11t-7 8.5t-7 8.5l-8 8l-37 20l-3 -3l-3 3l-4 -6l-26 -24
l-7 -86l3 -40l-10 -7l10 -3v-10h-10v-20l10 -4v-13l-3 -3q3 -14 3 -29v-30v-28t7 -27h7l26 7l10 -3zM133 410v23l-7 7l-6 -17l3 -13h10zM83 420v3l-3 3l-4 -6l4 -4zM310 430l-4 3l-3 -3l3 -4zM423 436l-3 4l-4 -4l4 -3zM190 443l16 43l-3 14h-10v-7l3 -23l-13 -10l-7 -17
l10 -3zM430 446l-4 4l-3 -4l3 -3zM433 456l-3 4l-4 -4l4 -3zM450 466l-4 4l-3 -4l3 -3zM350 486l-4 4l-3 -4l3 -3zM433 496v7l7 13h-14l-6 -10l3 -10h10zM456 530v6l4 17l-14 7v-30h10zM453 596l-3 4l-4 -4l4 -3zM86 663v10h-10v-10h10z" />
    <glyph glyph-name="q" unicode="q" horiz-adv-x="514" 
d="M365 -100v6h-9l-4 -3l-9 3l-7 -3l-16 16l-13 6l-16 39l4 6l-4 7l4 3l-7 3v10h-6l-10 12h-13l-9 -3l3 3l-6 4l-17 -7l-9 3l-3 -3l-10 3l-3 7l-3 -3l-10 3l3 3l-13 3l7 3l-10 4l-6 -4l-7 7l-6 -3l-3 9h-7v7l-13 3l4 13l-13 13l-3 -7l-20 19l4 13l-10 3v7l-10 6l3 4l-16 22
l4 3l-7 7h7v19h-16v3l3 6l-10 26l3 13l-3 3l3 7l-9 16l6 6l-6 3l-7 -3l-3 3h7v10h-7v6l7 7l-4 16h-6l3 3l-3 13l6 3l-9 3l-3 16l6 26l-6 19h3l3 -3l6 6l-12 4v3l6 29l-6 25l6 7l-3 3l6 10l-3 12l3 4l-3 16l16 35l-6 6l3 7l13 10l-7 22l13 6l-3 7l6 19l-3 6l10 13h9v20l-3 3
l-3 -3l6 9l10 7l-3 3l16 16l13 16l3 -3l6 9l7 4l-7 3l13 19h13l6 -3l3 3l-3 6l3 4l-3 3l29 16l13 -7v10l13 3l13 -6q3 6 8 6h9.5h9.5h11q10 -3 21 -3t19 -5t18 -8t19 -6l-3 -3l6 -7l7 3l3 -3l-3 -3l9 -10l7 4l16 -26l10 -3l25 -45l-6 -10q3 -3 9.5 -4.5t8 -8t3 -11.5
t4.5 -11l-3 -13h7l6 -16l-3 -3q6 -10 8 -19.5t3.5 -21t3 -22.5t4.5 -21l-3 -3l3 -3l-3 -3l6 -39l-6 -3l6 -6l-3 -7l3 -22v6l-3 3l-9 -29l3 -9l9 -3v-16l-6 -29l3 -20l-3 4l-6 -13l6 -3v-4l-10 -45l4 -3l-13 -51h-7v-7l3 -3l-19 -6v-10l-6 3l-3 -3l6 -16l13 16h3l-6 -16
l-16 -6l9 -3v-4l-6 -9l-3 3l-10 -29h-6l-13 -26l-10 -3l-10 3v-6l4 -10l-7 -16l3 -3l-6 -3l6 -3l10 -29l16 -3l3 3v-3l-6 -4l13 -3l3 3l-3 4l6 12l10 4v6l6 3l-6 3l-3 7l6 19h6l7 -6l9 9l10 -3l3 -13l10 -6l-3 -7h-7v-19l4 -13l-4 -6l-6 -3l3 -13l-10 -19l-16 -4v-6l4 -6
l-32 -29l-26 -3l-3 3zM343 -91l-3 3l-4 -3l4 -3zM307 -46l-6 3l-3 -3l6 -3zM311 -43l-4 3l-3 -3h7zM330 -40v17h-10v-17h10zM346 -14l-3 3l-3 -3l3 -3zM349 -11l-3 4l-3 -4h6zM445 -11l4 4l-10 3v-7l3 -3zM352 -7l4 16l-4 3l-6 -19h6zM429 -1l-3 3l-3 -3l3 -3zM163 28l-3 3
l-3 -3l3 -3zM291 34v20l-3 9h-9v-16l9 -16zM186 37v4l-4 3l-3 -7l3 -3zM186 44v16l3 3l-13 3v-22h10zM272 63l7 13h6v19h6v10h-6l-6 22l3 13h6v13h-6l-13 16l-3 -3l-13 19l-3 -6l-7 3l-9 -3l-26 -58q3 -6 4.5 -14.5t3.5 -14.5t6.5 -12.5t11.5 -13.5l9 -6l-3 -3l10 -3z
M295 70v9h-7l-3 -3l6 -10zM340 66v7l3 9l-7 10l-6 -16l3 -3l-3 -3zM121 79v3l-3 4l-3 -7l3 -3zM182 89v42l-3 3q-3 -3 -3 -9.5v-13t-3.5 -11.5t-3.5 -11h13zM192 105v3l-3 3l-3 -6l3 -3zM372 115v3l-4 3l-3 -6l3 -4zM192 118l-3 3l-3 -3l3 -3zM288 131l-3 3l-3 -3l3 -4z
M173 166v3l-4 3l-3 -6l3 -3zM423 166l-3 3l-3 -3l3 -3zM426 169l-3 3l-3 -3h6zM436 169l-3 3l-4 -3l4 -3zM169 175v17l-3 3l-3 -23l3 -3zM269 172v7l-3 3l3 3l-10 3v-16h10zM192 192v6l-6 6h6v13h10l12 19l23 10v-6h22v6h26l6 -3l-3 -3l36 -16l3 -10h9l7 16l-3 6q3 4 4.5 7
t1.5 8v8t3 6l-6 4l6 3l-6 3v10l9 19l-3 3l3 13h-6v16h6v16l4 -3l3 13l-13 9v3h6v7l-3 6l3 3l-6 13h6v10q-3 6 -4.5 12.5t-3 14.5t-1.5 16t-3 15l6 13l-6 9l3 3q-3 4 -5 7t-2 8v9.5v7.5l4 -3l3 7l-10 19l3 6l-6 20l10 9l-10 13l3 3l-9 7v19l3 3l-7 29l-9 3l-4 -3l-6 26l-3 -4
l-7 4v6l-19 3l-3 10l-10 3v-6h-22l-13 -13l-16 -13l3 -3q-9 -10 -12.5 -19.5t-6.5 -20.5t-4.5 -22.5t-8.5 -21.5l-6 -3l6 -3v-13h-6v-9l3 -10l-7 -35l-6 -4l6 -9l-3 -26l-6 -3l6 -7l-13 -3v-9l4 -4l3 7l3 -3l-6 -4l6 -9l-6 -3l3 -4l-3 -12l6 -10l-3 -3l3 -7l-3 -19l-10 -6
v-10h7l6 -38l-3 -7l13 -128zM67 204l-3 4l-4 -4l4 -3zM211 230l-3 3l-3 -3l3 -3zM439 233v10h-10v-10h10zM375 246l6 10l-13 6v-16l4 -3zM426 246v10l3 13h-12l-4 -23h13zM462 281v13l-4 3l-6 -16h10zM89 288l13 16l-6 9l-13 -25l3 -3zM381 301v6l3 29l-3 3l-9 -38h9z
M458 304v9h-9v-9h9zM44 323l-3 3l-3 -3l3 -3zM157 326v7l-13 19l-7 -10l16 -19zM426 326v10l-9 16l-4 -6l10 -23zM356 371l-4 3l-3 -3l3 -3zM426 394v13l-6 6l-3 -19h9zM378 429l-6 10l-4 -13h7zM413 435v4l4 3l-4 13l4 12l-20 10l-6 -10l10 -6l9 -29zM372 442v6l-4 3
l-3 -12l3 -4zM150 445l3 6l-6 7l-6 -16h6zM76 448v32l-3 4l-6 -26l6 -13zM375 451l-3 4l-4 -4l4 -3zM417 471l-4 3l-3 -3l3 -4zM163 532l3 9h-6l-7 -6l7 -7zM157 567l-4 3l4 3l-16 4v-7l12 -6zM115 570v3l-3 4l-3 -7l3 -3zM160 570l-3 3l-4 -3h7zM449 577l-4 3l-3 -3l3 -4z
M115 580v9l-3 4l-3 -13l3 -3zM237 702l-3 3l-4 -3l4 -3zM259 708l-3 3l-3 -3l3 -3z" />
    <glyph glyph-name="r" unicode="r" horiz-adv-x="514" 
d="M18 0v6h-7l-3 37l10 -3v6h3l7 -10l6 14l24 16l-4 4h10l4 30l-4 3l17 30l-7 17h-10v16l7 17h-7v70l4 3l-4 7l7 10l-7 27l4 3l-4 3l7 10l-7 44h7l3 10l-3 3l7 3l-14 14l7 13h7l3 13l-3 10h-14h7l3 20l-3 7l3 7l-3 13l3 3l-3 4l3 3l-6 3l3 7l-3 13l3 4l-7 13h4l3 -7l3 10
l-6 7l13 7v10l-7 23l-10 3l4 4l-4 3l4 3l-4 7h7v17h-7v26l4 4q-4 6 -4 14.5v15t-5 13.5t-5 13q-6 0 -13 3.5t-13.5 3.5t-8 8.5t-8.5 11.5l3 7l-3 10l7 16h16l10 -6l34 6l3 -3l7 3l3 -3l20 3l20 -10l13 4v6l4 -6l3 6h3l10 -3l20 3l17 -6q3 6 10 6h13.5h13h13.5l-3 -3l6 -7
l17 7l3 -3l7 3v-7l10 -3l3 7h10l47 -20l3 3l4 -10q6 3 13 0t10 -8t10 -8.5t10 -10.5l3 -10h7l13 -30h7l13 -43l-3 -10l3 -3l-3 -10q7 -4 7 -10.5v-13t1.5 -13.5t1.5 -13q-3 -14 -5 -25.5t-5 -23t-8 -23.5t-12 -22l-10 -6l3 -4q-6 -10 -16 -18t-20 -16.5t-20 -13.5t-17 -15
l7 -3l13 -54l-3 -16l3 -4l3 4q4 -7 4 -13.5t5 -11.5t5 -12t3 -13l-3 -4l6 -13l-3 -10l7 -10l3 3l13 -43l-3 -13l10 -7v-3l-7 -7l14 -13l6 -27l-3 -3l7 -4v-13l13 -13l33 -27v-33l-3 -4l3 -3l-23 -3l-7 3l-3 10l-7 -10l-86 -3l-20 6l-14 -3l-3 7l7 10l-7 3l3 7l-3 3l-3 -3v3
l6 13l-16 4l-20 70l3 3l-7 10l4 3l-4 7l4 3l-4 7h7v10h-7l-6 -10v7l3 3l-3 3l3 4l-7 3v3l4 4l-4 3l4 3l-10 7l-7 37l7 20h-10v6h-7v4l3 3l-3 3l3 4l-6 30l-7 3v17l7 10l-10 6l-4 -3l4 3l-4 10h-10v4l10 3l-6 3l3 7l-3 3l-4 -3l-16 7l-10 -14q6 -3 6 -9.5v-13.5v-13.5v-13.5
l-6 -3l6 -3v-4l-3 -3l3 -40l-3 -3l3 -4h-6v-6q6 -4 6 -10.5v-11.5v-11.5v-13.5l-13 -40l7 -7l6 14l-3 10h3v-37l-3 -3l7 -54l-7 -3l17 -10l-4 -7l4 -3l6 3l34 -13v-13l-4 -7l4 -20l-10 -3l-4 10l-10 -7l-3 3q-3 -3 -6.5 -4.5t-8.5 -1.5h-10h-8l-24 10v-10h-20l-3 6l-3 -3
l-7 13l-20 -6v-7l-40 -3l-3 3l-24 -3l-16 3zM64 3l-10 3l-3 -3l10 -3zM408 0v10h-10v-10h10zM151 6l-3 4l-4 -4l4 -3zM378 6v4l-4 3l-3 -7l3 -3zM391 10l3 13l-3 3l3 4l-13 3l-10 -3v-7l10 -10l3 3l4 -10zM158 53v23l-4 4l-6 -24l6 -6zM298 70l-4 3l-3 -3l3 -4zM301 83v13
h-7l-3 -3l7 -13zM114 86v14l4 20l-7 6l-3 -40l3 -3zM291 110v3l-3 3l-4 -6l4 -4zM114 130l-3 3l-3 -3l3 -4zM321 130l3 3l-10 10l-6 -10l10 -7zM388 143l-4 3l-3 -3l3 -3zM318 153v7l-10 13l-4 -10l10 -13zM311 193v3l-3 4l-4 -7l4 -3zM188 200v10h-10v-10h10zM314 203v7
l-3 3l-3 -10l3 -3zM271 210v6l3 14l-10 10l-6 -10l10 -24zM111 226l7 27h-10l-4 -27l4 -3zM288 300v10h-14v-10h14zM191 326l-7 24l-10 -4v-16h7l-3 -4l10 -3zM301 350v16l-3 4l-7 -17l7 -7zM94 353v10l4 3l-7 7l-3 -20l3 -3zM358 410l3 6l-10 10l-3 -6l6 -14zM258 413v10
l20 13l-4 4l4 -4l13 24l20 10l-10 10l10 13l-3 3l10 37l-4 3l17 7l-3 3l3 4l-13 10v6l6 14l-6 3h6v10l-6 13l-4 -6h-3l3 3l-6 27l3 3l-20 57l-3 -4l-10 10v7h-20l6 3l-10 4l-3 -4l-3 7l-4 -7l-6 10l-4 -6l-30 -17l-6 -13l-4 3l-3 -17l3 -50l-3 -3l3 -3l-3 -4l3 -103l-6 -7
q6 -6 6 -13v-13.5v-15v-14.5l-3 -17l23 -7l24 4v-7h20zM328 423l3 7l-7 10l-3 -17l3 -3zM88 443l3 7l-13 6v-16h6zM408 443l-4 3l-3 -3l3 -3zM294 453l-3 3l-3 -3l3 -3zM144 456v7l7 23l-3 4l-7 -7t-5 -8t-2 -8.5v-10.5h10zM84 466v10l4 14l-4 3l-6 -27l3 -3zM361 473v10
l-3 3l-4 -13l4 -3zM391 490l3 23h-10v-10l4 -7l-4 -6l4 -4zM91 496l-3 4l-4 -4l4 -3zM81 506l-3 4l-4 -4l4 -3zM341 516l-3 4l-4 -4l4 -3zM338 523l-4 3l-3 -6l3 -4zM371 526v7h-7l-3 -3l7 -7zM148 530l3 10h-10v-10l3 -4zM71 583l-3 3l-4 -3l4 -3zM274 706l-6 4l-4 -4l7 -3
zM41 746l-3 4l-4 -4l4 -3z" />
    <glyph glyph-name="s" unicode="s" horiz-adv-x="433" 
d="M216 0l-6 6l-3 -3v6q-10 0 -18 1.5t-16 6.5t-16 8.5t-15 9.5l-3 10l-20 6q-6 -3 -9.5 -9.5t-5 -14.5t-8 -13t-12.5 -8l-3 3l-4 -3l-3 6l-19 -6l-3 3l6 13l-3 3l6 7q-6 3 -7.5 8t-1.5 11.5v11v11.5l6 16l-6 36l6 26l-6 29l3 3l-3 13l6 13q-3 3 -4.5 8t-1.5 9.5v9.5v12
l6 16l-6 32l9 7l-3 3l6 3l10 -3v-7h7l9 7l4 -10l-4 -3l10 -36l-10 -13l13 -6l-3 -10h6l13 -42l-3 -3l7 -13l-4 -3l4 -4l-4 -9l13 -3l7 -26l-7 -7l13 -6l4 3l6 -10l-3 -3l9 -3l7 -16l10 -4l-7 -3l7 -3v-13h6l10 3l35 -16l4 3l6 -6l16 3v6l29 7l10 16l3 -3l13 3l3 10l-3 3l3 3
l-6 4l10 12l-4 4l13 6l-6 3q3 7 3 15t5 14.5t11.5 13t3.5 16.5l-10 3l3 6l-3 4l-3 -4l-13 26l3 10h-7l-9 19l3 20h-13l-3 -4l-13 20l-3 -3l-4 19l-9 -3l-4 10l-3 -10v10h-11t-8 4.5t-8 6t-8 5.5v6l-13 3v10l-20 3l-9 16l-10 -3l-7 3l7 4l-23 9l-26 26v20l-19 3l-6 35h-10v7
l-10 3l-10 26l4 13h-7v32l3 13l-6 13l6 3l-6 4v3l6 10l-3 6h7v13h-10v13l3 13h7v10l-4 3l7 6l-3 7l19 26l10 3v16h-7l13 10l-3 3l26 23l10 -4v10l25 10l23 -7q3 7 8 7t8.5 1.5t9.5 1.5h10l16 -6l13 3l22 -10v-6l30 -13l-4 -4l10 -12l3 3l13 -3l3 3l-3 6l10 7l-7 3l13 3l-6 7
l6 3l-3 10l3 3l10 -3l7 6l-4 3h20l3 -22l-3 -4l3 -6l-10 -3v-7l3 -3l4 3l6 -58l-3 -6l3 -30l-3 -12l3 -4l-3 -22l6 -7l-6 -3l6 -10l-3 -6l3 -39l-3 -3l3 -36h-6v-6h-13l-3 3l-13 -3l-3 6l6 3l-3 4l3 3l-3 13h-7v3l4 6l-17 49l4 3l-4 3l4 4l-7 3l-3 10h3l3 -10l7 13l-16 3
l-7 16h7v20h-7l-3 -4v7h-6l-7 26l-16 9l-3 20h-7h-6.5t-3.5 5t-3 5l3 3l-12 6l-13 -3l-20 10l-3 -3l-3 3q-7 -7 -15 -8.5t-14.5 -4.5t-11.5 -9.5t-11 -13.5v7h-6l-4 -4l4 -3l-4 -3l7 -3l-23 -58l3 -20l-6 -13l13 -6q0 -10 3 -15t6.5 -11.5t8 -13t8.5 -12.5l42 -32l3 3
l26 -16v-7l32 -13v-6l13 -3l-3 -4l6 -3l4 3l51 -42l4 -16l3 7q10 -10 18 -23t12.5 -26t9.5 -26t8 -26l-3 -9l3 -4l4 4l3 -91l-7 -16l4 -23l-23 -64l-10 -7l3 -3l-3 -3l3 -4l-9 -13h-13v-12l-3 3l-13 -16l-4 3l-3 -13l-13 -3l3 -4l-16 -6l-3 3l-3 -6l-29 -3l-10 6l-3 6l-3 -6
h-4l-3 10l-6 -16h-4v9h-9v-9h-4zM294 25v7h-6l-4 -3l7 -7zM165 32v13l-4 3l-6 -16h10zM310 35l-3 3l-3 -3l3 -3zM313 38l-3 4l-3 -4h6zM333 42v12h-10v-12h10zM136 132l-4 3l-3 -3l3 -3zM119 135l4 10h-10v3l6 13l-3 3l-3 -6l-13 -16l3 -3l3 3l10 -10zM90 142v19l-3 3
l-3 -22l3 -3zM394 148l-3 4l-3 -4l3 -3zM368 152v3l-3 3l-3 -6l3 -4zM116 177l-3 4l-3 -4l3 -3zM297 268l-3 3l-3 -3l3 -3zM304 271v10h-10v-10h10zM365 284v16h-6l-7 -9l10 -10zM320 284v7l-3 16h-13v-10l3 -13h13zM281 320v9l-6 7l-4 -16h10zM200 342l-3 4l-3 -4l3 -3z
M362 339v16l-10 23l-3 -29l3 -10h10zM284 342v10h-9v-10h9zM310 355l7 23l-16 6v-19l6 -13zM132 407l-6 3l-3 -3l6 -3zM265 417v22l-3 4l-7 -26h10zM87 443v3l-3 3zM246 462l-4 3l-3 -3l3 -3zM126 485l3 22h-10v-22l4 -4zM74 491v16l-6 10l-7 -7l10 -22zM68 520l-4 3l-3 -3
l3 -3zM77 530l-3 3l-3 -3l3 -3zM336 569l-3 3l-3 -3l3 -4zM74 630v7l-3 3l-3 -10l3 -3zM223 711l-10 3l-3 -3l10 -3zM372 753l-4 3l-3 -3l3 -3z" />
    <glyph glyph-name="t" unicode="t" horiz-adv-x="565" 
d="M248 3l-40 10l-17 -4l-3 4l-3 -7h-13v3l3 4l-3 6l3 7l-3 3l3 10h-10v3l7 4l10 -4v7h9v7h7l3 -7l4 3l13 -3v20l-3 10l6 3l-3 3l3 10l4 -3l3 13l-10 20h7v23h-7v40h13v10l7 3l-17 7v-7l4 -3h-4l-3 6l3 4l-3 26l3 10l-3 36l3 10l-3 33l3 7l-3 3l3 4l-3 33h7l3 26l-10 10
l10 30l-3 13h9v7l-13 6v3l7 30l-3 3l-4 -3l-3 7l10 6l3 14l-10 26l7 20l-3 3l3 3l-7 4l-3 -4v34l7 9q-7 7 -7 17v20v20t-7 16l7 17l-10 16l-3 -13l3 -7h-7l-13 7l-3 -7l-20 -3l-3 3l-27 -23h-6l-10 -16l-13 -4l-7 -26h-7v-10l-16 -20l3 -3l-6 -13l-7 6l-13 -36l3 -3l-13 -30
h-7v-7l-10 4l4 6l-4 4l-3 -4l-3 7l-4 -7h-13l-3 4h6l4 -4l3 10h-13l20 60l-4 6l23 80h7l3 9l-3 14l10 3l17 30l9 3l4 10h43l6 -7l37 7l16 -3l3 3l4 -3l3 3l3 -3l4 3l16 -3l20 3l3 -7l14 4l19 -4v7h7l3 -3l14 3l6 -3l3 3l7 -3l3 -7l4 7l39 3l4 -3l43 3l23 -7l3 4l-3 3l3 -3
l3 3l20 -10l27 10l19 -7l-3 -6l20 -50l-3 -6l6 -10l-6 -7l10 -3l-4 -4l10 -23h-6v-6l3 -10h6l20 -60l-3 -10h7l3 -19l-36 -10l-7 3v10l3 3l-20 27l4 3l-7 3v10h-7l4 20l-4 10h-6h-6.5t-3.5 5t-3 5l3 3l-17 23l4 13h-10l-7 -3l-3 7l3 3l-10 17l-16 6v7h-7l-6 -4l-27 14l-6 -7
v7h-7l-10 13l3 3l-6 3l-7 -13h7l3 -16q-7 -4 -8.5 -8.5t-3 -9.5t-1.5 -12v-13h-10v-10h6l4 -40l-4 -6l4 -4l-4 -6l4 -4l-4 -16l4 -23l-4 -4l4 -3l-4 -3l4 -3l-4 -4l4 -3l-7 -7q3 -3 5 -8t2 -11.5t7.5 -34.5t-7.5 11l-4 -3l4 -46l-4 -4l4 -3l-10 -20q6 -3 8 -8t2 -11.5v-13
v-13.5l-7 -3l3 -4l-3 -6q7 -3 7 -8v-10v-10v-12l-4 -20l4 -36h-10v-10h6l-9 -6l6 -7l3 3l4 -46l-4 -3l4 -20l-4 -3q4 -14 4 -27v-26.5t5 -25t11 -21.5l17 -3l3 3l7 -3l-4 -7l10 -19l-3 -7l3 -10l-105 -3l-4 3zM258 6l-7 3l-3 -3l6 -3zM293 22l7 20l-3 4l-7 -20zM300 22l4 5
l-3 3l-4 -5zM254 42l-23 7l-13 -10l16 -6zM248 69l-27 13l-3 -3l20 -17zM254 201v10h-10v-10h10zM270 214l2 21l-4 3l-2 -21zM272 238l2 6l-3 4l-4 -7zM257 262l11 41h-11l-3 -37zM293 314l3 -4l8 10l-10 11l-4 -13zM295 303l3 3l-2 4l-4 -3zM306 306l7 -4l3 3l-9 8l-4 -3z
M231 333l-3 4l-3 -4l3 -3zM317 340l1 7l-5 2l-1 -7zM316 353l2 16l-5 2l-2 -16zM244 406l4 10h-10l-10 -3v-10h13zM289 423l5 -3l6 10l-16 5l1 -10zM288 444h7l3 4l-9 9zM251 442l-10 7l-3 -10h10zM270 501l3 6l-3 5l-4 -8zM272 481l10 -1v10l-10 1v-10zM300 511l7 -9l7 11
l-16 21l-3 -10zM536 545l8 1l4 9l-12 4v-14zM254 574l-26 14l-3 -4l19 -16zM330 746l-3 4l-3 -4l3 -3z" />
    <glyph glyph-name="u" unicode="u" horiz-adv-x="506" 
d="M245 0v3l-23 6v-6h-13l-16 6l-4 10l-3 -3l-16 3v-7h-7v7l-16 3l3 -3l4 13h-10l-7 -7l-9 7l-4 19l-9 7l-10 6l-7 -3v13h-6v3l3 4l-6 3l-4 6l4 7l-13 26h-7v19l3 4l-3 6h7v10h-7l3 6l-9 13l6 7l-3 3l6 13l-3 10h-6l3 3l-3 13l6 16l-3 4l3 3l-6 3l6 3l-10 20l4 10h9v13l-3 9
l-10 4l4 9h6l3 10l-3 16h-6l-7 26l7 13l-7 29l3 4l-3 9l3 7l-3 32l3 10l-3 3l3 7l-3 16l3 10l-3 3l3 13l-3 33l3 6l7 3l-3 4l6 3l-6 3l-7 20l16 3v16h-9l3 3l-7 17l10 19l-3 3l3 4l-13 19l3 7l-3 3l-10 -3l4 3l-42 13v42l3 3l6 -3l7 3l3 -3l23 3l9 -3l26 3l4 -3l29 3l19 -3
l13 3l7 -6l6 6l7 -6l3 6l10 -3l19 3l13 -3l17 3l3 -45l-42 -10v-6h-7l-3 3l-3 -7l6 -13l-6 -42l3 -3l-7 -23h7v-39l-3 -23l3 -19l-3 -3l3 -10l-3 -16l3 -23l-3 -3l3 -13l-7 -23h7l-3 -3l3 -30h-7v-22h7v-16l-3 -4l3 -71l-7 -23h7v-42l-3 -7l3 -9l-7 -10l10 -29l-3 -4l3 -6
l-3 -3l3 -4l-3 -3l3 -3l-3 -3l6 -4q4 -9 5.5 -17.5t6.5 -16.5t9.5 -14.5t11.5 -12.5l-13 -4v-6l10 -10l3 3l3 -9l7 16l-4 3h4l48 -13q4 7 12 3.5t11 3t9.5 6.5t10.5 3l3 10l13 3l16 36l10 3l-7 4h7l10 65h6v6l-3 23l10 6v10l-7 20l7 19l-4 33l13 16l-13 6v43l7 3l-7 3l-3 13
l7 32q-4 4 -5.5 7t-1.5 6.5v8v8.5v-4l3 -3l4 23h-7v23l3 19l-3 33l3 6l-3 42h7l3 23l-3 3l-7 -3v20l7 16l-10 19l6 7l-9 3v10l6 6l-10 4l-3 -4l-3 4l-3 -7l-4 3l-3 -3l-3 7l-3 -4v10h-10v-6h-3l3 3l-10 3v-6h-6l-7 3l3 10l-3 3l3 3l-3 10l3 -3l13 6v10l-3 6h13l3 -3l17 3
l13 -6q3 3 9.5 4.5t13 1.5h13h12.5v-9h7l6 9h33q6 -3 7.5 -6t1.5 -9.5v-11.5v-12l-9 -3l6 -3l-6 -3l-4 3l-26 -13l-16 -36l3 -120l-3 -3l3 -13l-3 -4l3 -3l-3 -3l3 -26l-6 -13l6 -23l-3 -39l3 -13l-6 -16l6 -29l-6 -23l3 -3l-3 -3l6 -4v-74q-3 -17 -3 -33t-1.5 -32.5
t-3 -32.5t-11.5 -29l3 -3l-19 -46h-7l-9 -23l-17 -6l-3 -13l-52 -26l-6 3q-4 -6 -12 -6t-14.5 -1.5t-13 -1.5h-12.5zM280 38v20l-3 3l-13 -19l13 -7zM215 55v3l-3 3l-3 -6l3 -4zM332 61v7l-9 6l-7 -6zM378 68l-3 3l-4 -3l4 -4zM131 155v4l-3 3l-4 -7l4 -3zM160 175l3 3
l-9 10l-7 -10l10 -6zM72 181l-3 4l-3 -4l3 -3zM157 198v6l-10 13l-3 -10l10 -13zM121 198v9h-10v-9h10zM150 237v3l-3 3l-3 -6l3 -4zM154 246v7l-4 3l-3 -10l3 -3zM111 253v6l4 13l-10 10l-7 -10l10 -22zM95 272v7l3 13h-6l-7 -20h10zM180 311l-4 4l-3 -4l3 -3zM128 341v9
h-13v-9h13zM180 357v6l-4 4l-6 -7zM111 370v3l10 16l-6 13l-10 3v-35l3 -3zM141 389v20h-10v-17l6 -6zM391 392l-3 4l-4 -4l4 -3zM391 444l-3 4l-4 -4l4 -3zM170 454v7l3 19l-3 3q-3 -3 -6.5 -6t-3.5 -6.5v-8.5v-8h10zM423 532l3 3l-9 4v-7l3 -3zM89 581v10l3 3l-7 6l-6 -16
l6 -6zM92 617l-7 3l-3 -3l7 -4zM24 724l-4 3l-3 -3l3 -3zM160 747l-3 3l-3 -3l3 -4z" />
    <glyph glyph-name="v" unicode="v" horiz-adv-x="488" 
d="M231 0l-7 6l7 6l-3 13h-7l-9 20l9 6l3 13l-16 6l-12 42l3 7l-3 3l3 6q-7 4 -7 10v11t-3 10t-3 11h-7l-3 16l3 4l-6 3v3l3 10l-3 3l3 6l-3 3l-3 -3v7l3 19l-3 3l-3 -16q0 13 -5 21t-8.5 19.5t-3.5 22.5t-3 21l3 3l-3 3l3 4l-3 12h-6l-3 -3v3h6v7l-13 26l3 3l-6 16l3 3
l-10 7l-3 16l3 3l-9 19l3 7l-3 3h6v6l-3 4l-3 -4l9 13l-6 7l-3 -4l-10 23l3 3l-3 3l3 4l-9 3l6 3l-13 19l3 4l-3 16h-6l9 6l-12 7l-4 13l7 16l-3 9h-7l-16 52l3 3l-3 3l3 3l-6 4l-7 35h-6l3 3l-13 4l3 12l-19 4l-3 16l3 3l-3 6l3 13h7l6 -3l16 3l10 -3v-6l9 -4l7 13h26l6 -9
h16v6l3 -3l23 6l3 -3l20 3l3 -3l29 3l6 -3l10 3l3 -38l-26 -10l-9 -29l3 -10l-7 -3l10 -6q0 -13 5 -24.5t5 -24.5t3 -25.5t10 -22.5l-4 -13h7l19 -77l-3 -3q10 -20 14.5 -39t9.5 -40l10 -42t11 -40l-10 -20l10 -9l10 25h6l3 33l7 3l-3 13l3 3l-3 3q6 3 6 11.5t1.5 14.5
t1.5 12.5t7 9.5l-4 7l7 3l-3 3l6 36l7 -3l6 12h-6l3 4l-3 9l6 16l-3 4q3 6 6 12.5t5 13t3.5 13t4.5 12.5l-3 7l6 19l-3 3l13 58h6v10l-3 3l7 6l-7 33l7 3l-33 16v13h-6l-6 -10l-17 7v19l7 16l-3 3h6l26 -6l3 3l-10 3h10l19 -3l20 3l3 -3l10 3l3 -3l64 3l3 -3l-3 -3l3 -29
q-6 0 -11 -5t-8 -11.5t-8 -11t-11 -8.5h-7v-12l4 -10h-7v-7l3 -6l-13 -35l4 -4l-4 -13l-6 13l-6 -22l6 -10q-3 -9 -4.5 -20.5t-5 -21t-5 -21t-11.5 -17.5l4 -10l-7 -35h-6q3 -20 -2 -37.5t-9.5 -33.5t-8 -34t-13.5 -34l4 -10l-16 -51l3 -3l-32 -116l3 -3q-7 -10 -8.5 -19.5
t-3 -19.5t-5 -21t-12.5 -15l6 -3v-6l-3 -3l3 -7l-6 -22v6h-10l-3 -10l3 -3l-13 -6l-9 3v-6l-4 3zM224 35l-3 3l-3 -3l3 -3zM228 38l-4 3l-3 -3h7zM247 41v13h-10v-13h10zM215 80l6 23h-9l-4 -23l4 -3zM231 109l-3 3l-4 -3l4 -3zM234 122v32l-3 3l-13 -19l3 -16l10 -3z
M282 151v3l-3 3l-3 -6l3 -3zM218 157v10l-3 3l-3 -13l3 -3zM228 180v10l3 3l-7 3l-3 -3v6h-9v-9l12 -13zM231 202l-3 4l-4 -4l4 -3zM189 264v3l-3 3l-3 -6l3 -4zM186 273v3l-3 4l-4 -10l4 -3zM234 283v6l-3 16h-13v-9l3 -13h13zM337 293v12l-3 4l-3 -20l3 -3zM196 318v10
l-7 6l-3 -16h10zM199 341v10h-10v-10h10zM224 354l7 22l-16 7v-20l6 -12zM347 399v6l-7 7l-3 -10l7 -6zM179 415v22l-3 4l-6 -26h9zM340 418v3l-3 4l-3 -7l3 -3zM231 431v16l-3 3l-7 -19h10zM369 479v10l-3 3l-6 -9l6 -7zM363 524v4l3 16h-9v-20l3 -3zM131 537v36l-3 3
l-7 -32l7 -10zM70 647l-3 3l-4 -3l4 -3zM47 705l-3 3l-3 -3l3 -3zM460 753l-4 3l-3 -3l3 -3z" />
    <glyph glyph-name="w" unicode="w" horiz-adv-x="500" 
d="M170 0v6l-20 3l-6 29h6v13h-6l-3 13v-3l3 -4l9 17l-3 9l3 20h-9v-10l-3 19h-7l3 13h-6l-3 16l3 3l-3 7l3 3l-7 13l4 13h-7v19l3 7l-3 3l3 3l-6 3l6 3l-3 13h-6l-3 42l3 7l-10 19l3 3l-9 23h3l3 -3l3 12l-9 7l3 3l-7 3l-6 36l3 6l-9 36l3 3l-3 3l3 6l-10 23l3 3l-6 20l3 3
l-3 6l3 7q-6 3 -6 9.5t-2 11t-2 9.5v12l7 12l-3 10l-10 3l-3 29l3 7h6v6l-9 13l3 6l-10 17l-3 -4v7l3 3l-9 35l3 13h-7v7h-6l3 9l-22 7l9 16l-6 10l3 9h16l13 -6l13 3l3 -3q10 10 24.5 8t27.5 -2h25.5h25.5v-6h13v6h7l19 -6l19 6l7 -3l19 3l26 -6v6h6l39 -3l10 3l3 -13h-7
v-9l7 -13q-7 -7 -13.5 -11.5t-6.5 -12.5v-16v-18l10 -39l-3 -9q10 -23 13 -47t6 -48.5t6.5 -48.5t13.5 -46l-4 -4l10 -3l10 23l-4 6l10 7l-3 9l3 3l-6 7l-4 -7v17l4 19l9 -3v9l-3 4l-3 -4v4l3 12l-3 4l3 3l-3 3l6 7l-3 3l3 3l-3 3l3 7l7 3l-3 6h6v13h-10l13 3l-6 7l3 3l-6 3
l3 3l-3 4h6l6 38l-3 7q3 3 5 8t5 8t3 9.5v9.5h-10l10 3l-3 10l-23 7l-6 9l-3 -3l-4 10l-16 3v13l13 6l-3 3l3 4l-6 3v3l71 3l3 -3l3 3v-6h16v6l3 -9l4 9h22l3 -38l-9 -4l-13 4v-10l-10 -3l3 -3q-3 -4 -6 -8.5t-6.5 -9.5t-3.5 -10v-11l3 -19l-3 3l-3 -16l3 -10l-3 -10l-6 -3
l6 -3v-7l-6 -19l3 -3l-3 -23h-10v-6l6 -16l-6 -19l3 -4l-10 -13l7 -3v-3l-13 -48l3 -7l-3 -3l3 -10l-6 -13l3 -9h-6l-7 -23l3 -3l-3 -3l7 -13l-20 -97l4 -16l-10 -38l3 -4l-6 -9l3 -13l-13 -45l3 -7l-6 -6l6 -3v-7l-9 -26l3 -6l-13 -77l-3 6l-29 -9l-7 16l3 3l-3 9l7 4
l-10 3l-3 16l3 6l-3 4l3 3l-3 3l3 7l-3 3l3 3l-6 3v7l6 22l-3 10h-7l-3 10l10 19q-7 3 -7 8t-3 8t-3 8v11h-7v4l7 3l-10 6v7l3 9h-6l6 3l-9 13l6 10l-6 29h-7l-3 19h7v13l-13 39l3 3l-3 7l3 6l-10 19l7 4l-7 9l-9 -3v-10h-7l-3 -22h6v-3l-6 -4l3 -6l-10 -45l4 -7l-16 -67
l3 -13l-7 -10l4 -16l-13 -45l3 -19l-10 -29l4 -10l-7 -3l3 -13l-9 -26l3 -16h-7v-16h-9v-6h-3zM331 19l9 22l-6 7l-6.5 -6.5t-3.5 -6.5v-8v-8l3 -3zM314 38l7 7l-13 3v-10l3 -3zM170 70v4l-4 3l-3 -7l3 -3zM170 77v16l3 3l-13 3v-22h10zM141 83l-4 3h7zM324 99v7l3 9l-6 10
l-7 -16l4 -3l-4 -3zM166 122v42l-3 3q-3 -3 -3 -9.5v-13t-3.5 -11.5t-3.5 -11h13zM137 132l-3 3l-3 -3l3 -4zM176 138v3l-3 3l-3 -6l3 -3zM137 141v3l-3 4l-3 -7l3 -3zM356 148v3l-3 3l-3 -6l3 -4zM176 151l-3 3l-3 -3l3 -3zM157 199v3l-4 4l-3 -7l3 -3zM153 209v16l-3 3
l-3 -22l3 -4zM360 280l6 9l-13 7v-16l3 -4zM192 286l-3 3l-3 -3l3 -3zM302 286v16l-4 3l-3 -19l3 -3zM199 309l3 19h-7l-6 -23h6zM211 331v10l-3 3l-6 -10zM366 334v7l3 29l-3 3l-10 -39h10zM141 360v7l-13 19l-7 -10l16 -19zM215 370v10h-7l-3 -4l6 -9zM263 383l-3 3l-4 -3
l4 -3zM343 386v10l-6 6l-6 -10l9 -9zM218 386v10l-7 6l-6 -10zM256 392v4l-3 3l-3 -7l3 -3zM292 396l3 9l-3 3l-7 -12l4 -4zM160 399v9h-10v-9h10zM331 402l-10 6l-3 -3l9 -6zM340 405l-3 3l-3 -3l3 -3zM202 408v7l3 6l3 -6l10 16q-3 3 -6.5 3t-3.5 5v8v7l10 22h-7l7 3l-3 4
l3 3l-3 3l3 6l-3 4l3 22l9 7v9l-3 36l10 35h-10l-3 -3l-6 13l3 3l-3 6l3 4l-3 19l6 6l-13 7l-6 39l6 16h-6l-3 -4l-4 4l-9 -7h3l3 3l-19 4l-23 -16l-3 -26l6 -23l-3 -3l7 -23l-7 -6l3 -10h7l6 -35l-6 -3l3 -20h7l19 -132l-3 -3l6 -13zM298 415v3l-3 3l-3 -6l3 -3zM411 434v7
l-6 6l-4 -19h10v6zM398 470l-3 3l-3 -3l3 -4zM163 470v6l-10 7l-6 -17h6zM269 476l4 7l-7 6l-3 -13l3 -3zM134 479l3 7l-6 6l-7 -16h7zM273 489l-4 3l-3 -3l3 -3zM276 521v20h-10v-13l7 -10zM231 570l-4 3l-3 -3l3 -4zM453 702l-3 3l-4 -3l4 -4zM324 714l-6 7l-4 -13h10v6z
" />
    <glyph glyph-name="x" unicode="x" horiz-adv-x="502" 
d="M15 0v20l-3 16l23 7l3 10l4 -3l16 10l-3 3l13 20l7 -3l7 6l-4 7l7 10l-3 3l16 10v10l-3 7q7 7 10 13.5t8 13t7 13.5t2 17l16 3l4 10l-10 10q3 7 8 15t10 15t5 17t7 16l13 4l-13 3l13 27h3l4 -4l6 10l-6 10q3 4 6.5 9t3.5 11.5t1.5 11.5t4.5 8l-13 27h-7l7 3l-10 4l-7 13
l4 3l-14 27l4 3l-4 17h-6l-7 23l3 17l-3 3l-7 -3l-3 20l-10 3l-3 10h10v10h-7l-7 -3l4 17h-7l3 13l-3 3l-3 -3l3 23h-7l-3 7l-3 -10h-4v3l4 7l-10 7l-4 10l7 13l-13 17l3 3l-10 7l-3 13l-4 -3l-10 26h-10l10 7l-6 3l-7 -3l-3 3l-4 -3l-10 3v7h-6l-10 37q3 6 9.5 6h15h15
h13.5l3 -3l20 3l7 -3l27 3l16 -3l77 3l27 -10v-3l-7 -17l3 -6h-10l-6 -10l-17 -24l30 -83l-7 -7l17 -6l20 -60h7l30 63l10 7l-4 3h10v7l10 3l-10 3l7 4l-3 6h6v14h-6q3 3 6.5 8t5 8.5t1.5 10t3 9.5l4 -3l6 10l-6 7l-7 -4l3 4l-10 13l-26 7l-10 -4l-14 7v10l4 7l-4 23l4 3
l3 -6l3 6h27l13 -3l44 3l10 -6l3 3l7 -3l10 6l6 -3l4 3l13 -3l20 3l3 -26l-10 -20l-33 -34h-7l-3 -13l-10 -3l-3 -24l-4 7l-3 -20l3 -3l-73 -160l-10 -10l17 -37l-4 -3l10 -14l-3 -3l3 -7l-3 -3l7 -3l3 3l7 -17l-4 -3l37 -87l-3 -3l6 -20h7v-7l-3 -6q6 -4 9.5 -10.5l7 -13
t5 -13.5t4.5 -13l-3 -10h7l20 -50l-4 -10l7 -10l3 3q4 -10 4 -18.5t6.5 -15t10 -15t9.5 -14.5l20 -7l4 -23h-7v-10h7q-4 0 -4 -5t-3 -5h-6.5h-6.5l-4 23l-13 -20l10 -3h-20l-3 3l-7 -3l-3 6l-4 -6h-50l-26 6q-4 -6 -9 -6h-10h-10h-11l-4 6l-6 -3l-7 13l-10 -16h-3l-7 3v33
l17 7l3 -3l3 6l4 -6l6 20v-7h10l4 13l-7 17l-3 -3v10h-7l-7 16l10 20h-8t-8.5 2t-5 7t-1.5 8h7v7l-4 6l4 10l-20 7l-4 10l4 3l-4 4l10 3l-10 13l4 4l-7 3v7h-13l-7 16l3 4l-20 33l-6 -10l-4 3l-10 -6l10 -4v-3l-20 -43l-6 -4l3 -6l-43 -97h-7v-23l27 -30l16 -4l7 -10l3 7h7
v-7h7v-20l-4 -13l-33 -3v3l3 3l-6 4l-4 -4v7h-10v-7l-40 -6l-13 3l-27 -3l-3 6l-7 -6l4 10h-10v-7l-10 -3l-4 3l-3 -3l-3 3zM42 6l-4 4l-3 -4l3 -3zM168 16l-3 4l-3 -4l3 -3zM395 16v4l-3 3l-4 -7l4 -3zM408 20l4 13l-4 3l4 4l-14 3l-10 -3v-7l10 -10l4 3l3 -10zM52 50l-4 3
l-3 -3l3 -4zM132 96v14l3 20l-7 6l-3 -40l3 -3zM92 113l-4 3l-3 -3l3 -3zM308 120v3l-3 3l-3 -6l3 -4zM108 123l-3 3l-3 -3l3 -3zM418 130l-10 3l-3 -3l10 -4zM115 133v10h-13v-10h13zM132 140l-4 3l-3 -3l3 -4zM155 140l-7 3l-3 -3l7 -4zM338 140l4 3l-10 10l-7 -10l10 -7z
M405 153l-3 3l-4 -3l4 -3zM335 163v7l-10 13l-3 -10l10 -13zM298 163v10h-10v-10h10zM128 180l-3 3l-3 -3l3 -4zM268 183v3l-3 4l-3 -7l3 -3zM328 203v3l-3 4l-3 -7l3 -3zM332 213v7l-4 3l-3 -10l3 -3zM288 220v6l4 14l-10 10l-7 -10l10 -24zM252 223l-4 3l-3 -3l3 -3z
M272 240v6l3 14h-7l-6 -20h10zM228 273v3l-3 4l-3 -7l3 -3zM178 276l-3 4l-3 -4l3 -3zM305 310v10h-13v-10h13zM208 336l-6 24l-10 -4v-16h6l-3 -4l10 -3zM288 340v3l10 17l-6 13l-10 3v-36l3 -4zM318 360v20h-10v-17l7 -7zM162 466v7l6 23l-3 4q-3 -4 -6.5 -7t-5 -8
t-1.5 -8.5v-10.5h10zM222 470v16l-7 7l-3 -23h10zM165 540l3 10h-10v-10l4 -4zM308 593l-3 3l-3 -3l3 -3z" />
    <glyph glyph-name="y" unicode="y" horiz-adv-x="515" 
d="M156 0v6l-20 4v3l3 3l-3 27h8t8.5 1.5t6.5 5t7 6.5l3 -3l17 17l-4 3l14 3v10l-4 4l4 6l-7 10l3 4l-3 6l7 24l-4 16l7 24l-3 10h3l3 -24l7 44l-3 3l-7 -13h-3v6l3 4l-3 10h-7l7 3l-7 3h7v14l-4 3l4 3l-7 7l3 7l-3 13v-3l7 -7l3 7l-3 10h-7h7v6l-7 10l3 10l-3 4l7 13h-7v3
l3 4l-3 20h-7l-10 43l-10 3l-3 27h-7l-23 67l3 3q-3 7 -6.5 15t-10 15t-6.5 17t-3 16l-4 -3v7l4 -4l3 10h-7v14h-6l-14 26h7v14l-10 3l3 3l-10 7h7v10h-10l3 7l7 3l-10 3l3 4l-6 6l-4 -3l-3 3l3 7l-3 3l-3 -3l-7 23l-3 -6l-7 13l-3 -3l-14 10l4 3l-7 3l-3 17l3 3l-3 17l30 3
l3 -3l23 3l17 -6v6h20v-10h7l3 4l-3 3l16 3l14 -3l6 -13l14 6v7l20 3l3 -10l20 4v6l7 -6l3 6h20l3 -20l-3 -3l3 -20l-23 -3q0 -7 -3.5 -12t-5 -10t-1.5 -10v-12l3 -10l-3 -10l13 -10l20 -63l-3 -20h10v7l37 -110l-4 -4l14 -3l10 17h10l6 30l-6 10h6l10 23l-3 17l7 20l6 3
l-3 3l10 24l7 3l-7 3l13 34h7l3 16l-3 4l-3 -4v4l6 3l-3 3l3 20l-10 24l-3 -4v7l-10 3l-3 -3l-24 13l-3 17h-7h7v7l-3 3l-4 -3v13l17 3l7 -3l10 3l20 -13l3 3l10 -3v10h-7l20 3l27 -6l50 6l3 -3l4 3l3 -40l-7 -3l-13 7l-7 -10l4 -4l-10 -3l-30 -57l3 -3l-3 -3l3 -4l-27 -76
l-3 3l-3 -7l3 -3l-47 -120l4 -3l-14 -4l-3 -10l7 -3v-13l-14 -34h-6v-6l3 -104l-3 -20l3 -46l-3 -4l3 -6l-7 -24h7v-30l-3 -3l3 -10l-3 -10l6 -27l-3 -6l37 -24l6 -10l7 14l3 -34l-3 -16v6h-20l-3 -3l6 -3h-16l-7 43l-7 -27l4 -10l-4 -6h-6l-4 3l-6 -3l-34 6v-6h-30
q-3 3 -8 4.5t-11.5 1.5h-13.5t-10 4l-13 -4v-6h-30zM266 13l-4 3l-3 -3l3 -3zM306 50v3l3 10l-3 13h-10l-4 -13l10 -17zM286 66v24h-10l-4 -4l4 -20h10zM292 113v7l-10 23l-3 -30h13zM276 130v3l-4 3l-3 -6l3 -4zM296 193v3l-4 4l-3 -7l3 -3zM299 200v20l-3 3l-4 -23l4 -4z
M259 283l-3 3l-4 -3l4 -3zM256 303v17l-14 6v-16zM206 320v6l3 14h-7l-6 -20h10zM242 333l-6 10l-4 -13h7zM312 360l14 16l-7 10l-13 -26l3 -4zM232 390v6l-3 4l-3 -10l3 -4zM296 403v3l-4 4l-3 -7l3 -3zM306 440l-4 3l-3 -3l3 -4zM179 480v10l-3 3l-7 -10l7 -7zM342 710
l-6 3l-4 -3l7 -4zM422 746l-3 4l-3 -4l3 -3zM126 750l-4 3l-3 -3l3 -4zM29 753l-10 3l-3 -3l10 -3z" />
    <glyph glyph-name="z" unicode="z" horiz-adv-x="466" 
d="M27 0v3l-3 3l3 17l-3 23l9 23l17 7l3 10l7 3l-7 17l4 13h6l4 10l-4 20l17 16l-3 10l6 4l-3 10l17 23h6v10h7v16l-4 10l14 7l6 20l-6 13l10 17l-4 3h7l20 43l-3 4l6 16h10l4 10l-7 17l7 13l3 -3l6 6l-6 4l6 6l-3 7l3 10h7l7 26h10l3 37h7v7l-4 6l7 4l-3 3l6 13h7v17l3 -4
q4 7 4 15.5t3 13.5t6.5 13t9.5 12l-3 9l7 7l-4 3l20 44l10 3l4 16l-30 17q-10 -3 -23.5 -3t-25 -2t-23 -7t-21.5 -11v-7l-7 4l-3 -4l3 -3l-3 -10l-3 3l-14 -13l-46 -66v6l-10 4q-3 -4 -6.5 -5.5t-3.5 -5v-8.5v-8l3 -3l14 13v-3l-7 -14h-7l-6 7l-4 -7h-3l-17 10v20l7 23l10 4
l13 66l17 13l-3 4l-10 -7l20 43l16 7v7l-3 3l3 -3l13 3l30 -7l4 4l-4 3h123l10 -3l17 3v-7l20 -3l3 3l3 -3l13 3v7h24l6 -3l7 3l3 -3l20 3l13 -7l4 4l6 -17l-3 -7l7 -20l-4 -6l-13 -7l7 -10l-10 -3l6 -3v-4l-13 -33l-10 3v-13h7l-17 -36h-6l-4 -27h-3l-3 3l-4 -13l4 -3l-4 3
l-6 -13l3 -4l-23 -66l-4 20h-9v-20l6 -17l-6 -16h-7q3 -10 0 -16.5t-6.5 -13.5t-5 -13.5t-5.5 -13.5h-6v-16l-10 -7l-7 -16l3 -7l-3 -10l-10 -7l3 -10l-26 -66h-7l-6 -17l3 -6l-3 -10h-7l-3 -20v3l3 10h-7l-3 7l-20 -37h10l3 17h4v-7h6v-6q-3 -7 -8 -12t-6.5 -11.5t-1.5 -13
t-4 -13.5l-10 -3v-13.5t-3 -13.5t-5 -12t-5 -11h-6l-4 -13l20 -14l27 4l6 -10h10v6l-3 4h30l20 -7v10h6l4 -3l20 13l20 26l3 -3l13 10l-7 3h7l13 34l10 3v10l10 -3v6l10 3l4 10l-4 4l7 16l10 -3v10h-7l-3 7l13 6l-3 4h3l7 -7l3 3l3 -6l4 3l6 -7l4 7l10 -7l-10 -16h6v-14
q-10 -19 -16.5 -39t-13 -41.5t-15 -41.5t-18.5 -40l-20 -3l-6 6l-4 -6l-3 3l-3 -3l3 3l-16 6l-4 -6l-23 -3l-3 3l-4 -3l-3 6l-33 -6l-4 3l-9 -3l-4 6l-3 -6v6l-13 3l-7 -6l3 -3h-23l-10 3l-20 -3l-6 13l-14 -7l10 -3l-20 -3l-13 6l-3 -6h-14l-9 6l-17 -6v6h-7l-3 -3l-13 3
l-10 -3l-4 3zM216 6l-3 3l-4 -3l4 -3zM146 9l-3 4l-3 -4l3 -3zM126 16v13h-10v-13h10zM259 19v7l-13 7l-7 -7zM156 56v10l-3 13h-10v-13l10 -13zM359 63v3l3 7l-7 6l-10 -13l10 -7zM395 73l13 3v10l-13 16l-3 -13l3 -7h-3l-3 4l-7 -7l10 -10zM322 79l-3 3l-3 -3l3 -3z
M143 99v13l3 4l-13 20l-3 -37l3 -3zM405 116l-3 3l-3 -3l3 -4zM87 129v3l-4 4l-3 -7l3 -3zM153 136v10l-3 3l-4 -13l4 -4zM372 162v7l7 3v-7zM140 182l-4 3l-3 -3l3 -3zM143 185l-3 4l-4 -4h7zM402 195l-3 4l-4 -4l4 -3zM116 225v3l-3 4l-3 -7l3 -3zM183 245v3l-4 4l-3 -7
l3 -3zM186 252v6l-3 4l-4 -10l4 -4zM156 252v10h-10v-10h10zM143 265v10l3 13h-13l-3 -23h13zM179 302v13l-3 3l-6 -16h9zM176 325v10h-10v-10h10zM196 401v7l-7 20l-3 -27h10zM226 531v3l-3 3l-4 -6l4 -4zM355 537v7q-3 3 -6.5 8t-3.5 11.5t-1.5 11.5t-8.5 5l-6 -10l13 -33
h13zM372 590l-7 7l-6 -7l10 -3zM249 594l-3 3l-3 -3l3 -4zM375 594l-3 3l-3 -3h6zM113 623v4l-7 6l-3 -16h10v6zM93 700v3l-3 3l-3 -6l3 -4zM199 696v10h-10v-10h10zM216 703l-7 7l-3 -10h7zM97 706l6 10l-6 4l-7 -14l3 -3zM243 750l-4 3l-3 -3l3 -4z" />
    <glyph glyph-name="braceleft" unicode="{" 
 />
    <glyph glyph-name="bar" unicode="|" 
 />
    <glyph glyph-name="braceright" unicode="}" 
 />
    <glyph glyph-name="asciitilde" unicode="~" 
 />
    <glyph glyph-name="uni00A0" unicode="&#xa0;" 
 />
    <glyph glyph-name="exclamdown" unicode="&#xa1;" 
 />
    <glyph glyph-name="cent" unicode="&#xa2;" 
 />
    <glyph glyph-name="sterling" unicode="&#xa3;" 
 />
    <glyph glyph-name="currency" unicode="&#xa4;" 
 />
    <glyph glyph-name="yen" unicode="&#xa5;" 
 />
    <glyph glyph-name="brokenbar" unicode="&#xa6;" 
 />
    <glyph glyph-name="section" unicode="&#xa7;" 
 />
    <glyph glyph-name="dieresis" unicode="&#xa8;" 
 />
    <glyph glyph-name="copyright" unicode="&#xa9;" 
 />
    <glyph glyph-name="ordfeminine" unicode="&#xaa;" 
 />
    <glyph glyph-name="guillemotleft" unicode="&#xab;" 
 />
    <glyph glyph-name="logicalnot" unicode="&#xac;" 
 />
    <glyph glyph-name="uni00AD" unicode="&#xad;" 
 />
    <glyph glyph-name="registered" unicode="&#xae;" 
 />
    <glyph glyph-name="macron" unicode="&#xaf;" 
 />
    <glyph glyph-name="degree" unicode="&#xb0;" 
 />
    <glyph glyph-name="plusminus" unicode="&#xb1;" 
 />
    <glyph glyph-name="uni00B2" unicode="&#xb2;" 
 />
    <glyph glyph-name="uni00B3" unicode="&#xb3;" 
 />
    <glyph glyph-name="acute" unicode="&#xb4;" 
 />
    <glyph glyph-name="mu" unicode="&#xb5;" 
 />
    <glyph glyph-name="paragraph" unicode="&#xb6;" 
 />
    <glyph glyph-name="periodcentered" unicode="&#xb7;" 
 />
    <glyph glyph-name="cedilla" unicode="&#xb8;" 
 />
    <glyph glyph-name="uni00B9" unicode="&#xb9;" 
 />
    <glyph glyph-name="ordmasculine" unicode="&#xba;" 
 />
    <glyph glyph-name="guillemotright" unicode="&#xbb;" 
 />
    <glyph glyph-name="onequarter" unicode="&#xbc;" 
 />
    <glyph glyph-name="onehalf" unicode="&#xbd;" 
 />
    <glyph glyph-name="threequarters" unicode="&#xbe;" 
 />
    <glyph glyph-name="questiondown" unicode="&#xbf;" 
 />
    <glyph glyph-name="Agrave" unicode="&#xc0;" 
 />
    <glyph glyph-name="Aacute" unicode="&#xc1;" 
 />
    <glyph glyph-name="Acircumflex" unicode="&#xc2;" 
 />
    <glyph glyph-name="Atilde" unicode="&#xc3;" 
 />
    <glyph glyph-name="Adieresis" unicode="&#xc4;" 
 />
    <glyph glyph-name="Aring" unicode="&#xc5;" 
 />
    <glyph glyph-name="AE" unicode="&#xc6;" 
 />
    <glyph glyph-name="Ccedilla" unicode="&#xc7;" 
 />
    <glyph glyph-name="Egrave" unicode="&#xc8;" 
 />
    <glyph glyph-name="Eacute" unicode="&#xc9;" 
 />
    <glyph glyph-name="Ecircumflex" unicode="&#xca;" 
 />
    <glyph glyph-name="Edieresis" unicode="&#xcb;" 
 />
    <glyph glyph-name="Igrave" unicode="&#xcc;" 
 />
    <glyph glyph-name="Iacute" unicode="&#xcd;" 
 />
    <glyph glyph-name="Icircumflex" unicode="&#xce;" 
 />
    <glyph glyph-name="Idieresis" unicode="&#xcf;" 
 />
    <glyph glyph-name="Eth" unicode="&#xd0;" 
 />
    <glyph glyph-name="Ntilde" unicode="&#xd1;" 
 />
    <glyph glyph-name="Ograve" unicode="&#xd2;" 
 />
    <glyph glyph-name="Oacute" unicode="&#xd3;" 
 />
    <glyph glyph-name="Ocircumflex" unicode="&#xd4;" 
 />
    <glyph glyph-name="Otilde" unicode="&#xd5;" 
 />
    <glyph glyph-name="Odieresis" unicode="&#xd6;" 
 />
    <glyph glyph-name="multiply" unicode="&#xd7;" 
 />
    <glyph glyph-name="Oslash" unicode="&#xd8;" 
 />
    <glyph glyph-name="Ugrave" unicode="&#xd9;" 
 />
    <glyph glyph-name="Uacute" unicode="&#xda;" 
 />
    <glyph glyph-name="Ucircumflex" unicode="&#xdb;" 
 />
    <glyph glyph-name="Udieresis" unicode="&#xdc;" 
 />
    <glyph glyph-name="Yacute" unicode="&#xdd;" 
 />
    <glyph glyph-name="Thorn" unicode="&#xde;" 
 />
    <glyph glyph-name="germandbls" unicode="&#xdf;" 
 />
    <glyph glyph-name="agrave" unicode="&#xe0;" 
 />
    <glyph glyph-name="aacute" unicode="&#xe1;" 
 />
    <glyph glyph-name="acircumflex" unicode="&#xe2;" 
 />
    <glyph glyph-name="atilde" unicode="&#xe3;" 
 />
    <glyph glyph-name="adieresis" unicode="&#xe4;" 
 />
    <glyph glyph-name="aring" unicode="&#xe5;" 
 />
    <glyph glyph-name="ae" unicode="&#xe6;" 
 />
    <glyph glyph-name="ccedilla" unicode="&#xe7;" 
 />
    <glyph glyph-name="egrave" unicode="&#xe8;" 
 />
    <glyph glyph-name="eacute" unicode="&#xe9;" 
 />
    <glyph glyph-name="ecircumflex" unicode="&#xea;" 
 />
    <glyph glyph-name="edieresis" unicode="&#xeb;" 
 />
    <glyph glyph-name="igrave" unicode="&#xec;" 
 />
    <glyph glyph-name="iacute" unicode="&#xed;" 
 />
    <glyph glyph-name="icircumflex" unicode="&#xee;" 
 />
    <glyph glyph-name="idieresis" unicode="&#xef;" 
 />
    <glyph glyph-name="eth" unicode="&#xf0;" 
 />
    <glyph glyph-name="ntilde" unicode="&#xf1;" 
 />
    <glyph glyph-name="ograve" unicode="&#xf2;" 
 />
    <glyph glyph-name="oacute" unicode="&#xf3;" 
 />
    <glyph glyph-name="ocircumflex" unicode="&#xf4;" 
 />
    <glyph glyph-name="otilde" unicode="&#xf5;" 
 />
    <glyph glyph-name="odieresis" unicode="&#xf6;" 
 />
    <glyph glyph-name="divide" unicode="&#xf7;" 
 />
    <glyph glyph-name="oslash" unicode="&#xf8;" 
 />
    <glyph glyph-name="ugrave" unicode="&#xf9;" 
 />
    <glyph glyph-name="uacute" unicode="&#xfa;" 
 />
    <glyph glyph-name="ucircumflex" unicode="&#xfb;" 
 />
    <glyph glyph-name="udieresis" unicode="&#xfc;" 
 />
    <glyph glyph-name="yacute" unicode="&#xfd;" 
 />
    <glyph glyph-name="thorn" unicode="&#xfe;" 
 />
    <glyph glyph-name="ydieresis" unicode="&#xff;" 
 />
    <glyph glyph-name="OE" unicode="&#x152;" 
 />
    <glyph glyph-name="oe" unicode="&#x153;" 
 />
    <glyph glyph-name="Scaron" unicode="&#x160;" 
 />
    <glyph glyph-name="scaron" unicode="&#x161;" 
 />
    <glyph glyph-name="Ydieresis" unicode="&#x178;" 
 />
    <glyph glyph-name="Zcaron" unicode="&#x17d;" 
 />
    <glyph glyph-name="zcaron" unicode="&#x17e;" 
 />
    <glyph glyph-name="florin" unicode="&#x192;" 
 />
    <glyph glyph-name="circumflex" unicode="&#x2c6;" 
 />
    <glyph glyph-name="tilde" unicode="&#x2dc;" 
 />
    <glyph glyph-name="endash" unicode="&#x2013;" 
 />
    <glyph glyph-name="emdash" unicode="&#x2014;" 
 />
    <glyph glyph-name="quoteleft" unicode="&#x2018;" 
 />
    <glyph glyph-name="quoteright" unicode="&#x2019;" 
 />
    <glyph glyph-name="quotesinglbase" unicode="&#x201a;" 
 />
    <glyph glyph-name="quotedblleft" unicode="&#x201c;" 
 />
    <glyph glyph-name="quotedblright" unicode="&#x201d;" 
 />
    <glyph glyph-name="quotedblbase" unicode="&#x201e;" 
 />
    <glyph glyph-name="dagger" unicode="&#x2020;" 
 />
    <glyph glyph-name="daggerdbl" unicode="&#x2021;" 
 />
    <glyph glyph-name="bullet" unicode="&#x2022;" 
 />
    <glyph glyph-name="ellipsis" unicode="&#x2026;" 
 />
    <glyph glyph-name="perthousand" unicode="&#x2030;" 
 />
    <glyph glyph-name="guilsinglleft" unicode="&#x2039;" 
 />
    <glyph glyph-name="guilsinglright" unicode="&#x203a;" 
 />
    <glyph glyph-name="Euro" unicode="&#x20ac;" 
 />
    <glyph glyph-name="trademark" unicode="&#x2122;" 
 />
    <glyph glyph-name="uni2219" unicode="&#x2219;" 
 />
  </font>
</defs>
</svg>
